Lato-MediumItalic.ufo
<glyph name="exclam" format="2">
  <advance width="511"/>
  <unicode hex="0021"/>
  <outline>
    <contour>
      <point x="262.4" y="1436" type="line" name="n00"/>
      <point x="192.4" y="862.8" type="line" smooth="yes"/>
      <point x="177.2" y="742.4"/>
      <point x="174" y="638.8"/>
      <point x="172.4" y="501.2" type="curve"/>
      <point x="300" y="501.2" type="line"/>
      <point x="332.4" y="638.8"/>
      <point x="355.6" y="742.4"/>
      <point x="370.4" y="862.8" type="curve" smooth="yes"/>
      <point x="440.4" y="1436" type="line"/>
    </contour>
    <contour>
      <point x="71.6" y="116.4" type="curve" smooth="yes"/>
      <point x="71.6" y="42"/>
      <point x="128.4" y="-14.8"/>
      <point x="202.8" y="-14.8" type="curve" smooth="yes" name="n13"/>
      <point x="276" y="-14.8"/>
      <point x="334.8" y="42"/>
      <point x="334.8" y="116.4" type="curve" smooth="yes"/>
      <point x="334.8" y="189.6"/>
      <point x="276" y="248.4"/>
      <point x="202.8" y="248.4" type="curve" smooth="yes" name="n19"/>
      <point x="128.4" y="248.4"/>
      <point x="71.6" y="189.6"/>
    </contour>
  </outline>
  <guideline angle="90" x="281" y="0"/>
  <guideline angle="82.9991" x="100" y="0"/>
</glyph>
<glyph name="numbersign" format="2">
  <advance width="1160.0"/>
  <unicode hex="0023"/>
  <guideline x="580.0" y="0.0" angle="82.9991"/>
  <outline>
    <contour>
      <point x="243.4" y="504.0" type="line"/>
      <point x="239.0" y="468.8" type="line"/>
      <point x="88.60000000000001" y="0.0" type="line"/>
      <point x="173.0" y="0.0" type="line" smooth="yes"/>
      <point x="213.4" y="0.0"/>
      <point x="253.0" y="19.6"/>
      <point x="267.8" y="71.19999999999999" type="curve" smooth="yes"/>
      <point x="394.2" y="468.8" type="line"/>
      <point x="398.6" y="504.0" type="line"/>
      <point x="537.8" y="936.8" type="line"/>
      <point x="541.4" y="972.4" type="line"/>
      <point x="690.2" y="1434.8" type="line"/>
      <point x="604.2" y="1434.8" type="line" smooth="yes"/>
      <point x="563.0" y="1434.8"/>
      <point x="527.0" y="1410.4"/>
      <point x="513.4" y="1368.4" type="curve" smooth="yes"/>
      <point x="386.2" y="972.4" type="line"/>
      <point x="381.4" y="936.8" type="line"/>
    </contour>
    <contour>
      <point x="639.8" y="504.0" type="line"/>
      <point x="635.4" y="468.8" type="line"/>
      <point x="510.2" y="80.8" type="line"/>
      <point x="494.6" y="35.6"/>
      <point x="518.6" y="0.0"/>
      <point x="555.0" y="0.0" type="curve" smooth="yes"/>
      <point x="641.4" y="0.0" type="line"/>
      <point x="790.6" y="468.8" type="line"/>
      <point x="795.0" y="504.0" type="line"/>
      <point x="933.0" y="936.8" type="line"/>
      <point x="937.8" y="972.4" type="line"/>
      <point x="1065.0" y="1365.6" type="line"/>
      <point x="1078.2" y="1406.0"/>
      <point x="1053.8" y="1434.8"/>
      <point x="1014.6" y="1434.8" type="curve"/>
      <point x="930.2" y="1434.8" type="line"/>
      <point x="781.4" y="972.4" type="line"/>
      <point x="777.8" y="936.8" type="line"/>
    </contour>
    <contour>
      <point x="1009.4" y="420.4" type="line"/>
      <point x="1027.0" y="480.4" type="line"/>
      <point x="1041.4" y="537.6"/>
      <point x="1024.6" y="558.4"/>
      <point x="985.4" y="558.4" type="curve" smooth="yes"/>
      <point x="59.0" y="558.4" type="line"/>
      <point x="42.2" y="498.4" type="line"/>
      <point x="27.0" y="442.4"/>
      <point x="43.800000000000004" y="420.4"/>
      <point x="83.0" y="420.4" type="curve" smooth="yes"/>
    </contour>
    <contour>
      <point x="133.8" y="877.6" type="line"/>
      <point x="1047.0" y="877.6" type="line" smooth="yes"/>
      <point x="1100.6" y="877.6"/>
      <point x="1127.0" y="896.0"/>
      <point x="1137.8" y="936.4" type="curve"/>
      <point x="1162.6" y="1014.4" type="line"/>
      <point x="249.4" y="1014.4" type="line"/>
      <point x="194.6" y="1014.4"/>
      <point x="168.6" y="996.0"/>
      <point x="156.6" y="955.6" type="curve" smooth="yes"/>
    </contour>
  </outline>
</glyph>
<glyph name="dollar" format="2">
  <advance width="1160"/>
  <unicode hex="0024"/>
  <outline>
    <contour>
      <point x="1104.8" y="1290" type="line"/>
      <point x="1023.6" y="1382.4"/>
      <point x="905.6" y="1449.6"/>
      <point x="718" y="1449.6" type="curve" smooth="yes" name="n03"/>
      <point x="400.8" y="1449.6"/>
      <point x="204.8" y="1236"/>
      <point x="204.8" y="1004.8" type="curve" smooth="yes"/>
      <point x="204.8" y="572.8"/>
      <point x="852.4" y="731.6"/>
      <point x="852.4" y="432.8" type="curve" smooth="yes"/>
      <point x="852.4" y="263.2"/>
      <point x="724.8" y="142"/>
      <point x="501.2" y="142" type="curve" smooth="yes" name="n12"/>
      <point x="278" y="142"/>
      <point x="215.2" y="284"/>
      <point x="157.6" y="284" type="curve" smooth="yes"/>
      <point x="137.2" y="284"/>
      <point x="118.4" y="273.6"/>
      <point x="105.2" y="257.6" type="curve" smooth="yes"/>
      <point x="37.6" y="172" type="line"/>
      <point x="134" y="58"/>
      <point x="292" y="-16"/>
      <point x="481.2" y="-16" type="curve" smooth="yes" name="n22"/>
      <point x="824" y="-16"/>
      <point x="1037.2" y="211.6"/>
      <point x="1037.2" y="478.8" type="curve" smooth="yes"/>
      <point x="1037.2" y="883.2"/>
      <point x="386.4" y="747.6"/>
      <point x="386.4" y="1047.2" type="curve" smooth="yes"/>
      <point x="386.4" y="1178"/>
      <point x="488.8" y="1290.4"/>
      <point x="716" y="1290.4" type="curve" smooth="yes" name="n31"/>
      <point x="883.6" y="1290.4"/>
      <point x="956.8" y="1189.2"/>
      <point x="999.6" y="1189.2" type="curve" smooth="yes"/>
      <point x="1020.4" y="1189.2"/>
      <point x="1035.2" y="1198.4"/>
      <point x="1051.6" y="1220.4" type="curve" smooth="yes"/>
    </contour>
    <contour>
      <point x="364" y="-235.6" type="line" name="n38"/>
      <point x="434" y="-235.6" type="line" smooth="yes"/>
      <point x="463.6" y="-235.6"/>
      <point x="488.8" y="-211.6"/>
      <point x="492.4" y="-186" type="curve"/>
      <point x="846" y="1639.6" type="line" name="n43"/>
      <point x="776" y="1639.6" type="line" smooth="yes"/>
      <point x="746.4" y="1639.6"/>
      <point x="722" y="1615.6"/>
      <point x="717.6" y="1588.8" type="curve"/>
    </contour>
  </outline>
  <guideline angle="82.9991" x="580" y="0"/>
</glyph>
<glyph name="percent" format="2">
  <advance width="1496.6"/>
  <unicode hex="0025"/>
  <guideline x="730.0" y="0.0" angle="82.9991"/>
  <outline>
    <contour>
      <point x="740.8" y="1145.6" type="curve" smooth="yes"/>
      <point x="740.8" y="1335.2"/>
      <point x="635.2" y="1449.6"/>
      <point x="482.4" y="1449.6" type="curve" smooth="yes"/>
      <point x="292.8" y="1449.6"/>
      <point x="136.8" y="1294.0"/>
      <point x="136.8" y="1032.8" type="curve" smooth="yes"/>
      <point x="136.8" y="846.4"/>
      <point x="241.6" y="732.0"/>
      <point x="394.0" y="732.0" type="curve" smooth="yes"/>
      <point x="568.8" y="732.0"/>
      <point x="740.8" y="884.4"/>
    </contour>
    <contour>
      <point x="594.0" y="1144.4" type="curve" smooth="yes"/>
      <point x="594.0" y="935.6"/>
      <point x="509.6" y="856.8"/>
      <point x="409.2" y="856.8" type="curve" smooth="yes"/>
      <point x="336.0" y="856.8"/>
      <point x="282.8" y="907.2"/>
      <point x="282.8" y="1032.8" type="curve" smooth="yes"/>
      <point x="282.8" y="1241.6"/>
      <point x="364.8" y="1326.0"/>
      <point x="467.2" y="1326.0" type="curve" smooth="yes"/>
      <point x="539.6" y="1326.0"/>
      <point x="594.0" y="1272.4"/>
    </contour>
    <contour>
      <point x="86.8" y="0.0" type="line"/>
      <point x="225.6" y="0.0" type="line" smooth="yes"/>
      <point x="253.2" y="0.0"/>
      <point x="273.6" y="12.799999999999999"/>
      <point x="288.4" y="29.599999999999998" type="curve"/>
      <point x="1435.2" y="1434.8" type="line"/>
      <point x="1298.8" y="1434.8" type="line"/>
      <point x="1265.6" y="1434.8"/>
      <point x="1247.2" y="1419.6"/>
      <point x="1231.6" y="1404.0" type="curve"/>
    </contour>
    <contour>
      <point x="1386.8" y="396.4" type="curve" smooth="yes"/>
      <point x="1386.8" y="586.0"/>
      <point x="1281.2" y="700.4"/>
      <point x="1128.4" y="700.4" type="curve" smooth="yes"/>
      <point x="938.8" y="700.4"/>
      <point x="782.8" y="544.8"/>
      <point x="782.8" y="282.4" type="curve" smooth="yes"/>
      <point x="782.8" y="97.2"/>
      <point x="887.6" y="-17.2"/>
      <point x="1040.0" y="-17.2" type="curve" smooth="yes"/>
      <point x="1214.8" y="-17.2"/>
      <point x="1386.8" y="134.0"/>
    </contour>
    <contour>
      <point x="1240.0" y="395.2" type="curve" smooth="yes"/>
      <point x="1240.0" y="186.4"/>
      <point x="1155.6" y="106.39999999999999"/>
      <point x="1055.2" y="106.39999999999999" type="curve" smooth="yes"/>
      <point x="982.0" y="106.39999999999999"/>
      <point x="928.8" y="158.0"/>
      <point x="928.8" y="282.4" type="curve" smooth="yes"/>
      <point x="928.8" y="491.2"/>
      <point x="1010.8" y="575.6"/>
      <point x="1113.2" y="575.6" type="curve" smooth="yes"/>
      <point x="1185.6" y="575.6"/>
      <point x="1240.0" y="523.2"/>
    </contour>
  </outline>
</glyph>
<glyph name="ampersand" format="2">
  <advance width="1320"/>
  <unicode hex="0026"/>
  <outline>
    <contour>
      <point x="475.6" y="828.8" type="line"/>
      <point x="246" y="759.6"/>
      <point x="52" y="579.2"/>
      <point x="52" y="338.4" type="curve" smooth="yes"/>
      <point x="52" y="119.6"/>
      <point x="202" y="-16" name="n05"/>
      <point x="428" y="-16" type="curve" smooth="yes"/>
      <point x="815.2" y="-16"/>
      <point x="1130.4" y="353.6"/>
      <point x="1182" y="745.6" type="curve"/>
      <point x="1050.8" y="745.6" type="line" smooth="yes"/>
      <point x="1023.8" y="745.6"/>
      <point x="1012" y="728.4"/>
      <point x="1007" y="703" type="curve" smooth="yes"/>
      <point x="955.4" y="430.2"/>
      <point x="737.6" y="136"/>
      <point x="468" y="136" type="curve" smooth="yes" name="n16"/>
      <point x="338.8" y="136"/>
      <point x="246.4" y="219.6"/>
      <point x="246.4" y="363.2" type="curve" smooth="yes"/>
      <point x="246.4" y="531.2"/>
      <point x="355.2" y="675.2"/>
      <point x="586.4" y="751.6" type="curve"/>
    </contour>
    <contour>
      <point x="723.6" y="1450.8" type="curve" smooth="yes" name="n23"/>
      <point x="477.6" y="1450.8"/>
      <point x="317.2" y="1272"/>
      <point x="317.2" y="1050.4" type="curve" smooth="yes"/>
      <point x="317.2" y="944"/>
      <point x="356" y="830"/>
      <point x="444.4" y="716.8" type="curve" smooth="yes"/>
      <point x="958.8" y="55.6" type="line" smooth="yes"/>
      <point x="991.6" y="14.4"/>
      <point x="1014.4" y="0"/>
      <point x="1076.8" y="0" type="curve" smooth="yes" name="n33"/>
      <point x="1239.2" y="0" type="line"/>
      <point x="586.4" y="832.4" type="line"/>
      <point x="524" y="915.2"/>
      <point x="493.6" y="992"/>
      <point x="493.6" y="1064.4" type="curve" smooth="yes"/>
      <point x="493.6" y="1199.2"/>
      <point x="577.6" y="1304.8"/>
      <point x="706.8" y="1304.8" type="curve" smooth="yes" name="n41"/>
      <point x="809.2" y="1304.8"/>
      <point x="859.2" y="1227.2"/>
      <point x="872.4" y="1153.6" type="curve"/>
      <point x="880.8" y="1122.4"/>
      <point x="896.4" y="1114.8"/>
      <point x="928.8" y="1120.8" type="curve" smooth="yes"/>
      <point x="1040.4" y="1142.4" type="line"/>
      <point x="1042.8" y="1312.4"/>
      <point x="925.6" y="1450.8"/>
    </contour>
  </outline>
  <guideline angle="82.9991" x="627" y="0"/>
</glyph>
<glyph name="quotesingle" format="2">
  <advance width="392.6"/>
  <unicode hex="0027"/>
  <guideline x="215.0"/>
  <guideline x="100.0" y="0.0" angle="82.9991"/>
  <outline>
    <contour>
      <point x="215.0" y="1434.8" type="line"/>
      <point x="178.2" y="1145.6" type="line"/>
      <point x="176.6" y="990.0" type="line"/>
      <point x="180.2" y="945.2"/>
      <point x="195.4" y="919.6"/>
      <point x="232.6" y="919.6" type="curve"/>
      <point x="275.8" y="919.6"/>
      <point x="294.6" y="945.2"/>
      <point x="306.6" y="990.0" type="curve"/>
      <point x="342.2" y="1145.6" type="line"/>
      <point x="378.2" y="1434.8" type="line"/>
    </contour>
  </outline>
</glyph>
<glyph name="parenleft" format="2">
  <advance width="521"/>
  <unicode hex="0028"/>
  <outline>
    <contour>
      <point x="246.4" y="438.8" type="curve" smooth="yes"/>
      <point x="246.4" y="829.6"/>
      <point x="357.2" y="1124.4"/>
      <point x="547.6" y="1425.6" type="curve" smooth="yes"/>
      <point x="575.2" y="1468.4"/>
      <point x="560" y="1488.8"/>
      <point x="541.2" y="1502.8" type="curve"/>
      <point x="462.8" y="1553.2" type="line" name="n07"/>
      <point x="156" y="1126"/>
      <point x="80.8" y="802.8"/>
      <point x="80.8" y="422.4" type="curve" smooth="yes"/>
      <point x="80.8" y="198.8"/>
      <point x="126.8" y="-67.2"/>
      <point x="236.8" y="-296.4" type="curve" name="n13"/>
      <point x="326" y="-246" type="line"/>
      <point x="349.2" y="-232"/>
      <point x="368.8" y="-211.6"/>
      <point x="352" y="-168.8" type="curve" smooth="yes"/>
      <point x="282" y="7.6"/>
      <point x="246.4" y="245.6"/>
    </contour>
  </outline>
  <guideline angle="82.9991" x="276" y="0"/>
</glyph>
<glyph name="parenright" format="2">
  <advance width="520.2"/>
  <unicode hex="0029"/>
  <guideline x="276.0" y="0.0" angle="82.9991"/>
  <outline>
    <contour>
      <point x="279.4" y="818.0" type="curve"/>
      <point x="279.4" y="445.6"/>
      <point x="168.6" y="132.4"/>
      <point x="-21.8" y="-168.8" type="curve" smooth="yes"/>
      <point x="-49.4" y="-211.6"/>
      <point x="-35.0" y="-232.0"/>
      <point x="-15.4" y="-246.0" type="curve"/>
      <point x="61.8" y="-296.4" type="line"/>
      <point x="369.8" y="130.8"/>
      <point x="444.2" y="454.0"/>
      <point x="444.2" y="834.4" type="curve" smooth="yes"/>
      <point x="444.2" y="1059.2"/>
      <point x="398.2" y="1324.0"/>
      <point x="289.0" y="1553.2" type="curve"/>
      <point x="199.0" y="1502.8" type="line" smooth="yes"/>
      <point x="175.8" y="1488.8"/>
      <point x="157.0" y="1468.4"/>
      <point x="173.0" y="1425.6" type="curve" smooth="yes"/>
      <point x="241.8" y="1249.2"/>
      <point x="279.4" y="1011.2"/>
    </contour>
  </outline>
</glyph>
<glyph name="asterisk" format="2">
  <advance width="790"/>
  <unicode hex="002A"/>
  <outline>
    <contour>
      <point x="198.2" y="980" type="line"/>
      <point x="363.4" y="1078.8" type="line"/>
      <point x="396.6" y="1097.6"/>
      <point x="421" y="1116.4"/>
      <point x="439.8" y="1148.8" type="curve"/>
      <point x="424.6" y="1183.6" type="line"/>
      <point x="389.8" y="1185.2"/>
      <point x="359.8" y="1176.8"/>
      <point x="327.8" y="1158" type="curve" smooth="yes"/>
      <point x="162.6" y="1059.2" type="line"/>
    </contour>
    <contour>
      <point x="468.2" y="858.8" type="line" name="n10"/>
      <point x="492.6" y="1054.4" type="line" smooth="yes"/>
      <point x="497" y="1090.8"/>
      <point x="492.6" y="1120"/>
      <point x="477" y="1149.6" type="curve"/>
      <point x="439.8" y="1149.6" type="line"/>
      <point x="415.4" y="1122"/>
      <point x="405" y="1090.8"/>
      <point x="400.6" y="1053.2" type="curve" smooth="yes"/>
      <point x="376.2" y="858.8" type="line"/>
    </contour>
    <contour>
      <point x="731.8" y="1058" type="line"/>
      <point x="590.2" y="1158" type="line" smooth="yes"/>
      <point x="562.6" y="1178"/>
      <point x="533.4" y="1185.2"/>
      <point x="500.6" y="1183.6" type="curve"/>
      <point x="476.2" y="1148.8" type="line"/>
      <point x="486.2" y="1115.6"/>
      <point x="507.4" y="1097.6"/>
      <point x="535.8" y="1078.8" type="curve" smooth="yes"/>
      <point x="677.8" y="980" type="line"/>
    </contour>
    <contour>
      <point x="456.2" y="1507.2" type="line" name="n30"/>
      <point x="431.8" y="1311.6" type="line" smooth="yes"/>
      <point x="427.4" y="1276.4"/>
      <point x="431.8" y="1246.4"/>
      <point x="447" y="1216.8" type="curve"/>
      <point x="485.4" y="1216.8" type="line"/>
      <point x="509" y="1245.2"/>
      <point x="519.4" y="1276.4"/>
      <point x="523.8" y="1312.8" type="curve" smooth="yes"/>
      <point x="548.2" y="1507.2" type="line"/>
    </contour>
    <contour>
      <point x="192.2" y="1308" type="line"/>
      <point x="334.2" y="1208" type="line" smooth="yes"/>
      <point x="361.8" y="1189.2"/>
      <point x="389.8" y="1180.8"/>
      <point x="424.6" y="1182.8" type="curve"/>
      <point x="447" y="1217.6" type="line"/>
      <point x="437.4" y="1248.8"/>
      <point x="417" y="1269.6"/>
      <point x="389.4" y="1287.2" type="curve"/>
      <point x="247.4" y="1387.2" type="line"/>
    </contour>
    <contour>
      <point x="727" y="1386" type="line"/>
      <point x="561.8" y="1287.2" type="line"/>
      <point x="528.6" y="1269.6"/>
      <point x="503.4" y="1248.8"/>
      <point x="485.4" y="1217.6" type="curve"/>
      <point x="500.6" y="1182.8" type="line"/>
      <point x="533.4" y="1179.2"/>
      <point x="563.4" y="1190.4"/>
      <point x="596.6" y="1208" type="curve"/>
      <point x="761.8" y="1306.8" type="line"/>
    </contour>
    <contour>
      <point x="420.6" y="1204.8" type="line"/>
      <point x="409.4" y="1153.2" type="line"/>
      <point x="449.4" y="1121.6" type="line"/>
      <point x="506.6" y="1152" type="line"/>
      <point x="514.6" y="1211.6" type="line"/>
      <point x="473" y="1232" type="line"/>
    </contour>
  </outline>
  <guideline angle="82.9991" x="368" y="0"/>
</glyph>
<glyph name="plus" format="2">
  <advance width="1160"/>
  <unicode hex="002B"/>
  <outline>
    <contour>
      <point x="98.6" y="600" type="line" name="n00"/>
      <point x="1060.2" y="600" type="line"/>
      <point x="1077.8" y="742.4" type="line"/>
      <point x="116.2" y="742.4" type="line" name="n03"/>
    </contour>
    <contour>
      <point x="571.4" y="1166.8" type="line" name="n04"/>
      <point x="448.6" y="173.6" type="line" name="n05"/>
      <point x="603" y="173.6" type="line"/>
      <point x="724.6" y="1166.8" type="line"/>
    </contour>
  </outline>
  <guideline angle="82.9991" x="580" y="0"/>
</glyph>
<glyph name="comma" format="2">
  <advance width="454.6"/>
  <unicode hex="002C"/>
  <guideline x="215.6" y="0.0" angle="82.9991"/>
  <outline>
    <contour>
      <point x="40.2" y="130.0" type="curve" smooth="yes"/>
      <point x="40.2" y="55.6"/>
      <point x="90.6" y="0.40000000000000036"/>
      <point x="163.4" y="0.40000000000000036" type="curve" smooth="yes"/>
      <point x="193.4" y="0.40000000000000036"/>
      <point x="214.6" y="8.4"/>
      <point x="230.2" y="20.8" type="curve"/>
      <point x="175.8" y="38.8" type="line"/>
      <point x="175.8" y="-96.0"/>
      <point x="50.2" y="-176.8"/>
      <point x="50.2" y="-212.8" type="curve"/>
      <point x="50.2" y="-224.4"/>
      <point x="53.8" y="-233.2"/>
      <point x="64.2" y="-242.4" type="curve" smooth="yes"/>
      <point x="98.2" y="-274.0" type="line"/>
      <point x="223.8" y="-170.8"/>
      <point x="295.4" y="-21.6"/>
      <point x="295.4" y="99.6" type="curve" smooth="yes"/>
      <point x="295.4" y="182.0"/>
      <point x="251.39999999999998" y="248.4"/>
      <point x="165.0" y="248.4" type="curve"/>
      <point x="90.6" y="248.4"/>
      <point x="40.2" y="195.6"/>
    </contour>
  </outline>
</glyph>
<glyph name="hyphen" format="2">
  <advance width="700"/>
  <unicode hex="002D"/>
  <unicode hex="00AD"/>
  <unicode hex="2010"/>
  <outline>
    <contour>
      <point x="107.2" y="520.4" type="line"/>
      <point x="569.6" y="520.4" type="line" name="n01"/>
      <point x="589.6" y="679.6" type="line" name="n02"/>
      <point x="126.8" y="679.6" type="line"/>
    </contour>
  </outline>
  <guideline angle="82.9991" x="294" y="0"/>
</glyph>
<glyph name="period" format="2">
  <advance width="470"/>
  <unicode hex="002E"/>
  <outline>
    <contour>
      <point x="46.6" y="116.4" type="curve" smooth="yes"/>
      <point x="46.6" y="42"/>
      <point x="103.4" y="-14.8"/>
      <point x="177.8" y="-14.8" type="curve" smooth="yes" name="n03"/>
      <point x="251" y="-14.8"/>
      <point x="309.8" y="42"/>
      <point x="309.8" y="116.4" type="curve" smooth="yes"/>
      <point x="309.8" y="189.6"/>
      <point x="251" y="248.4"/>
      <point x="177.8" y="248.4" type="curve" smooth="yes" name="n09"/>
      <point x="103.4" y="248.4"/>
      <point x="46.6" y="189.6"/>
    </contour>
  </outline>
  <guideline angle="82.9991" x="185" y="0"/>
</glyph>
<glyph name="slash" format="2">
  <advance width="842.0"/>
  <unicode hex="002F"/>
  <guideline x="351.0" y="0.0" angle="82.9991"/>
  <outline>
    <contour>
      <point x="881.8" y="1452.0" type="line"/>
      <point x="802.2" y="1452.0" type="line" smooth="yes"/>
      <point x="756.2" y="1452.0"/>
      <point x="717.8" y="1426.4"/>
      <point x="695.8" y="1383.6" type="curve" smooth="yes"/>
      <point x="-23.0" y="-92.4" type="line"/>
      <point x="57.0" y="-92.4" type="line" smooth="yes"/>
      <point x="96.2" y="-92.4"/>
      <point x="143.39999999999998" y="-67.6"/>
      <point x="166.6" y="-20.4" type="curve"/>
    </contour>
  </outline>
</glyph>
<glyph name="zero" format="2">
  <advance width="1160"/>
  <unicode hex="0030"/>
  <outline>
    <contour>
      <point x="1086.8" y="874.6" type="curve" smooth="yes"/>
      <point x="1086.8" y="1259.6"/>
      <point x="917.6" y="1451.4"/>
      <point x="681.8" y="1451.4" type="curve" smooth="yes" name="n03"/>
      <point x="365.6" y="1451.4"/>
      <point x="98.8" y="1161.4"/>
      <point x="98.8" y="560.6" type="curve" smooth="yes"/>
      <point x="98.8" y="176.2"/>
      <point x="266.2" y="-15.2"/>
      <point x="502" y="-15.2" type="curve" smooth="yes" name="n09"/>
      <point x="817.6" y="-15.2"/>
      <point x="1086.8" y="272.4"/>
    </contour>
    <contour>
      <point x="892.8" y="884.6" type="curve" smooth="yes"/>
      <point x="892.8" y="335.2"/>
      <point x="706.6" y="142.8"/>
      <point x="520.8" y="142.8" type="curve" smooth="yes" name="n15"/>
      <point x="395.2" y="142.8"/>
      <point x="292" y="254"/>
      <point x="292" y="549.2" type="curve" smooth="yes"/>
      <point x="292" y="1097.2"/>
      <point x="475.8" y="1292.8"/>
      <point x="662.4" y="1292.8" type="curve" smooth="yes" name="n21"/>
      <point x="788.6" y="1292.8"/>
      <point x="892.8" y="1180.8"/>
    </contour>
  </outline>
  <guideline angle="82.9991" x="656" y="0"/>
</glyph>
<glyph name="one" format="2">
  <advance width="1160"/>
  <unicode hex="0031"/>
  <outline>
    <contour>
      <point x="690" y="1438.6" type="line" name="n00"/>
      <point x="657" y="1330"/>
      <point x="626.8" y="1207.4"/>
      <point x="613.8" y="1101.2" type="curve" smooth="yes"/>
      <point x="478.6" y="0" type="line"/>
      <point x="667.6" y="0" type="line"/>
      <point x="844.2" y="1438.6" type="line"/>
    </contour>
    <contour>
      <point x="200.4" y="0" type="line" name="n07"/>
      <point x="918.8" y="0" type="line"/>
      <point x="936.8" y="143" type="line"/>
      <point x="218.4" y="143" type="line" name="n10"/>
    </contour>
    <contour>
      <point x="247.4" y="1068.4" type="line"/>
      <point x="296.2" y="986.6" type="line" smooth="yes"/>
      <point x="307.8" y="968"/>
      <point x="344.2" y="950.6"/>
      <point x="383.6" y="980" type="curve"/>
      <point x="664.2" y="1220.8" type="line"/>
      <point x="690" y="1438.6" type="line"/>
    </contour>
  </outline>
  <guideline angle="82.9991" x="458" y="0"/>
</glyph>
<glyph name="two" format="2">
  <advance width="1160"/>
  <unicode hex="0032"/>
  <outline>
    <contour>
      <point x="697.4" y="1451.4" type="curve" smooth="yes" name="n00"/>
      <point x="467.2" y="1451.4"/>
      <point x="275.8" y="1310.2"/>
      <point x="207.6" y="1045.4" type="curve"/>
      <point x="305" y="1028.6" type="line" smooth="yes"/>
      <point x="355.2" y="1020.2"/>
      <point x="382.6" y="1035"/>
      <point x="405.4" y="1083.6" type="curve"/>
      <point x="444.6" y="1203.8"/>
      <point x="543.4" y="1290.4"/>
      <point x="666.8" y="1290.4" type="curve" smooth="yes" name="n10"/>
      <point x="780.2" y="1290.4"/>
      <point x="859.6" y="1221.2"/>
      <point x="859.6" y="1086.8" type="curve" smooth="yes"/>
      <point x="859.6" y="903"/>
      <point x="756.4" y="777.4"/>
      <point x="576.8" y="602" type="curve" smooth="yes"/>
      <point x="106" y="144" type="line"/>
      <point x="79.4" y="121"/>
      <point x="65.2" y="89.8"/>
      <point x="62.2" y="64" type="curve" smooth="yes"/>
      <point x="54.2" y="0" type="line"/>
      <point x="946.4" y="0" type="line" name="n22"/>
      <point x="960.4" y="113.4" type="line" smooth="yes"/>
      <point x="965" y="151.8"/>
      <point x="942.4" y="177.4"/>
      <point x="901.6" y="177.4" type="curve" smooth="yes" name="n26"/>
      <point x="499" y="177.4" type="line" smooth="yes"/>
      <point x="411.6" y="177.4"/>
      <point x="295" y="146.6"/>
      <point x="217.4" y="110.2" type="curve"/>
      <point x="212" y="37.2" type="line"/>
      <point x="716.4" y="531.6" type="line"/>
      <point x="899.8" y="710"/>
      <point x="1054.6" y="859.6"/>
      <point x="1054.6" y="1103.8" type="curve" smooth="yes"/>
      <point x="1054.6" y="1318.8"/>
      <point x="909.2" y="1451.4"/>
    </contour>
  </outline>
  <guideline angle="82.9991" x="488" y="0"/>
</glyph>
<glyph name="three" format="2">
  <advance width="1160"/>
  <unicode hex="0033"/>
  <outline>
    <contour>
      <point x="700.8" y="1451.4" type="curve" smooth="yes" name="n00"/>
      <point x="471" y="1451.4"/>
      <point x="279.6" y="1310.2"/>
      <point x="211.4" y="1045.4" type="curve"/>
      <point x="307.8" y="1028.6" type="line" smooth="yes"/>
      <point x="359" y="1020.2"/>
      <point x="385.2" y="1035"/>
      <point x="408.4" y="1083.6" type="curve"/>
      <point x="447.6" y="1203.8"/>
      <point x="546.8" y="1290.4"/>
      <point x="670.6" y="1290.4" type="curve" smooth="yes" name="n10"/>
      <point x="784" y="1290.4"/>
      <point x="861.6" y="1223.2"/>
      <point x="861.6" y="1092.4" type="curve" smooth="yes"/>
      <point x="861.6" y="913.4"/>
      <point x="759.8" y="807.2"/>
      <point x="526" y="803.6" type="curve"/>
      <point x="509.6" y="667.6" type="line"/>
      <point x="741" y="666.8"/>
      <point x="807.8" y="579.4"/>
      <point x="807.8" y="460.8" type="curve" smooth="yes"/>
      <point x="807.8" y="303.8"/>
      <point x="699.2" y="144.4"/>
      <point x="512" y="144.4" type="curve" smooth="yes" name="n23"/>
      <point x="337.6" y="144.4"/>
      <point x="303.6" y="290.2"/>
      <point x="275.2" y="366.6" type="curve"/>
      <point x="262.6" y="404"/>
      <point x="219.2" y="411.4"/>
      <point x="173.8" y="393.2" type="curve" smooth="yes"/>
      <point x="87.8" y="358.8" type="line"/>
      <point x="126" y="140.8"/>
      <point x="220" y="-16"/>
      <point x="495" y="-16" type="curve" smooth="yes" name="n33"/>
      <point x="758" y="-16"/>
      <point x="996.2" y="166.6"/>
      <point x="996.2" y="462.2" type="curve" smooth="yes"/>
      <point x="996.2" y="653"/>
      <point x="867.8" y="770.6"/>
      <point x="610.6" y="781" type="curve"/>
      <point x="604" y="724.6" type="line"/>
      <point x="871.2" y="744.6"/>
      <point x="1049.4" y="849.4"/>
      <point x="1049.4" y="1128.6" type="curve" smooth="yes"/>
      <point x="1049.4" y="1320.2"/>
      <point x="914.2" y="1451.4"/>
    </contour>
  </outline>
  <guideline angle="82.9991" x="488" y="0"/>
</glyph>
<glyph name="four" format="2">
  <advance width="1160.0"/>
  <unicode hex="0034"/>
  <guideline x="533.6" y="0.0" angle="82.9991"/>
  <outline>
    <contour>
      <point x="979.0" y="1436.2" type="line"/>
      <point x="802.0" y="1436.2" type="line"/>
      <point x="51.400000000000006" y="511.8" type="line"/>
      <point x="59.0" y="415.6" type="line"/>
      <point x="61.2" y="391.0"/>
      <point x="80.6" y="373.2"/>
      <point x="107.4" y="373.2" type="curve" smooth="yes"/>
      <point x="995.4" y="373.2" type="line" smooth="yes"/>
      <point x="1021.4" y="373.2"/>
      <point x="1038.0" y="391.0"/>
      <point x="1040.8" y="412.8" type="curve" smooth="yes"/>
      <point x="1053.8" y="521.6" type="line"/>
      <point x="99.6" y="521.6" type="line"/>
      <point x="181.8" y="434.6" type="line"/>
      <point x="916.6" y="1360.0" type="line"/>
      <point x="847.8" y="1373.6" type="line"/>
      <point x="805.8" y="1277.4"/>
      <point x="781.6" y="1173.4"/>
      <point x="772.4" y="1095.8" type="curve" smooth="yes"/>
      <point x="638.0" y="0.0" type="line"/>
      <point x="802.4" y="0.0" type="line"/>
    </contour>
  </outline>
</glyph>
<glyph name="five" format="2">
  <advance width="1160"/>
  <unicode hex="0035"/>
  <outline>
    <contour>
      <point x="1056.4" y="1435.4" type="line"/>
      <point x="419.4" y="1435.4" type="line" name="n01"/>
      <point x="228.4" y="760.8" type="line"/>
      <point x="342.2" y="726.4" type="line"/>
      <point x="416.8" y="751.6"/>
      <point x="488.2" y="764.2"/>
      <point x="552.8" y="764.2" type="curve" smooth="yes" name="n06"/>
      <point x="714.8" y="764.2"/>
      <point x="795" y="668.4"/>
      <point x="795" y="523.4" type="curve" smooth="yes"/>
      <point x="795" y="306.8"/>
      <point x="670.8" y="144.8"/>
      <point x="468.6" y="144.8" type="curve" smooth="yes" name="n12"/>
      <point x="307.4" y="144.8"/>
      <point x="254.8" y="244.8"/>
      <point x="202" y="244.8" type="curve" smooth="yes"/>
      <point x="182.2" y="244.8"/>
      <point x="163.8" y="236.2"/>
      <point x="148.8" y="218.4" type="curve" smooth="yes"/>
      <point x="81.2" y="137.8" type="line"/>
      <point x="156.2" y="57"/>
      <point x="278.6" y="-16"/>
      <point x="438" y="-16" type="curve" smooth="yes" name="n22"/>
      <point x="737.2" y="-16"/>
      <point x="986.6" y="207.4"/>
      <point x="986.6" y="546" type="curve" smooth="yes"/>
      <point x="986.6" y="757.2"/>
      <point x="861.2" y="920.4"/>
      <point x="611.6" y="920.4" type="curve" smooth="yes" name="n28"/>
      <point x="535.2" y="920.4"/>
      <point x="447.4" y="907.2"/>
      <point x="347.6" y="876.6" type="curve"/>
      <point x="388.6" y="759.2" type="line"/>
      <point x="575.6" y="1417.6" type="line"/>
      <point x="418" y="1262.2" type="line" name="n34"/>
      <point x="924.2" y="1262.2" type="line" smooth="yes"/>
      <point x="1003.6" y="1262.2"/>
      <point x="1040" y="1300.6"/>
      <point x="1046" y="1354" type="curve" smooth="yes"/>
    </contour>
  </outline>
  <guideline angle="82.9991" x="461" y="0"/>
</glyph>
<glyph name="six" format="2">
  <advance width="1067.0"/>
  <unicode hex="0036"/>
  <outline>
    <contour>
      <point x="295.0" y="394.8" type="curve"/>
      <point x="295.0" y="583.0"/>
      <point x="424.6" y="738.6"/>
      <point x="603.2" y="738.6" type="curve" smooth="yes"/>
      <point x="745.6" y="738.6"/>
      <point x="835.6" y="640.8"/>
      <point x="835.6" y="485.6" type="curve" smooth="yes"/>
      <point x="835.6" y="286.6"/>
      <point x="701.2" y="140.2"/>
      <point x="521.2" y="140.2" type="curve" smooth="yes"/>
      <point x="373.4" y="140.2"/>
      <point x="295.0" y="246.2"/>
    </contour>
    <contour>
      <point x="295.8" y="480.6" type="line"/>
      <point x="316.4" y="635.6"/>
      <point x="404.79999999999995" y="747.0"/>
      <point x="535.6" y="900.2" type="curve"/>
      <point x="993.8" y="1435.4" type="line"/>
      <point x="826.2" y="1435.4" type="line" smooth="yes"/>
      <point x="782.0" y="1435.4"/>
      <point x="741.6" y="1415.6"/>
      <point x="720.2" y="1389.8" type="curve"/>
      <point x="332.4" y="905.4" type="line" smooth="yes"/>
      <point x="185.2" y="721.8"/>
      <point x="115.4" y="572.6"/>
      <point x="115.4" y="402.8" type="curve" smooth="yes"/>
      <point x="115.4" y="151.4"/>
      <point x="260.8" y="-16.0"/>
      <point x="505.4" y="-16.0" type="curve" smooth="yes"/>
      <point x="802.8" y="-16.0"/>
      <point x="1026.6" y="216.0"/>
      <point x="1026.6" y="514.4" type="curve" smooth="yes"/>
      <point x="1026.6" y="748.2"/>
      <point x="873.8" y="882.2"/>
      <point x="684.0" y="882.2" type="curve" smooth="yes"/>
      <point x="453.2" y="882.2"/>
      <point x="282.6" y="698.8"/>
      <point x="256.0" y="478.2" type="curve"/>
    </contour>
  </outline>
</glyph>
<glyph name="seven" format="2">
  <advance width="1160.0"/>
  <unicode hex="0037"/>
  <guideline x="487.6" y="0.0" angle="82.9991"/>
  <outline>
    <contour>
      <point x="236.0" y="1435.4" type="line"/>
      <point x="220.6" y="1307.8" type="line" smooth="yes"/>
      <point x="217.8" y="1283.6"/>
      <point x="236.4" y="1262.2"/>
      <point x="260.0" y="1262.2" type="curve" smooth="yes"/>
      <point x="1083.8" y="1262.2" type="line"/>
      <point x="949.2" y="1282.0" type="line"/>
      <point x="913.2" y="1250.8"/>
      <point x="885.4" y="1216.0"/>
      <point x="856.4" y="1170.8" type="curve" smooth="yes"/>
      <point x="174.4" y="0.0" type="line"/>
      <point x="310.0" y="0.0" type="line" smooth="yes"/>
      <point x="363.8" y="0.0"/>
      <point x="397.6" y="29.2"/>
      <point x="420.0" y="66.0" type="curve" smooth="yes"/>
      <point x="1095.2" y="1253.4" type="line"/>
      <point x="1107.8" y="1274.8"/>
      <point x="1124.8" y="1304.2"/>
      <point x="1131.2" y="1352.0" type="curve"/>
      <point x="1141.2" y="1435.4" type="line"/>
    </contour>
  </outline>
</glyph>
<glyph name="eight" format="2">
  <advance width="1160.0"/>
  <unicode hex="0038"/>
  <guideline x="516.8" y="0.0" angle="82.9991"/>
  <outline>
    <contour>
      <point x="503.2" y="-16.0" type="curve"/>
      <point x="793.6" y="-16.0"/>
      <point x="1008.6" y="163.2"/>
      <point x="1008.6" y="446.6" type="curve" smooth="yes"/>
      <point x="1008.6" y="651.0"/>
      <point x="871.6" y="768.6"/>
      <point x="615.0" y="776.4" type="curve"/>
      <point x="607.0" y="713.6" type="line"/>
      <point x="890.8" y="724.6"/>
      <point x="1045.4" y="883.0"/>
      <point x="1045.4" y="1115.4" type="curve" smooth="yes"/>
      <point x="1045.4" y="1303.2"/>
      <point x="905.8" y="1451.4"/>
      <point x="683.0" y="1451.4" type="curve"/>
      <point x="421.6" y="1451.4"/>
      <point x="227.2" y="1266.0"/>
      <point x="227.2" y="1026.6" type="curve" smooth="yes"/>
      <point x="227.2" y="846.0"/>
      <point x="346.0" y="722.6"/>
      <point x="578.0" y="713.6" type="curve"/>
      <point x="585.0" y="776.4" type="line"/>
      <point x="268.0" y="767.0"/>
      <point x="98.2" y="612.2"/>
      <point x="98.2" y="344.0" type="curve" smooth="yes"/>
      <point x="98.2" y="125.6"/>
      <point x="256.6" y="-16.0"/>
    </contour>
    <contour>
      <point x="604.8" y="819.2" type="curve"/>
      <point x="464.2" y="819.2"/>
      <point x="410.8" y="919.4"/>
      <point x="410.8" y="1025.6" type="curve" smooth="yes"/>
      <point x="410.8" y="1179.4"/>
      <point x="498.4" y="1306.6"/>
      <point x="665.4" y="1306.6" type="curve"/>
      <point x="797.4" y="1306.6"/>
      <point x="860.6" y="1214.8"/>
      <point x="860.6" y="1104.2" type="curve" smooth="yes"/>
      <point x="860.6" y="950.0"/>
      <point x="776.4" y="819.2"/>
    </contour>
    <contour>
      <point x="520.8" y="133.0" type="curve"/>
      <point x="374.4" y="133.0"/>
      <point x="293.8" y="227.2"/>
      <point x="293.8" y="358.2" type="curve" smooth="yes"/>
      <point x="293.8" y="586.2"/>
      <point x="438.8" y="669.0"/>
      <point x="586.6" y="669.0" type="curve"/>
      <point x="711.4" y="669.0"/>
      <point x="814.8" y="603.6"/>
      <point x="814.8" y="448.0" type="curve" smooth="yes"/>
      <point x="814.8" y="261.6"/>
      <point x="703.6" y="133.0"/>
    </contour>
  </outline>
</glyph>
<glyph name="nine" format="2">
  <advance width="1160.0"/>
  <unicode hex="0039"/>
  <guideline x="499.6" y="0.0" angle="82.9991"/>
  <outline>
    <contour>
      <point x="878.0" y="1051.4" type="curve"/>
      <point x="878.0" y="880.8"/>
      <point x="763.4" y="731.2"/>
      <point x="582.8" y="731.2" type="curve" smooth="yes"/>
      <point x="447.4" y="731.2"/>
      <point x="369.2" y="818.6"/>
      <point x="369.2" y="963.6" type="curve" smooth="yes"/>
      <point x="369.2" y="1159.0"/>
      <point x="491.2" y="1295.2"/>
      <point x="660.0" y="1295.2" type="curve" smooth="yes"/>
      <point x="791.2" y="1295.2"/>
      <point x="878.0" y="1199.4"/>
    </contour>
    <contour>
      <point x="884.8" y="977.8" type="line"/>
      <point x="862.8" y="817.0"/>
      <point x="789.6" y="715.6"/>
      <point x="669.6" y="570.2" type="curve" smooth="yes"/>
      <point x="194.0" y="0.0" type="line"/>
      <point x="367.6" y="0.0" type="line" smooth="yes"/>
      <point x="410.6" y="0.0"/>
      <point x="449.4" y="18.599999999999998"/>
      <point x="470.0" y="43.8" type="curve"/>
      <point x="845.6" y="544.0" type="line" smooth="yes"/>
      <point x="979.0" y="718.6"/>
      <point x="1057.6" y="854.0"/>
      <point x="1057.6" y="1052.0" type="curve" smooth="yes"/>
      <point x="1057.6" y="1286.0"/>
      <point x="917.0" y="1451.4"/>
      <point x="681.2" y="1451.4" type="curve" smooth="yes"/>
      <point x="397.0" y="1451.4"/>
      <point x="177.8" y="1225.0"/>
      <point x="177.8" y="941.2" type="curve" smooth="yes"/>
      <point x="177.8" y="716.6"/>
      <point x="325.2" y="587.0"/>
      <point x="500.4" y="587.0" type="curve" smooth="yes"/>
      <point x="704.8" y="587.0"/>
      <point x="892.4" y="734.8"/>
      <point x="922.2" y="977.8" type="curve"/>
    </contour>
  </outline>
</glyph>
<glyph name="less" format="2">
  <advance width="1160.0"/>
  <unicode hex="003C"/>
  <guideline x="533.0" y="0.0" angle="82.9991"/>
  <outline>
    <contour>
      <point x="174.0" y="713.2" type="line"/>
      <point x="166.6" y="652.8" type="line"/>
      <point x="297.8" y="653.6"/>
      <point x="403.6" y="666.4"/>
      <point x="485.4" y="705.6" type="curve" smooth="yes"/>
      <point x="939.8" y="923.0" type="line" smooth="yes"/>
      <point x="968.6" y="936.6"/>
      <point x="981.8" y="955.4"/>
      <point x="984.6" y="978.2" type="curve" smooth="yes"/>
      <point x="1001.2" y="1117.6" type="line"/>
    </contour>
    <contour>
      <point x="164.2" y="632.8" type="line"/>
      <point x="892.0" y="228.4" type="line"/>
      <point x="909.6" y="367.8" type="line"/>
      <point x="912.4" y="390.6"/>
      <point x="903.8" y="409.4"/>
      <point x="878.8" y="423.0" type="curve"/>
      <point x="477.4" y="640.4" type="line"/>
      <point x="405.2" y="680.0"/>
      <point x="302.0" y="692.4"/>
      <point x="171.2" y="693.2" type="curve"/>
    </contour>
  </outline>
</glyph>
<glyph name="equal" format="2">
  <advance width="1160.0"/>
  <unicode hex="003D"/>
  <guideline x="580.0" y="0.0" angle="82.9991"/>
  <outline>
    <contour>
      <point x="124.0" y="433.6" type="line"/>
      <point x="987.6" y="433.6" type="line"/>
      <point x="1005.2" y="576.0" type="line"/>
      <point x="141.6" y="576.0" type="line"/>
    </contour>
    <contour>
      <point x="166.0" y="770.8" type="line"/>
      <point x="1029.6" y="770.8" type="line"/>
      <point x="1046.0" y="913.2" type="line"/>
      <point x="183.6" y="913.2" type="line"/>
    </contour>
  </outline>
</glyph>
<glyph name="greater" format="2">
  <advance width="1160.0"/>
  <unicode hex="003E"/>
  <guideline x="533.0" y="0.0" angle="82.9991"/>
  <outline>
    <contour>
      <point x="1001.0" y="632.8" type="line"/>
      <point x="1008.0" y="693.2" type="line"/>
      <point x="877.2" y="692.4"/>
      <point x="770.8" y="679.6"/>
      <point x="688.6" y="640.4" type="curve" smooth="yes"/>
      <point x="234.8" y="423.0" type="line" smooth="yes"/>
      <point x="205.4" y="409.4"/>
      <point x="193.2" y="390.6"/>
      <point x="190.4" y="367.8" type="curve"/>
      <point x="172.8" y="228.4" type="line"/>
    </contour>
    <contour>
      <point x="1010.8" y="713.2" type="line"/>
      <point x="282.0" y="1117.6" type="line"/>
      <point x="265.4" y="978.2" type="line" smooth="yes"/>
      <point x="262.6" y="955.4"/>
      <point x="270.2" y="936.6"/>
      <point x="295.8" y="923.0" type="curve" smooth="yes"/>
      <point x="696.6" y="705.6" type="line"/>
      <point x="769.2" y="666.0"/>
      <point x="873.0" y="653.6"/>
      <point x="1003.4" y="652.8" type="curve"/>
    </contour>
  </outline>
</glyph>
<glyph name="question" format="2">
  <advance width="843"/>
  <unicode hex="003F"/>
  <outline>
    <contour>
      <point x="155.6" y="1306" type="curve"/>
      <point x="196" y="1228" type="line" smooth="yes"/>
      <point x="205.6" y="1210.2"/>
      <point x="214" y="1203.6"/>
      <point x="232.4" y="1203.6" type="curve" smooth="yes"/>
      <point x="268.8" y="1203.6"/>
      <point x="330.8" y="1296.4"/>
      <point x="478" y="1296.4" type="curve" smooth="yes" name="n07"/>
      <point x="582" y="1296.4"/>
      <point x="646" y="1234.8"/>
      <point x="646" y="1135.6" type="curve" smooth="yes"/>
      <point x="646" y="900"/>
      <point x="316" y="860.4"/>
      <point x="308" y="666.8" type="curve"/>
      <point x="299.2" y="501.2" type="line"/>
      <point x="429.2" y="501.2" type="line"/>
      <point x="466.8" y="654" type="line"/>
      <point x="512.2" y="827.8"/>
      <point x="821.2" y="835.2"/>
      <point x="821.2" y="1171.2" type="curve" smooth="yes"/>
      <point x="821.2" y="1329.6"/>
      <point x="705.2" y="1450.8"/>
      <point x="512.4" y="1450.8" type="curve" smooth="yes" name="n22"/>
      <point x="360.8" y="1450.8"/>
      <point x="245.2" y="1383.6"/>
    </contour>
    <contour>
      <point x="209.6" y="116.4" type="curve" smooth="yes"/>
      <point x="209.6" y="42"/>
      <point x="266.4" y="-14.8"/>
      <point x="340.8" y="-14.8" type="curve" smooth="yes" name="n28"/>
      <point x="414" y="-14.8"/>
      <point x="472.8" y="42"/>
      <point x="472.8" y="116.4" type="curve" smooth="yes"/>
      <point x="472.8" y="189.6"/>
      <point x="414" y="248.4"/>
      <point x="340.8" y="248.4" type="curve" smooth="yes" name="n34"/>
      <point x="266.4" y="248.4"/>
      <point x="209.6" y="189.6"/>
    </contour>
  </outline>
  <guideline angle="82.9991" x="320" y="0"/>
</glyph>
<glyph name="at" format="2">
  <advance width="1538.4"/>
  <unicode hex="0040"/>
  <guideline y="718.6"/>
  <guideline x="747.8"/>
  <guideline x="100.0" y="0.0" angle="82.9991"/>
  <outline>
    <contour>
      <point x="1036.8" y="185.2" type="curve" smooth="yes"/>
      <point x="1272.4" y="185.2"/>
      <point x="1471.6" y="438.0"/>
      <point x="1471.6" y="775.6" type="curve" smooth="yes"/>
      <point x="1471.6" y="1143.2"/>
      <point x="1212.8" y="1362.4"/>
      <point x="898.8" y="1362.4" type="curve" smooth="yes"/>
      <point x="461.2" y="1362.4"/>
      <point x="85.2" y="958.8"/>
      <point x="85.2" y="453.6" type="curve" smooth="yes"/>
      <point x="85.2" y="25.2"/>
      <point x="350.8" y="-239.6"/>
      <point x="742.8" y="-239.6" type="curve" smooth="yes"/>
      <point x="956.4" y="-239.6"/>
      <point x="1131.2" y="-179.2"/>
      <point x="1272.4" y="-85.6" type="curve"/>
      <point x="1258.4" y="-30.4" type="line"/>
      <point x="1250.4" y="-4.0"/>
      <point x="1228.8" y="18.0"/>
      <point x="1181.2" y="-8.400000000000006" type="curve"/>
      <point x="1088.8" y="-66.4"/>
      <point x="944.4" y="-114.4"/>
      <point x="756.8" y="-114.4" type="curve" smooth="yes"/>
      <point x="444.0" y="-114.4"/>
      <point x="223.6" y="88.39999999999999"/>
      <point x="223.6" y="461.2" type="curve" smooth="yes"/>
      <point x="223.6" y="911.2"/>
      <point x="525.2" y="1239.2"/>
      <point x="883.6" y="1239.2" type="curve" smooth="yes"/>
      <point x="1152.4" y="1239.2"/>
      <point x="1336.8" y="1079.2"/>
      <point x="1336.8" y="775.6" type="curve" smooth="yes"/>
      <point x="1336.8" y="501.2"/>
      <point x="1210.8" y="304.8"/>
      <point x="1078.0" y="304.8" type="curve" smooth="yes"/>
      <point x="1005.2" y="304.8"/>
      <point x="957.2" y="346.0"/>
      <point x="1025.6" y="544.0" type="curve"/>
      <point x="1158.0" y="906.4" type="line"/>
      <point x="1102.8" y="933.6"/>
      <point x="1044.4" y="947.2"/>
      <point x="957.2" y="947.2" type="curve" smooth="yes"/>
      <point x="616.4" y="947.2"/>
      <point x="420.0" y="657.2"/>
      <point x="420.0" y="415.2" type="curve" smooth="yes"/>
      <point x="420.0" y="286.8"/>
      <point x="480.8" y="187.6"/>
      <point x="610.8" y="187.6" type="curve" smooth="yes"/>
      <point x="743.6" y="187.6"/>
      <point x="862.0" y="268.0"/>
      <point x="973.6" y="477.2" type="curve"/>
      <point x="884.8" y="429.2" type="line"/>
      <point x="855.2" y="262.8"/>
      <point x="921.2" y="185.2"/>
    </contour>
    <contour>
      <point x="1002.0" y="866.8" type="line"/>
      <point x="878.4" y="526.4" type="line" smooth="yes"/>
      <point x="819.2" y="356.8"/>
      <point x="734.4" y="312.0"/>
      <point x="664.4" y="312.0" type="curve" smooth="yes"/>
      <point x="600.4" y="312.0"/>
      <point x="568.8" y="362.0"/>
      <point x="568.8" y="436.0" type="curve" smooth="yes"/>
      <point x="568.8" y="627.2"/>
      <point x="726.8" y="827.6"/>
      <point x="913.2" y="827.6" type="curve" smooth="yes"/>
      <point x="965.2" y="827.6"/>
      <point x="1007.2" y="817.2"/>
      <point x="1045.6" y="797.2" type="curve"/>
    </contour>
  </outline>
</glyph>
<glyph name="A" format="2">
  <advance width="1272"/>
  <unicode hex="0041"/>
  <anchor x="751.4" y="1513.4" name="Top"/>
  <anchor x="555.8" y="-70" name="bottom"/>
  <anchor x="249.8" y="1120" name="onRight"/>
  <anchor x="751.4" y="1513.4" name="top"/>
  <outline>
    <contour>
      <point x="-68.6" y="0" type="line" name="n00"/>
      <point x="91.4" y="0" type="line" smooth="yes"/>
      <point x="125" y="0"/>
      <point x="153.8" y="23.2"/>
      <point x="166.2" y="48.4" type="curve" smooth="yes"/>
      <point x="653.8" y="1101.6" type="line"/>
      <point x="687.4" y="1179.6"/>
      <point x="744.2" y="1310.4"/>
      <point x="771" y="1436" type="curve" name="n08"/>
      <point x="633" y="1436" type="line"/>
    </contour>
    <contour>
      <point x="211.4" y="386.8" type="line" name="n10"/>
      <point x="1013.4" y="386.8" type="line"/>
      <point x="1031.8" y="534" type="line"/>
      <point x="230.2" y="534" type="line" name="n13"/>
    </contour>
    <contour>
      <point x="841.4" y="1436" type="line"/>
      <point x="699.8" y="1436" type="line"/>
      <point x="699.4" y="1310.4"/>
      <point x="725.8" y="1179.6"/>
      <point x="740.2" y="1102.8" type="curve"/>
      <point x="968.6" y="48.4" type="line"/>
      <point x="976.6" y="19.6"/>
      <point x="996.2" y="0"/>
      <point x="1032.2" y="0" type="curve" smooth="yes"/>
      <point x="1190.6" y="0" type="line"/>
    </contour>
  </outline>
  <guideline angle="82.9991" x="566" y="0"/>
</glyph>
<glyph name="B" format="2">
  <advance width="1210"/>
  <unicode hex="0042"/>
  <anchor x="246.2" y="404.2" name="Bar"/>
  <anchor x="663.4" y="1513.4" name="Top"/>
  <anchor x="514.8" y="-70" name="bottom"/>
  <anchor x="663.4" y="1513.4" name="top"/>
  <outline>
    <contour>
      <point x="573.4" y="0" type="line" smooth="yes" name="n00"/>
      <point x="900.6" y="0"/>
      <point x="1098.2" y="189.6"/>
      <point x="1098.2" y="454.4" type="curve" smooth="yes"/>
      <point x="1098.2" y="649.2"/>
      <point x="948.6" y="756.8"/>
      <point x="654.2" y="756.8" type="curve"/>
      <point x="605" y="704.8" type="line"/>
      <point x="966.2" y="704.8"/>
      <point x="1136.6" y="888"/>
      <point x="1136.6" y="1113.6" type="curve" smooth="yes"/>
      <point x="1136.6" y="1311.2"/>
      <point x="1007" y="1436"/>
      <point x="703.8" y="1436" type="curve" smooth="yes" name="n13"/>
      <point x="269.4" y="1436" type="line"/>
      <point x="92.6" y="0" type="line"/>
      <point x="297.8" y="0" type="line"/>
      <point x="454.6" y="1275.6" type="line"/>
      <point x="685" y="1275.6" type="line" smooth="yes" name="n18"/>
      <point x="850.2" y="1275.6"/>
      <point x="928.6" y="1211.2"/>
      <point x="928.6" y="1078.4" type="curve" smooth="yes"/>
      <point x="928.6" y="905.2"/>
      <point x="822.6" y="794.4"/>
      <point x="616.6" y="794.4" type="curve" smooth="yes"/>
      <point x="375.4" y="794.4" type="line" name="n25"/>
      <point x="357.8" y="650.8" type="line" name="n26"/>
      <point x="649.4" y="650.8" type="line" smooth="yes"/>
      <point x="816.6" y="650.8"/>
      <point x="895.4" y="572.8"/>
      <point x="895.4" y="451.2" type="curve" smooth="yes"/>
      <point x="895.4" y="274.8"/>
      <point x="795.4" y="161.6"/>
      <point x="589.8" y="161.6" type="curve" smooth="yes" name="n33"/>
      <point x="289.8" y="161.6" type="line"/>
      <point x="174.6" y="0" type="line"/>
    </contour>
  </outline>
  <guideline angle="82.9991" x="492" y="0"/>
</glyph>
<glyph name="C" format="2">
  <advance width="1247"/>
  <unicode hex="0043"/>
  <anchor x="678.8" y="716.8" name="Slash"/>
  <anchor x="865.4" y="1513.4" name="Top"/>
  <anchor x="610" y="-70" name="bottom"/>
  <anchor x="865.4" y="1513.4" name="top"/>
  <outline>
    <contour>
      <point x="679" y="160" type="curve" smooth="yes" name="n00"/>
      <point x="460.6" y="160"/>
      <point x="303.4" y="335.6"/>
      <point x="303.4" y="624.8" type="curve" smooth="yes"/>
      <point x="303.4" y="1022.8"/>
      <point x="537" y="1274.8"/>
      <point x="839" y="1274.8" type="curve" smooth="yes" name="n06"/>
      <point x="1065" y="1274.8"/>
      <point x="1106.2" y="1150.8"/>
      <point x="1155.8" y="1150.8" type="curve" smooth="yes"/>
      <point x="1177.8" y="1150.8"/>
      <point x="1191.4" y="1161.6"/>
      <point x="1202.6" y="1175.2" type="curve" smooth="yes"/>
      <point x="1272.6" y="1260.4" type="line"/>
      <point x="1178.6" y="1377.6"/>
      <point x="1054.6" y="1452"/>
      <point x="849.4" y="1452" type="curve" smooth="yes" name="n16"/>
      <point x="426.6" y="1452"/>
      <point x="93.4" y="1106"/>
      <point x="93.4" y="608" type="curve" smooth="yes"/>
      <point x="93.4" y="244"/>
      <point x="299" y="-16"/>
      <point x="644.6" y="-16" type="curve" smooth="yes" name="n22"/>
      <point x="861.4" y="-16"/>
      <point x="1025.4" y="64"/>
      <point x="1149.8" y="200.8" type="curve"/>
      <point x="1077.8" y="290.2" type="line" smooth="yes"/>
      <point x="1073.2" y="296"/>
      <point x="1064" y="302.4"/>
      <point x="1051" y="302.4" type="curve" smooth="yes"/>
      <point x="1003.6" y="302.4"/>
      <point x="939.4" y="160"/>
    </contour>
  </outline>
  <guideline angle="82.9991" x="647" y="0"/>
</glyph>
<glyph name="D" format="2">
  <advance width="1415"/>
  <unicode hex="0044"/>
  <anchor x="744" y="1513.4" name="Top"/>
  <anchor x="550.8" y="-89.8" name="bottom"/>
  <anchor x="744" y="1513.4" name="top"/>
  <outline>
    <contour>
      <point x="1346.6" y="818" type="curve" smooth="yes"/>
      <point x="1346.6" y="1181.6"/>
      <point x="1124.2" y="1436"/>
      <point x="767.8" y="1436" type="curve" smooth="yes" name="n03"/>
      <point x="269.4" y="1436" type="line"/>
      <point x="92.6" y="0" type="line"/>
      <point x="591" y="0" type="line" smooth="yes" name="n06"/>
      <point x="1026.6" y="0"/>
      <point x="1346.6" y="331.6"/>
    </contour>
    <contour>
      <point x="1135.8" y="813.2" type="curve" smooth="yes"/>
      <point x="1135.8" y="409.6"/>
      <point x="922.6" y="165.2"/>
      <point x="611" y="165.2" type="curve" smooth="yes" name="n12"/>
      <point x="319" y="165.2" type="line"/>
      <point x="455.8" y="1270.8" type="line"/>
      <point x="747.8" y="1270.8" type="line" smooth="yes" name="n15"/>
      <point x="991" y="1270.8"/>
      <point x="1135.8" y="1094.8"/>
    </contour>
  </outline>
  <guideline angle="82.9991" x="705" y="0"/>
</glyph>
<glyph name="F" format="2">
  <advance width="1061"/>
  <unicode hex="0046"/>
  <anchor x="694.8" y="1513.4" name="Top"/>
  <anchor x="365.2" y="-70" name="bottom"/>
  <anchor x="694.8" y="1513.4" name="top"/>
  <outline>
    <contour>
      <point x="475.8" y="1436" type="line"/>
      <point x="269.4" y="1436" type="line"/>
      <point x="92.6" y="0" type="line" name="n02"/>
      <point x="299" y="0" type="line"/>
    </contour>
    <contour>
      <point x="373.4" y="777.6" type="line" name="n04"/>
      <point x="353.4" y="611.6" type="line" name="n05"/>
      <point x="897.8" y="611.6" type="line"/>
      <point x="919.8" y="777.6" type="line"/>
    </contour>
    <contour>
      <point x="453.4" y="1436" type="line" name="n08"/>
      <point x="433.4" y="1270" type="line" name="n09"/>
      <point x="1071" y="1270" type="line"/>
      <point x="1091.8" y="1436" type="line"/>
    </contour>
  </outline>
  <guideline angle="82.9991" x="531" y="0"/>
</glyph>
<glyph name="G" format="2">
  <advance width="1359"/>
  <unicode hex="0047"/>
  <anchor x="882.4" y="1513.4" name="Top"/>
  <anchor x="695.2" y="-70" name="bottom"/>
  <anchor x="882.4" y="1513.4" name="top"/>
  <outline>
    <contour>
      <point x="1082.2" y="263.6" type="line"/>
      <point x="967.4" y="193.6"/>
      <point x="868.2" y="149.2"/>
      <point x="705" y="149.2" type="curve" smooth="yes" name="n03"/>
      <point x="463" y="149.2"/>
      <point x="303.8" y="329.6"/>
      <point x="303.8" y="624" type="curve" smooth="yes"/>
      <point x="303.8" y="1018.4"/>
      <point x="525.8" y="1274.8"/>
      <point x="844.2" y="1274.8" type="curve" smooth="yes" name="n09"/>
      <point x="1033.4" y="1274.8"/>
      <point x="1104.6" y="1199.6"/>
      <point x="1168.2" y="1160" type="curve" smooth="yes"/>
      <point x="1200.6" y="1139.6"/>
      <point x="1232.6" y="1147.6"/>
      <point x="1253.8" y="1178" type="curve"/>
      <point x="1319.8" y="1263.2" type="line"/>
      <point x="1221.4" y="1370.8"/>
      <point x="1085" y="1452"/>
      <point x="859.4" y="1452" type="curve" smooth="yes" name="n19"/>
      <point x="419.8" y="1452"/>
      <point x="93.8" y="1108.8"/>
      <point x="93.8" y="616.8" type="curve" smooth="yes"/>
      <point x="93.8" y="247.6"/>
      <point x="321.8" y="-16"/>
      <point x="670.6" y="-16" type="curve" smooth="yes" name="n25"/>
      <point x="888.6" y="-16"/>
      <point x="1047.4" y="35.6"/>
      <point x="1192.6" y="139.2" type="curve"/>
      <point x="1261.4" y="694.4" type="line"/>
      <point x="841" y="694.4" type="line" name="n30"/>
      <point x="827.8" y="577.6" type="line"/>
      <point x="824.6" y="555.6"/>
      <point x="840.2" y="538.8"/>
      <point x="866.6" y="538.8" type="curve" smooth="yes" name="n34"/>
      <point x="1056.2" y="538.8" type="line"/>
      <point x="1005" y="117.6" type="line"/>
    </contour>
  </outline>
  <guideline angle="82.9991" x="700" y="0"/>
</glyph>
<glyph name="H" format="2">
  <advance width="1424"/>
  <unicode hex="0048"/>
  <anchor x="807.2" y="1513.4" name="Top"/>
  <anchor x="631.4" y="-70" name="bottom"/>
  <anchor x="-19.6" y="1120" name="onRight"/>
  <anchor x="807.2" y="1513.4" name="top"/>
  <outline>
    <contour>
      <point x="475.8" y="1436" type="line" name="n00"/>
      <point x="269.4" y="1436" type="line"/>
      <point x="92.6" y="0" type="line" name="n02"/>
      <point x="299" y="0" type="line"/>
    </contour>
    <contour>
      <point x="376.2" y="797.6" type="line" name="n04"/>
      <point x="357.8" y="649.6" type="line" name="n05"/>
      <point x="1143.4" y="649.6" type="line"/>
      <point x="1163" y="797.6" type="line"/>
    </contour>
    <contour>
      <point x="1358.6" y="1436" type="line"/>
      <point x="1152.2" y="1436" type="line"/>
      <point x="975.4" y="0" type="line"/>
      <point x="1181.8" y="0" type="line"/>
    </contour>
  </outline>
  <guideline angle="82.9991" x="696" y="0"/>
</glyph>
<glyph name="I" format="2">
  <advance width="540.6"/>
  <unicode hex="0049"/>
  <guideline x="284.8" y="0.0" angle="82.9991"/>
  <anchor x="380.2" y="1513.4" name="Top"/>
  <anchor x="-34.6" y="1120.0" name="onRight"/>
  <anchor x="380.2" y="1513.4" name="top"/>
  <anchor x="190.6" y="-70.0" name="bottom"/>
  <outline>
    <contour>
      <point x="474.6" y="1436.0" type="line"/>
      <point x="268.2" y="1436.0" type="line"/>
      <point x="92.6" y="0.0" type="line"/>
      <point x="299.0" y="0.0" type="line"/>
    </contour>
  </outline>
</glyph>
<glyph name="J" format="2">
  <advance width="805.4"/>
  <unicode hex="004A"/>
  <guideline x="406.4" y="0.0" angle="82.9991"/>
  <anchor x="658.2" y="1513.4" name="Top"/>
  <anchor x="548.4" y="716.8" name="Bar"/>
  <anchor x="658.2" y="1513.4" name="top"/>
  <anchor x="219.0" y="-70.0" name="bottom"/>
  <outline>
    <contour>
      <point x="752.2" y="1436.0" type="line"/>
      <point x="547.0" y="1436.0" type="line"/>
      <point x="429.8" y="476.8" type="line" smooth="yes"/>
      <point x="401.4" y="240.4"/>
      <point x="295.0" y="155.2"/>
      <point x="160.6" y="155.2" type="curve" smooth="yes"/>
      <point x="88.6" y="155.2"/>
      <point x="51.8" y="171.6"/>
      <point x="23.0" y="171.6" type="curve" smooth="yes"/>
      <point x="-6.199999999999999" y="171.6"/>
      <point x="-17.8" y="153.6"/>
      <point x="-21.0" y="131.6" type="curve"/>
      <point x="-36.2" y="11.6" type="line"/>
      <point x="27.799999999999997" y="-7.2"/>
      <point x="89.0" y="-16.0"/>
      <point x="159.8" y="-16.0" type="curve"/>
      <point x="429.8" y="-16.8"/>
      <point x="595.8" y="164.0"/>
      <point x="635.0" y="481.6" type="curve" smooth="yes"/>
    </contour>
  </outline>
</glyph>
<glyph name="L" format="2">
  <advance width="954.6"/>
  <unicode hex="004C"/>
  <guideline x="474.0" y="0.0" angle="82.9991"/>
  <anchor x="389.6" y="1513.4" name="Top"/>
  <anchor x="441.8" y="-70.0" name="bottom"/>
  <anchor x="281.6" y="716.8" name="Bar"/>
  <anchor x="389.6" y="1513.4" name="top"/>
  <outline>
    <contour>
      <point x="474.6" y="1436.0" type="line"/>
      <point x="269.4" y="1436.0" type="line"/>
      <point x="92.6" y="0.0" type="line"/>
      <point x="297.8" y="0.0" type="line"/>
    </contour>
    <contour>
      <point x="299.79999999999995" y="172.0" type="line"/>
      <point x="277.8" y="0.0" type="line"/>
      <point x="854.2" y="0.0" type="line"/>
      <point x="875.0" y="172.0" type="line"/>
    </contour>
  </outline>
</glyph>
<glyph name="M" format="2">
  <advance width="1734"/>
  <unicode hex="004D"/>
  <anchor x="944.6" y="1513.4" name="Top"/>
  <anchor x="787.4" y="-70" name="bottom"/>
  <anchor x="944.6" y="1513.4" name="top"/>
  <outline>
    <contour>
      <point x="788.2" y="284.8" type="curve"/>
      <point x="874.6" y="284.8" type="line"/>
      <point x="861.8" y="360.4"/>
      <point x="848.6" y="445.6"/>
      <point x="823.4" y="519.2" type="curve"/>
      <point x="488.2" y="1401.6" type="line"/>
      <point x="468.6" y="1430.4"/>
      <point x="457.4" y="1436" name="n07"/>
      <point x="421.4" y="1436" type="curve" smooth="yes"/>
      <point x="269.4" y="1436" type="line"/>
      <point x="92.6" y="0" type="line" name="n10"/>
      <point x="273.4" y="0" type="line"/>
      <point x="399" y="1033.2" type="line" smooth="yes"/>
      <point x="405.8" y="1092.4"/>
      <point x="405.8" y="1181.2"/>
      <point x="405.8" y="1240.4" type="curve"/>
      <point x="367" y="1231.2" type="line"/>
      <point x="738.2" y="248" type="line"/>
      <point x="748.6" y="218"/>
      <point x="774.2" y="202"/>
      <point x="806.6" y="202" type="curve" smooth="yes"/>
      <point x="835.4" y="202" type="line" smooth="yes"/>
      <point x="867.8" y="202"/>
      <point x="895.8" y="218"/>
      <point x="914.2" y="248" type="curve" smooth="yes"/>
      <point x="1519.8" y="1231.2" type="line"/>
      <point x="1483.4" y="1240.4" type="line"/>
      <point x="1468.6" y="1181.2"/>
      <point x="1446.6" y="1090"/>
      <point x="1438.6" y="1029.6" type="curve" smooth="yes"/>
      <point x="1311.8" y="0" type="line"/>
      <point x="1491.4" y="0" type="line"/>
      <point x="1668.2" y="1436" type="line"/>
      <point x="1515" y="1436" type="line" smooth="yes"/>
      <point x="1479" y="1436"/>
      <point x="1466.6" y="1430.4"/>
      <point x="1441" y="1401.6" type="curve"/>
      <point x="892.6" y="519.2" type="line"/>
      <point x="848" y="445"/>
      <point x="817.8" y="360.4"/>
    </contour>
  </outline>
  <guideline angle="82.9991" x="827" y="0"/>
</glyph>
<glyph name="N" format="2">
  <advance width="1424"/>
  <unicode hex="004E"/>
  <anchor x="831.6" y="1512.6" name="Top"/>
  <anchor x="632.6" y="-70" name="bottom"/>
  <anchor x="831.6" y="1512.6" name="top"/>
  <outline>
    <contour>
      <point x="1072.6" y="285.2" type="line"/>
      <point x="440.6" y="1401.6" type="line" smooth="yes"/>
      <point x="423.4" y="1431.6"/>
      <point x="411.8" y="1436" name="n03"/>
      <point x="375.8" y="1436" type="curve" smooth="yes"/>
      <point x="269.4" y="1436" type="line"/>
      <point x="92.6" y="0" type="line" name="n06"/>
      <point x="273.4" y="0" type="line"/>
      <point x="399" y="1030.8" type="line" smooth="yes"/>
      <point x="405.8" y="1090"/>
      <point x="409.4" y="1172.8"/>
      <point x="410.6" y="1240.4" type="curve"/>
      <point x="380.2" y="1150.8" type="line"/>
      <point x="1009" y="37.6" type="line"/>
      <point x="1027.4" y="11.2"/>
      <point x="1045.8" y="0"/>
      <point x="1078.2" y="0" type="curve" smooth="yes"/>
      <point x="1181.8" y="0" type="line"/>
      <point x="1358.6" y="1436" type="line"/>
      <point x="1177.8" y="1436" type="line"/>
      <point x="1053.4" y="422.8" type="line" smooth="yes"/>
      <point x="1045.4" y="358.4"/>
      <point x="1040.2" y="265.6"/>
      <point x="1041.4" y="186.8" type="curve"/>
    </contour>
  </outline>
  <guideline angle="82.9991" x="695" y="0"/>
</glyph>
<glyph name="P" format="2">
  <advance width="1133.4"/>
  <unicode hex="0050"/>
  <guideline x="567.2" y="0.0" angle="82.9991"/>
  <anchor x="647.4" y="1513.4" name="Top"/>
  <anchor x="298.6" y="976.6" name="Bar"/>
  <anchor x="727.4" y="652.2" name="tick"/>
  <anchor x="647.4" y="1513.4" name="top"/>
  <anchor x="189.4" y="-70.0" name="bottom"/>
  <outline>
    <contour>
      <point x="276.6" y="531.6" type="line"/>
      <point x="563.0" y="531.6" type="line" smooth="yes"/>
      <point x="927.0" y="531.6"/>
      <point x="1125.0" y="749.6"/>
      <point x="1125.0" y="1052.0" type="curve" smooth="yes"/>
      <point x="1125.0" y="1281.2"/>
      <point x="984.2" y="1436.0"/>
      <point x="674.2" y="1436.0" type="curve" smooth="yes"/>
      <point x="268.2" y="1436.0" type="line"/>
      <point x="92.6" y="0.0" type="line"/>
      <point x="296.6" y="0.0" type="line"/>
      <point x="473.4" y="1436.0" type="line"/>
      <point x="323.0" y="1275.6" type="line"/>
      <point x="654.2" y="1275.6" type="line" smooth="yes"/>
      <point x="833.0" y="1275.6"/>
      <point x="918.6" y="1182.0"/>
      <point x="918.6" y="1033.6" type="curve" smooth="yes"/>
      <point x="918.6" y="835.6"/>
      <point x="803.4" y="693.2"/>
      <point x="583.0" y="693.2" type="curve" smooth="yes"/>
      <point x="313.0" y="693.2" type="line"/>
    </contour>
  </outline>
</glyph>
<glyph name="Q" format="2">
  <advance width="1495.2"/>
  <unicode hex="0051"/>
  <guideline x="732.0" y="0.0" angle="82.9991"/>
  <anchor x="860.0" y="1513.4" name="Top"/>
  <anchor x="860.0" y="1513.4" name="top"/>
  <anchor x="665.6" y="-70.0" name="bottom"/>
  <anchor x="17.4" y="1120.0" name="onRight"/>
  <anchor x="764.4" y="716.8" name="Slash"/>
  <outline>
    <contour>
      <point x="1039.4" y="143.2" type="line"/>
      <point x="815.0" y="122.4" type="line"/>
      <point x="1079.0" y="-246.0" type="line"/>
      <point x="1107.0" y="-281.2"/>
      <point x="1144.2" y="-293.6"/>
      <point x="1193.8" y="-293.6" type="curve" smooth="yes"/>
      <point x="1360.2" y="-293.6" type="line"/>
    </contour>
    <component base="O"/>
  </outline>
</glyph>
<glyph name="R" format="2">
  <advance width="1175"/>
  <unicode hex="0052"/>
  <anchor x="653.8" y="1513.4" name="Top"/>
  <anchor x="556.6" y="-70" name="bottom"/>
  <anchor x="653.8" y="1513.4" name="top"/>
  <outline>
    <contour>
      <point x="494.2" y="593.2" type="line" smooth="yes"/>
      <point x="543" y="593.2"/>
      <point x="561.4" y="580.4"/>
      <point x="578.2" y="547.6" type="curve" smooth="yes"/>
      <point x="833.8" y="43.2" type="line"/>
      <point x="846.6" y="14.4"/>
      <point x="871.8" y="0" name="n06"/>
      <point x="908.2" y="0" type="curve" smooth="yes"/>
      <point x="1091" y="0" type="line"/>
      <point x="795" y="563.6" type="line" smooth="yes"/>
      <point x="752.6" y="645.6"/>
      <point x="672.6" y="667.6"/>
      <point x="573.4" y="667.6" type="curve"/>
      <point x="516.2" y="608.8" type="line"/>
      <point x="564.2" y="608.8" type="line" smooth="yes" name="n14"/>
      <point x="891" y="608.8"/>
      <point x="1103.4" y="807.2"/>
      <point x="1103.4" y="1090" type="curve" smooth="yes"/>
      <point x="1103.4" y="1299.2"/>
      <point x="965.8" y="1436"/>
      <point x="653.4" y="1436" type="curve" smooth="yes" name="n20"/>
      <point x="268.2" y="1436" type="line"/>
      <point x="92.6" y="0" type="line"/>
      <point x="296.6" y="0" type="line"/>
      <point x="470.2" y="1407.2" type="line"/>
      <point x="289" y="1275.6" type="line"/>
      <point x="634.6" y="1275.6" type="line" smooth="yes" name="n26"/>
      <point x="810.6" y="1275.6"/>
      <point x="899.4" y="1197.6"/>
      <point x="899.4" y="1058" type="curve" smooth="yes"/>
      <point x="899.4" y="875.6"/>
      <point x="785" y="741.6"/>
      <point x="562.6" y="741.6" type="curve" smooth="yes" name="n32"/>
      <point x="319.4" y="741.6" type="line"/>
      <point x="274.6" y="593.2" type="line"/>
    </contour>
  </outline>
  <guideline angle="82.9991" x="570" y="0"/>
</glyph>
<glyph name="S" format="2">
  <advance width="1020"/>
  <unicode hex="0053"/>
  <anchor x="668.6" y="1513.4" name="Top"/>
  <anchor x="409.8" y="-70" name="bottom"/>
  <anchor x="668.6" y="1513.4" name="top"/>
  <outline>
    <contour>
      <point x="991.2" y="1291.2" type="line"/>
      <point x="915.6" y="1388.4"/>
      <point x="790.4" y="1450.8"/>
      <point x="641.2" y="1450.8" type="curve" smooth="yes" name="n03"/>
      <point x="348" y="1450.8"/>
      <point x="169.2" y="1234"/>
      <point x="169.2" y="996" type="curve" smooth="yes"/>
      <point x="169.2" y="571.6"/>
      <point x="720" y="724.4"/>
      <point x="720" y="437.2" type="curve" smooth="yes"/>
      <point x="720" y="268.4"/>
      <point x="611.6" y="154"/>
      <point x="435.6" y="154" type="curve" smooth="yes" name="n12"/>
      <point x="240.4" y="154"/>
      <point x="186" y="296"/>
      <point x="131.6" y="296" type="curve" smooth="yes"/>
      <point x="112.4" y="296"/>
      <point x="93.6" y="284.4"/>
      <point x="81.2" y="269.6" type="curve"/>
      <point x="9.2" y="172" type="line"/>
      <point x="96" y="58"/>
      <point x="240" y="-16"/>
      <point x="409.6" y="-16" type="curve" smooth="yes" name="n22"/>
      <point x="722.8" y="-16"/>
      <point x="918.4" y="213.6"/>
      <point x="918.4" y="487.6" type="curve" smooth="yes"/>
      <point x="918.4" y="887.2"/>
      <point x="364" y="770"/>
      <point x="364" y="1040" type="curve" smooth="yes"/>
      <point x="364" y="1174.8"/>
      <point x="457.2" y="1282"/>
      <point x="621.6" y="1282" type="curve" smooth="yes" name="n31"/>
      <point x="784.4" y="1282"/>
      <point x="835.6" y="1173.6"/>
      <point x="881.2" y="1173.6" type="curve" smooth="yes"/>
      <point x="902" y="1173.6"/>
      <point x="915.6" y="1184"/>
      <point x="930.8" y="1204.8" type="curve" smooth="yes"/>
    </contour>
  </outline>
  <guideline angle="82.9991" x="475" y="0"/>
</glyph>
<glyph name="T" format="2">
  <advance width="1097"/>
  <unicode hex="0054"/>
  <anchor x="580.8" y="716.8" name="Slash"/>
  <anchor x="657" y="1513.4" name="Top"/>
  <anchor x="463.6" y="-70" name="bottom"/>
  <anchor x="657" y="1513.4" name="top"/>
  <outline>
    <contour>
      <point x="752.6" y="1436" type="line"/>
      <point x="547.4" y="1436" type="line"/>
      <point x="371.8" y="0" type="line" name="n02"/>
      <point x="575.8" y="0" type="line"/>
    </contour>
    <contour>
      <point x="129" y="1436" type="line" name="n04"/>
      <point x="109" y="1265.2" type="line" name="n05"/>
      <point x="1147.4" y="1265.2" type="line"/>
      <point x="1168.6" y="1436" type="line"/>
    </contour>
  </outline>
  <guideline angle="82.9991" x="534" y="0"/>
</glyph>
<glyph name="U" format="2">
  <advance width="1373.2"/>
  <unicode hex="0055"/>
  <guideline x="671.0" y="0.0" angle="82.9991"/>
  <anchor x="793.8" y="1513.4" name="Top"/>
  <anchor x="793.8" y="1513.4" name="top"/>
  <anchor x="607.4" y="-70.0" name="bottom"/>
  <outline>
    <contour>
      <point x="631.6" y="162.4" type="curve" smooth="yes"/>
      <point x="423.2" y="162.4"/>
      <point x="322.0" y="329.6"/>
      <point x="350.0" y="565.2" type="curve"/>
      <point x="456.79999999999995" y="1436.0" type="line"/>
      <point x="251.6" y="1436.0" type="line"/>
      <point x="146.0" y="564.4" type="line" smooth="yes"/>
      <point x="105.2" y="232.4"/>
      <point x="279.2" y="-16.8"/>
      <point x="609.6" y="-16.8" type="curve" smooth="yes"/>
      <point x="940.8" y="-16.8"/>
      <point x="1175.2" y="232.4"/>
      <point x="1216.8" y="564.4" type="curve"/>
      <point x="1323.6" y="1436.0" type="line"/>
      <point x="1118.4" y="1436.0" type="line"/>
      <point x="1011.6" y="564.4" type="line"/>
      <point x="982.8" y="328.8"/>
      <point x="839.2" y="162.4"/>
    </contour>
  </outline>
</glyph>
<glyph name="V" format="2">
  <advance width="1269"/>
  <unicode hex="0056"/>
  <anchor x="739.8" y="1513.4" name="Top"/>
  <anchor x="555.2" y="-70" name="bottom"/>
  <anchor x="739.8" y="1513.4" name="top"/>
  <outline>
    <contour>
      <point x="1365.4" y="1436" type="line" name="n00"/>
      <point x="1200.6" y="1436" type="line" smooth="yes"/>
      <point x="1165.8" y="1436"/>
      <point x="1135.8" y="1411.6"/>
      <point x="1125.4" y="1387.6" type="curve"/>
      <point x="655.8" y="394.4" type="line"/>
      <point x="601.8" y="287.6"/>
      <point x="553.4" y="125.6"/>
      <point x="531.4" y="0" type="curve" name="n08"/>
      <point x="652.6" y="0" type="line"/>
    </contour>
    <contour>
      <point x="467" y="0" type="line"/>
      <point x="591.8" y="0" type="line"/>
      <point x="610.2" y="125.6"/>
      <point x="588.6" y="287.6"/>
      <point x="561" y="394.4" type="curve"/>
      <point x="333" y="1387.6" type="line"/>
      <point x="328.2" y="1415.2"/>
      <point x="306.2" y="1436"/>
      <point x="270.2" y="1436" type="curve" smooth="yes"/>
      <point x="105.8" y="1436" type="line"/>
    </contour>
  </outline>
  <guideline angle="82.9991" x="566" y="0"/>
</glyph>
<glyph name="W" format="2">
  <advance width="1916.4"/>
  <unicode hex="0057"/>
  <guideline y="83.0"/>
  <guideline x="947.2" y="0.0" angle="82.9991"/>
  <anchor x="1058.2" y="1513.4" name="Top"/>
  <anchor x="1058.2" y="1513.4" name="top"/>
  <anchor x="875.6" y="-70.0" name="bottom"/>
  <outline>
    <contour>
      <point x="1032.6" y="1436.0" type="line" smooth="yes"/>
      <point x="997.8" y="1436.0"/>
      <point x="969.4" y="1412.0"/>
      <point x="958.6" y="1387.6" type="curve" smooth="yes"/>
      <point x="547.0" y="405.2" type="line" smooth="yes"/>
      <point x="501.0" y="296.0"/>
      <point x="455.8" y="125.6"/>
      <point x="435.8" y="0.0" type="curve"/>
      <point x="542.2" y="0.0" type="line"/>
      <point x="993.4" y="1077.6" type="line" smooth="yes"/>
      <point x="1025.8" y="1156.4"/>
      <point x="1069.0" y="1297.2"/>
      <point x="1080.6" y="1374.8" type="curve"/>
      <point x="1017.4" y="1374.8" type="line"/>
      <point x="1010.2" y="1297.2"/>
      <point x="1019.4" y="1156.4"/>
      <point x="1032.2" y="1077.6" type="curve"/>
      <point x="1218.2" y="0.0" type="line"/>
      <point x="1330.6" y="0.0" type="line"/>
      <point x="1340.2" y="125.6"/>
      <point x="1332.6" y="296.0"/>
      <point x="1314.2" y="405.2" type="curve"/>
      <point x="1143.8" y="1387.6" type="line"/>
      <point x="1136.2" y="1415.6"/>
      <point x="1115.8" y="1436.0"/>
      <point x="1079.8" y="1436.0" type="curve" smooth="yes"/>
    </contour>
    <contour>
      <point x="357.8" y="0.0" type="line"/>
      <point x="503.4" y="0.0" type="line"/>
      <point x="513.0" y="125.6"/>
      <point x="503.0" y="293.6"/>
      <point x="493.0" y="405.2" type="curve" smooth="yes"/>
      <point x="345.4" y="1387.6" type="line"/>
      <point x="341.79999999999995" y="1416.4"/>
      <point x="318.6" y="1436.0"/>
      <point x="282.6" y="1436.0" type="curve" smooth="yes"/>
      <point x="121.80000000000001" y="1436.0" type="line"/>
    </contour>
    <contour>
      <point x="1992.2" y="1436.0" type="line"/>
      <point x="1831.0" y="1436.0" type="line" smooth="yes"/>
      <point x="1796.2" y="1436.0"/>
      <point x="1763.0" y="1412.8"/>
      <point x="1755.0" y="1387.6" type="curve"/>
      <point x="1367.0" y="405.2" type="line" smooth="yes"/>
      <point x="1329.4" y="293.6"/>
      <point x="1281.8" y="125.6"/>
      <point x="1261.8" y="0.0" type="curve"/>
      <point x="1403.8" y="0.0" type="line"/>
    </contour>
  </outline>
</glyph>
<glyph name="Z" format="2">
  <advance width="1113.6"/>
  <unicode hex="005A"/>
  <guideline x="572.0" y="0.0" angle="82.9991"/>
  <anchor x="682.2" y="1513.4" name="Top"/>
  <anchor x="493.6" y="-70.0" name="bottom"/>
  <anchor x="682.2" y="1513.4" name="top"/>
  <outline>
    <contour>
      <point x="1125.0" y="1318.8" type="line" smooth="yes"/>
      <point x="1137.0" y="1336.4"/>
      <point x="1146.2" y="1351.6"/>
      <point x="1149.4" y="1370.8" type="curve"/>
      <point x="1158.6" y="1436.0" type="line"/>
      <point x="984.6" y="1436.0" type="line"/>
      <point x="3.0" y="115.2" type="line"/>
      <point x="-8.2" y="98.39999999999999"/>
      <point x="-17.4" y="83.2"/>
      <point x="-20.599999999999998" y="64.0" type="curve"/>
      <point x="-28.599999999999998" y="0.0" type="line"/>
      <point x="145.4" y="0.0" type="line"/>
    </contour>
    <contour>
      <point x="185.8" y="1436.0" type="line"/>
      <point x="165.0" y="1270.0" type="line"/>
      <point x="1029.0" y="1270.0" type="line"/>
      <point x="1158.6" y="1436.0" type="line"/>
    </contour>
    <contour>
      <point x="99.8" y="166.0" type="line"/>
      <point x="-28.599999999999998" y="0.0" type="line"/>
      <point x="968.2" y="0.0" type="line"/>
      <point x="989.0" y="166.0" type="line"/>
    </contour>
  </outline>
</glyph>
<glyph name="bracketleft" format="2">
  <advance width="584"/>
  <unicode hex="005B"/>
  <outline>
    <contour>
      <point x="639.6" y="1535.6" type="line"/>
      <point x="286.8" y="1535.6" type="line" name="n01"/>
      <point x="281.6" y="1412" type="line" name="n02"/>
      <point x="574" y="1412" type="line" smooth="yes"/>
      <point x="603.6" y="1412"/>
      <point x="628" y="1434"/>
      <point x="631.2" y="1461.2" type="curve" smooth="yes"/>
    </contour>
    <contour>
      <point x="416" y="-291.2" type="line"/>
      <point x="425.2" y="-218" type="line" smooth="yes"/>
      <point x="428.8" y="-189.6"/>
      <point x="410.4" y="-167.6"/>
      <point x="380.8" y="-167.6" type="curve" smooth="yes"/>
      <point x="94.4" y="-167.6" type="line" name="n12"/>
      <point x="63.2" y="-291.2" type="line"/>
    </contour>
    <contour>
      <point x="445.6" y="1535.6" type="line"/>
      <point x="286.8" y="1535.6" type="line"/>
      <point x="63.2" y="-291.2" type="line"/>
      <point x="220" y="-291.2" type="line" name="n17"/>
    </contour>
  </outline>
  <guideline angle="82.9991" x="276" y="0"/>
</glyph>
<glyph name="backslash" format="2">
  <advance width="835"/>
  <unicode hex="005C"/>
  <outline>
    <contour>
      <point x="516.8" y="-20.4" type="line" smooth="yes"/>
      <point x="528.4" y="-67.6"/>
      <point x="569.6" y="-92.4" name="n02"/>
      <point x="610" y="-92.4" type="curve" smooth="yes"/>
      <point x="688.8" y="-92.4" type="line"/>
      <point x="332.8" y="1383.6" type="line"/>
      <point x="321.2" y="1426.4"/>
      <point x="288.8" y="1452" name="n07"/>
      <point x="242.8" y="1452" type="curve" smooth="yes"/>
      <point x="163.2" y="1452" type="line"/>
    </contour>
  </outline>
  <guideline angle="82.9991" x="315" y="0"/>
</glyph>
<glyph name="bracketright" format="2">
  <advance width="585.2"/>
  <unicode hex="005D"/>
  <guideline x="276.0" y="0.0" angle="82.9991"/>
  <outline>
    <contour>
      <point x="161.8" y="1461.2" type="line"/>
      <point x="158.6" y="1434.0"/>
      <point x="177.0" y="1412.0"/>
      <point x="207.4" y="1412.0" type="curve" smooth="yes"/>
      <point x="499.8" y="1412.0" type="line"/>
      <point x="525.0" y="1535.6" type="line"/>
      <point x="171.4" y="1535.6" type="line"/>
    </contour>
    <contour>
      <point x="300.2" y="-291.2" type="line"/>
      <point x="305.4" y="-167.6" type="line"/>
      <point x="13.0" y="-167.6" type="line" smooth="yes"/>
      <point x="-17.4" y="-167.6"/>
      <point x="-40.599999999999994" y="-189.6"/>
      <point x="-43.8" y="-218.0" type="curve"/>
      <point x="-53.4" y="-291.2" type="line"/>
    </contour>
    <contour>
      <point x="142.60000000000002" y="-291.2" type="line"/>
      <point x="300.2" y="-291.2" type="line"/>
      <point x="525.0" y="1535.6" type="line"/>
      <point x="367.4" y="1535.6" type="line"/>
    </contour>
  </outline>
</glyph>
<glyph name="asciicircum" format="2">
  <advance width="1160.0"/>
  <unicode hex="005E"/>
  <guideline x="580.0" y="0.0" angle="82.9991"/>
  <outline>
    <contour>
      <point x="205.60000000000002" y="784.4" type="line"/>
      <point x="355.2" y="784.4" type="line" smooth="yes"/>
      <point x="383.2" y="784.4"/>
      <point x="400.0" y="800.8"/>
      <point x="410.0" y="820.0" type="curve"/>
      <point x="594.0" y="1156.8" type="line" smooth="yes"/>
      <point x="644.4" y="1249.6"/>
      <point x="655.6" y="1323.2"/>
      <point x="657.6" y="1436.0" type="curve"/>
      <point x="567.6" y="1436.0" type="line"/>
    </contour>
    <contour>
      <point x="693.6" y="1436.0" type="line"/>
      <point x="608.4" y="1436.0" type="line"/>
      <point x="609.2" y="1323.2"/>
      <point x="621.6" y="1250.8"/>
      <point x="674.4" y="1156.8" type="curve" smooth="yes"/>
      <point x="860.8" y="820.0" type="line"/>
      <point x="872.0" y="800.0"/>
      <point x="888.4" y="784.4"/>
      <point x="913.2" y="784.4" type="curve" smooth="yes"/>
      <point x="1055.6" y="784.4" type="line"/>
    </contour>
  </outline>
</glyph>
<glyph name="underscore" format="2">
  <advance width="888"/>
  <unicode hex="005F"/>
  <outline>
    <contour>
      <point x="-12.2" y="-160.8" type="line" name="n00"/>
      <point x="-27.4" y="-286" type="line" name="n01"/>
      <point x="697.8" y="-286" type="line"/>
      <point x="713.8" y="-160.8" type="line"/>
    </contour>
  </outline>
  <guideline angle="82.9991" x="363" y="0"/>
</glyph>
<glyph name="grave" format="2">
  <advance width="736"/>
  <unicode hex="0060"/>
  <anchor x="400" y="1120" name="_top"/>
  <outline>
    <contour>
      <point x="272.4" y="1452" type="line" name="n00"/>
      <point x="461.4" y="1193.6" type="line" smooth="yes"/>
      <point x="476.6" y="1172"/>
      <point x="491.6" y="1164" name="n03"/>
      <point x="518.8" y="1164" type="curve" smooth="yes"/>
      <point x="621.2" y="1164" type="line"/>
      <point x="513.4" y="1406" type="line" smooth="yes"/>
      <point x="500.2" y="1437.2"/>
      <point x="484.4" y="1452"/>
      <point x="442.2" y="1452" type="curve" smooth="yes"/>
    </contour>
  </outline>
  <guideline angle="82.9991" x="368" y="0"/>
</glyph>
<glyph name="a" format="2">
  <advance width="1027"/>
  <unicode hex="0061"/>
  <anchor x="463" y="-70" name="bottom"/>
  <anchor x="782.2" y="141.2" name="hook"/>
  <anchor x="669.8" y="1120" name="top"/>
  <outline>
    <contour>
      <point x="827.4" y="0" type="line" name="n00"/>
      <point x="948.6" y="983.6" type="line"/>
      <point x="756.2" y="974" type="line"/>
      <point x="674.6" y="320" type="line"/>
      <point x="680.6" y="302.8" type="line"/>
      <point x="660.6" y="66.8" type="line"/>
      <point x="660.6" y="29.6"/>
      <point x="674.6" y="0"/>
      <point x="725.4" y="0" type="curve" smooth="yes"/>
    </contour>
    <contour>
      <point x="948.6" y="983.6" type="line"/>
      <point x="867.4" y="1018.4"/>
      <point x="781.8" y="1030.4"/>
      <point x="694.2" y="1030.4" type="curve" smooth="yes" name="n12"/>
      <point x="330.2" y="1030.4"/>
      <point x="45.8" y="706.4"/>
      <point x="45.8" y="345.2" type="curve" smooth="yes"/>
      <point x="45.8" y="112"/>
      <point x="155.8" y="-14.4"/>
      <point x="314.6" y="-14.4" type="curve" smooth="yes" name="n18"/>
      <point x="520.6" y="-14.4"/>
      <point x="683.8" y="199.2"/>
      <point x="780.2" y="489.2" type="curve"/>
      <point x="715.4" y="588.8" type="line"/>
      <point x="647.8" y="338.8"/>
      <point x="522.2" y="147.2"/>
      <point x="389" y="147.2" type="curve" smooth="yes" name="n25"/>
      <point x="293.4" y="147.2"/>
      <point x="241.4" y="224.4"/>
      <point x="241.4" y="380" type="curve" smooth="yes"/>
      <point x="241.4" y="650"/>
      <point x="431.4" y="889.2"/>
      <point x="667.8" y="889.2" type="curve" smooth="yes" name="n31"/>
      <point x="725" y="889.2"/>
      <point x="786.6" y="880"/>
      <point x="843" y="854.4" type="curve"/>
    </contour>
  </outline>
  <guideline angle="82.9991" x="477" y="0"/>
</glyph>
<glyph name="b" format="2">
  <advance width="1062"/>
  <unicode hex="0062"/>
  <anchor x="366" y="1513.4" name="Top"/>
  <anchor x="293.2" y="1238" name="bar"/>
  <anchor x="440" y="-70" name="bottom"/>
  <anchor x="577.4" y="141.2" name="hook"/>
  <anchor x="650" y="1120" name="top"/>
  <outline>
    <contour>
      <point x="158.6" y="0" type="line" smooth="yes" name="n00"/>
      <point x="202.2" y="0"/>
      <point x="215.8" y="18"/>
      <point x="227.4" y="56" type="curve"/>
      <point x="250.6" y="160" type="line"/>
      <point x="264.6" y="174.8" type="line"/>
      <point x="424.2" y="1476" type="line" name="n06"/>
      <point x="233" y="1476" type="line"/>
      <point x="54.2" y="0" type="line"/>
    </contour>
    <contour>
      <point x="218.2" y="148.8" type="line"/>
      <point x="271.4" y="47.6"/>
      <point x="369.8" y="-14.4"/>
      <point x="491" y="-14.4" type="curve" smooth="yes" name="n12"/>
      <point x="769.8" y="-14.4"/>
      <point x="985.8" y="325.2"/>
      <point x="985.8" y="659.2" type="curve" smooth="yes"/>
      <point x="985.8" y="904"/>
      <point x="881.8" y="1031.2"/>
      <point x="710.2" y="1031.2" type="curve" smooth="yes" name="n18"/>
      <point x="505" y="1031.2"/>
      <point x="320.6" y="818.4"/>
      <point x="223" y="528.4" type="curve"/>
      <point x="287.8" y="434.8" type="line"/>
      <point x="356.6" y="684.8"/>
      <point x="503.8" y="875.6"/>
      <point x="635.8" y="875.6" type="curve" smooth="yes" name="n25"/>
      <point x="735" y="875.6"/>
      <point x="792.2" y="794.4"/>
      <point x="792.2" y="640" type="curve" smooth="yes"/>
      <point x="792.2" y="406"/>
      <point x="663.4" y="136.4"/>
      <point x="461.8" y="136.4" type="curve" smooth="yes" name="n31"/>
      <point x="381.4" y="136.4"/>
      <point x="295" y="170"/>
      <point x="247.4" y="264.8" type="curve"/>
    </contour>
  </outline>
  <guideline angle="82.9991" x="496" y="0"/>
</glyph>
<glyph name="d" format="2">
  <advance width="1063"/>
  <unicode hex="0064"/>
  <anchor x="898.6" y="1513.4" name="Top"/>
  <anchor x="903" y="1238" name="bar"/>
  <anchor x="484.4" y="-70" name="bottom"/>
  <anchor x="859.2" y="141.2" name="hook"/>
  <anchor x="532.6" y="1120" name="top"/>
  <outline>
    <contour>
      <point x="860.4" y="0" type="line" name="n00"/>
      <point x="1042.4" y="1476" type="line" name="n01"/>
      <point x="851.2" y="1476" type="line"/>
      <point x="707.6" y="320" type="line"/>
      <point x="713.6" y="302.8" type="line"/>
      <point x="693.6" y="66.8" type="line"/>
      <point x="693.6" y="29.6"/>
      <point x="707.6" y="0"/>
      <point x="758.4" y="0" type="curve" smooth="yes"/>
    </contour>
    <contour>
      <point x="819.2" y="868.8" type="line"/>
      <point x="766" y="970"/>
      <point x="667.6" y="1031.2"/>
      <point x="546.4" y="1031.2" type="curve" smooth="yes" name="n12"/>
      <point x="267.6" y="1031.2"/>
      <point x="51.6" y="692.4"/>
      <point x="51.6" y="358.4" type="curve" smooth="yes"/>
      <point x="51.6" y="113.6"/>
      <point x="155.6" y="-14.4"/>
      <point x="327.2" y="-14.4" type="curve" smooth="yes" name="n18"/>
      <point x="532.4" y="-14.4"/>
      <point x="716.8" y="199.2"/>
      <point x="814.4" y="489.2" type="curve"/>
      <point x="749.6" y="582.8" type="line"/>
      <point x="680.8" y="332.8"/>
      <point x="533.6" y="141.2"/>
      <point x="401.6" y="141.2" type="curve" smooth="yes" name="n25"/>
      <point x="302.4" y="141.2"/>
      <point x="245.2" y="223.2"/>
      <point x="245.2" y="377.6" type="curve" smooth="yes"/>
      <point x="245.2" y="611.6"/>
      <point x="374" y="880.4"/>
      <point x="575.6" y="880.4" type="curve" smooth="yes" name="n31"/>
      <point x="656" y="880.4"/>
      <point x="742.4" y="847.6"/>
      <point x="790" y="752.8" type="curve"/>
    </contour>
  </outline>
  <guideline angle="82.9991" x="497" y="0"/>
</glyph>
<glyph name="f" format="2">
  <advance width="646.2"/>
  <unicode hex="0066"/>
  <guideline x="306.4" y="0.0" angle="82.9991"/>
  <anchor x="322.79999999999995" y="141.2" name="hook"/>
  <anchor x="587.4" y="1501.2" name="top"/>
  <anchor x="275.4" y="496.6" name="bar"/>
  <anchor x="508.0" y="1513.4" name="Top"/>
  <anchor x="160.4" y="-421.0" name="bottom"/>
  <outline>
    <contour>
      <point x="429.4" y="1085.6" type="line"/>
      <point x="450.2" y="1253.6"/>
      <point x="530.6" y="1314.8"/>
      <point x="643.0" y="1314.8" type="curve" smooth="yes"/>
      <point x="686.6" y="1314.8"/>
      <point x="721.4" y="1309.6"/>
      <point x="726.6" y="1337.2" type="curve"/>
      <point x="745.0" y="1438.8" type="line"/>
      <point x="710.6" y="1451.6"/>
      <point x="671.8" y="1458.4"/>
      <point x="630.6" y="1458.4" type="curve" smooth="yes"/>
      <point x="429.0" y="1458.4"/>
      <point x="274.6" y="1324.0"/>
      <point x="245.4" y="1091.6" type="curve" smooth="yes"/>
      <point x="82.6" y="-248.4" type="line"/>
      <point x="159.8" y="-248.4" type="line" smooth="yes"/>
      <point x="215.39999999999998" y="-248.4"/>
      <point x="244.2" y="-218.8"/>
      <point x="260.6" y="-166.8" type="curve"/>
      <point x="308.2" y="35.2" type="line"/>
      <point x="417.79999999999995" y="935.6" type="line"/>
      <point x="414.2" y="958.0" type="line"/>
    </contour>
    <contour>
      <point x="647.8" y="858.8" type="line"/>
      <point x="666.2" y="999.2" type="line"/>
      <point x="91.4" y="999.2" type="line"/>
      <point x="81.8" y="920.0" type="line" smooth="yes"/>
      <point x="78.2" y="890.0"/>
      <point x="95.8" y="876.0"/>
      <point x="121.8" y="870.0" type="curve"/>
      <point x="248.6" y="852.8" type="line"/>
      <point x="278.2" y="858.8" type="line"/>
    </contour>
  </outline>
</glyph>
<glyph name="g" format="2">
  <advance width="977"/>
  <unicode hex="0067"/>
  <anchor x="394.2" y="-421" name="bottom"/>
  <anchor x="568.6" y="1120" name="top"/>
  <outline>
    <contour>
      <point x="444" y="462.8" type="curve" smooth="yes" name="n00"/>
      <point x="344.8" y="462.8"/>
      <point x="286.4" y="526.8"/>
      <point x="286.4" y="641.2" type="curve" smooth="yes"/>
      <point x="286.4" y="772.8"/>
      <point x="360.8" y="897.2"/>
      <point x="498" y="897.2" type="curve" smooth="yes" name="n06"/>
      <point x="598.4" y="897.2"/>
      <point x="657.6" y="836.8"/>
      <point x="657.6" y="724.4" type="curve"/>
      <point x="656.4" y="597.2"/>
      <point x="581.2" y="462.8"/>
    </contour>
    <contour>
      <point x="836" y="731.6" type="curve"/>
      <point x="836" y="932"/>
      <point x="694.4" y="1031.2"/>
      <point x="519.6" y="1031.2" type="curve" smooth="yes" name="n15"/>
      <point x="252.8" y="1031.2"/>
      <point x="108.4" y="837.2"/>
      <point x="108.4" y="642.4" type="curve" smooth="yes"/>
      <point x="108.4" y="442.8"/>
      <point x="235.6" y="342"/>
      <point x="390" y="342" type="curve" smooth="yes" name="n21"/>
      <point x="517.2" y="342"/>
      <point x="591.6" y="390"/>
      <point x="661.6" y="461.6" type="curve"/>
      <point x="653.6" y="502.8" type="line"/>
      <point x="574.4" y="396.4"/>
      <point x="546" y="325.2"/>
      <point x="546" y="260" type="curve"/>
      <point x="545.2" y="155.2"/>
      <point x="635.2" y="104.8"/>
      <point x="634.4" y="-19.6" type="curve" smooth="yes"/>
      <point x="633.6" y="-132.4"/>
      <point x="520.4" y="-226.4"/>
      <point x="350.8" y="-226.4" type="curve" smooth="yes" name="n34"/>
      <point x="207.2" y="-226.4"/>
      <point x="127.6" y="-176.4"/>
      <point x="127.6" y="-85.2" type="curve"/>
      <point x="128.4" y="26.4"/>
      <point x="278.8" y="120.4"/>
      <point x="629.2" y="60.8" type="curve"/>
      <point x="599.6" y="174.8" type="line"/>
      <point x="331.6" y="228"/>
      <point x="-56.8" y="164.8"/>
      <point x="-57.6" y="-109.2" type="curve"/>
      <point x="-57.6" y="-259.6"/>
      <point x="96.8" y="-362.8"/>
      <point x="334.4" y="-362.8" type="curve" smooth="yes" name="n47"/>
      <point x="629.6" y="-362.8"/>
      <point x="810.4" y="-195.6"/>
      <point x="812.4" y="-4" type="curve" smooth="yes"/>
      <point x="813.2" y="146.4"/>
      <point x="686.4" y="210.4"/>
      <point x="687.2" y="320" type="curve"/>
      <point x="687.2" y="469.2"/>
      <point x="834.4" y="535.2"/>
    </contour>
    <contour>
      <point x="757.2" y="827.6" type="line"/>
      <point x="940.4" y="863.2" type="line" name="n57"/>
      <point x="965.2" y="871.6"/>
      <point x="978.8" y="889.6"/>
      <point x="982.4" y="915.2" type="curve" smooth="yes"/>
      <point x="990.8" y="979.6" type="line" name="n61"/>
      <point x="635.2" y="979.6" type="line"/>
    </contour>
  </outline>
  <guideline angle="90" x="419" y="0"/>
  <guideline angle="82.9991" x="100" y="0"/>
</glyph>
<glyph name="h" format="2">
  <advance width="1065"/>
  <unicode hex="0068"/>
  <anchor x="553.6" y="716.8" name="Slash"/>
  <anchor x="366.6" y="1513.4" name="Top"/>
  <anchor x="458.2" y="-70" name="bottom"/>
  <anchor x="366.6" y="1513.4" name="top"/>
  <outline>
    <contour>
      <point x="249" y="0" type="line" name="n00"/>
      <point x="427.8" y="1476" type="line" name="n01"/>
      <point x="233" y="1476" type="line"/>
      <point x="54.2" y="0" type="line"/>
    </contour>
    <contour>
      <point x="872.6" y="0" type="line"/>
      <point x="949" y="647.2" type="line"/>
      <point x="754.2" y="647.2" type="line"/>
      <point x="677.8" y="0" type="line"/>
    </contour>
    <contour>
      <point x="949" y="647.2" type="line"/>
      <point x="979.4" y="892.4"/>
      <point x="884.2" y="1031.2"/>
      <point x="711" y="1031.2" type="curve" smooth="yes" name="n11"/>
      <point x="526.6" y="1031.2"/>
      <point x="341.8" y="876.8"/>
      <point x="233.8" y="583.2" type="curve"/>
      <point x="297.8" y="484.8" type="line"/>
      <point x="364.6" y="717.2"/>
      <point x="512.6" y="870.8"/>
      <point x="638.2" y="870.8" type="curve" smooth="yes" name="n18"/>
      <point x="737.8" y="870.8"/>
      <point x="773" y="799.2"/>
      <point x="754.2" y="647.2" type="curve"/>
    </contour>
  </outline>
  <guideline angle="82.9991" x="502" y="0"/>
</glyph>
<glyph name="i" format="2">
  <advance width="467.6"/>
  <unicode hex="0069"/>
  <guideline x="247.2"/>
  <guideline x="100.0" y="0.0" angle="82.9991"/>
  <anchor x="256.4" y="141.2" name="hook"/>
  <anchor x="315.4" y="1513.4" name="Top"/>
  <anchor x="315.4" y="1513.4" name="top"/>
  <anchor x="155.0" y="-70.0" name="bottom"/>
  <outline>
    <contour>
      <point x="186.4" y="1016.0" type="line"/>
      <point x="64.0" y="0.0" type="line"/>
      <point x="256.4" y="0.0" type="line"/>
      <point x="378.8" y="1016.0" type="line"/>
    </contour>
    <contour>
      <point x="444.8" y="1329.6" type="curve"/>
      <point x="444.8" y="1404.0"/>
      <point x="381.6" y="1464.8"/>
      <point x="313.6" y="1464.8" type="curve" smooth="yes"/>
      <point x="247.2" y="1464.8"/>
      <point x="184.8" y="1402.8"/>
      <point x="184.8" y="1329.6" type="curve" smooth="yes"/>
      <point x="184.8" y="1257.2"/>
      <point x="246.0" y="1196.4"/>
      <point x="312.4" y="1196.4" type="curve" smooth="yes"/>
      <point x="379.2" y="1196.4"/>
      <point x="444.8" y="1257.2"/>
    </contour>
  </outline>
</glyph>
<glyph name="j" format="2">
  <advance width="466.0"/>
  <unicode hex="006A"/>
  <guideline x="241.8"/>
  <guideline x="100.0" y="0.0" angle="82.9991"/>
  <anchor x="210.8" y="496.6" name="bar"/>
  <anchor x="311.2" y="1513.4" name="Top"/>
  <anchor x="311.2" y="1513.4" name="top"/>
  <anchor x="110.4" y="-421.0" name="bottom"/>
  <outline>
    <contour>
      <point x="187.0" y="1016.0" type="line"/>
      <point x="54.6" y="-65.2" type="line"/>
      <point x="40.6" y="-172.0"/>
      <point x="0.5999999999999996" y="-216.0"/>
      <point x="-91.8" y="-216.0" type="curve" smooth="yes"/>
      <point x="-137.4" y="-216.0"/>
      <point x="-150.6" y="-212.8"/>
      <point x="-159.0" y="-238.4" type="curve"/>
      <point x="-178.6" y="-343.6" type="line"/>
      <point x="-145.4" y="-356.4"/>
      <point x="-113.8" y="-363.2"/>
      <point x="-66.2" y="-363.2" type="curve" smooth="yes"/>
      <point x="120.6" y="-363.2"/>
      <point x="225.8" y="-231.2"/>
      <point x="245.79999999999998" y="-65.2" type="curve" smooth="yes"/>
      <point x="378.2" y="1016.0" type="line"/>
    </contour>
    <contour>
      <point x="439.4" y="1329.6" type="curve" smooth="yes"/>
      <point x="439.4" y="1404.0"/>
      <point x="376.2" y="1464.8"/>
      <point x="308.2" y="1464.8" type="curve" smooth="yes"/>
      <point x="241.8" y="1464.8"/>
      <point x="179.4" y="1402.8"/>
      <point x="179.4" y="1329.6" type="curve" smooth="yes"/>
      <point x="179.4" y="1257.2"/>
      <point x="240.6" y="1196.4"/>
      <point x="307.0" y="1196.4" type="curve" smooth="yes"/>
      <point x="373.8" y="1196.4"/>
      <point x="439.4" y="1257.2"/>
    </contour>
  </outline>
</glyph>
<glyph name="k" format="2">
  <advance width="961"/>
  <unicode hex="006B"/>
  <anchor x="382.2" y="1513.4" name="Top"/>
  <anchor x="428.2" y="-70" name="bottom"/>
  <anchor x="790" y="141.2" name="hook"/>
  <anchor x="382.2" y="1513.4" name="top"/>
  <outline>
    <contour>
      <point x="233.4" y="1476" type="line" name="n00"/>
      <point x="52.6" y="0" type="line" name="n01"/>
      <point x="245" y="0" type="line"/>
      <point x="425.8" y="1476" type="line"/>
    </contour>
    <contour>
      <point x="251.8" y="612.8" type="line"/>
      <point x="270.2" y="480.8" type="line"/>
      <point x="337.8" y="480.8" type="line" smooth="yes"/>
      <point x="375" y="480.8"/>
      <point x="387.8" y="474.8"/>
      <point x="403.4" y="445.6" type="curve"/>
      <point x="646.6" y="37.2" type="line"/>
      <point x="659.4" y="9.2"/>
      <point x="679.4" y="0"/>
      <point x="709.8" y="0" type="curve" smooth="yes"/>
      <point x="878.2" y="0" type="line"/>
      <point x="587" y="499.2" type="line"/>
      <point x="558.6" y="558.4"/>
      <point x="521" y="596.4"/>
      <point x="426.2" y="596.4" type="curve"/>
      <point x="419.8" y="536" type="line"/>
      <point x="497" y="536"/>
      <point x="552.2" y="566"/>
      <point x="601" y="622.8" type="curve"/>
      <point x="979" y="1016" type="line" name="n23"/>
      <point x="805.8" y="1016" type="line" smooth="yes"/>
      <point x="773" y="1016"/>
      <point x="752.2" y="1002.8"/>
      <point x="732.6" y="978.4" type="curve"/>
      <point x="413" y="642.8" type="line"/>
      <point x="392.6" y="619.6"/>
      <point x="377.8" y="612.8"/>
      <point x="349.4" y="612.8" type="curve" smooth="yes"/>
    </contour>
  </outline>
  <guideline angle="82.9991" x="413" y="0"/>
</glyph>
<glyph name="l" format="2">
  <advance width="457"/>
  <unicode hex="006C"/>
  <anchor x="337.2" y="1513.4" name="Top"/>
  <anchor x="246.4" y="733.6" name="bar"/>
  <anchor x="144" y="-70" name="bottom"/>
  <anchor x="258.6" y="141.2" name="hook"/>
  <anchor x="337.2" y="1513.4" name="top"/>
  <outline>
    <contour>
      <point x="250.6" y="0" type="line" name="n00"/>
      <point x="430.2" y="1476" type="line" name="n01"/>
      <point x="237.8" y="1476" type="line"/>
      <point x="59" y="0" type="line"/>
    </contour>
  </outline>
  <guideline angle="82.9991" x="212" y="0"/>
</glyph>
<glyph name="m" format="2">
  <advance width="1577.4"/>
  <unicode hex="006D"/>
  <guideline x="789.4" y="0.0" angle="82.9991"/>
  <anchor x="690.0" y="-70.0" name="bottom"/>
  <anchor x="866.8" y="1120.0" name="top"/>
  <anchor x="1354.0" y="141.2" name="hook"/>
  <outline>
    <contour>
      <point x="245.39999999999998" y="0.0" type="line"/>
      <point x="327.79999999999995" y="688.4" type="line"/>
      <point x="323.0" y="700.8" type="line"/>
      <point x="340.6" y="952.0" type="line"/>
      <point x="340.6" y="996.4"/>
      <point x="317.0" y="1017.6"/>
      <point x="274.6" y="1017.6" type="curve"/>
      <point x="177.0" y="1017.6" type="line"/>
      <point x="54.2" y="0.0" type="line"/>
    </contour>
    <contour>
      <point x="815.4" y="0.0" type="line"/>
      <point x="891.8" y="647.2" type="line"/>
      <point x="699.4" y="647.2" type="line"/>
      <point x="623.0" y="0.0" type="line"/>
    </contour>
    <contour>
      <point x="869.4" y="647.2" type="line"/>
      <point x="899.8" y="892.4"/>
      <point x="835.0" y="1031.2"/>
      <point x="672.6" y="1031.2" type="curve" smooth="yes"/>
      <point x="499.0" y="1031.2"/>
      <point x="340.2" y="876.8"/>
      <point x="232.2" y="583.2" type="curve"/>
      <point x="295.0" y="484.8" type="line"/>
      <point x="363.4" y="722.8"/>
      <point x="475.8" y="869.6"/>
      <point x="605.8" y="869.6" type="curve" smooth="yes"/>
      <point x="700.2" y="869.6"/>
      <point x="718.2" y="799.2"/>
      <point x="699.4" y="647.2" type="curve"/>
    </contour>
    <contour>
      <point x="1385.0" y="0.0" type="line"/>
      <point x="1461.4" y="647.2" type="line"/>
      <point x="1269.0" y="647.2" type="line"/>
      <point x="1192.6" y="0.0" type="line"/>
    </contour>
    <contour>
      <point x="1461.4" y="647.2" type="line"/>
      <point x="1491.8" y="892.4"/>
      <point x="1413.8" y="1031.2"/>
      <point x="1240.6" y="1031.2" type="curve" smooth="yes"/>
      <point x="1067.0" y="1031.2"/>
      <point x="911.0" y="897.6"/>
      <point x="805.8" y="608.0" type="curve"/>
      <point x="868.6" y="509.6" type="line"/>
      <point x="933.8" y="740.4"/>
      <point x="1054.2" y="869.6"/>
      <point x="1171.4" y="869.6" type="curve" smooth="yes"/>
      <point x="1265.0" y="869.6"/>
      <point x="1287.8" y="799.2"/>
      <point x="1269.0" y="647.2" type="curve"/>
    </contour>
  </outline>
</glyph>
<glyph name="n" format="2">
  <advance width="1065"/>
  <unicode hex="006E"/>
  <anchor x="459.2" y="-70" name="bottom"/>
  <anchor x="863.6" y="141.2" name="hook"/>
  <anchor x="590.2" y="1120" name="top"/>
  <outline>
    <contour>
      <point x="249.6" y="0" type="line" name="n00"/>
      <point x="327.2" y="688.4" type="line"/>
      <point x="322.4" y="700.8" type="line"/>
      <point x="340" y="952" type="line"/>
      <point x="340" y="996.4"/>
      <point x="316.4" y="1017.6" name="n05"/>
      <point x="274" y="1017.6" type="curve" smooth="yes"/>
      <point x="176.4" y="1017.6" type="line"/>
      <point x="54.8" y="0" type="line"/>
    </contour>
    <contour>
      <point x="874" y="0" type="line"/>
      <point x="950.4" y="647.2" type="line"/>
      <point x="755.6" y="647.2" type="line"/>
      <point x="679.2" y="0" type="line"/>
    </contour>
    <contour>
      <point x="950.4" y="647.2" type="line"/>
      <point x="980.8" y="892.4"/>
      <point x="884.8" y="1031.2"/>
      <point x="713.6" y="1031.2" type="curve" smooth="yes" name="n16"/>
      <point x="528" y="1031.2"/>
      <point x="344.4" y="876.8"/>
      <point x="236.4" y="583.2" type="curve"/>
      <point x="299.2" y="484.8" type="line"/>
      <point x="365.2" y="717.2"/>
      <point x="513.2" y="869.6"/>
      <point x="640.8" y="869.6" type="curve" smooth="yes" name="n23"/>
      <point x="739.2" y="869.6"/>
      <point x="774.4" y="799.2"/>
      <point x="755.6" y="647.2" type="curve"/>
    </contour>
  </outline>
  <guideline angle="90" x="503" y="0"/>
  <guideline angle="82.9991" x="100" y="0"/>
</glyph>
<glyph name="o" format="2">
  <advance width="1040"/>
  <unicode hex="006F"/>
  <anchor x="429.6" y="-70" name="bottom"/>
  <anchor x="598.6" y="1120" name="top"/>
  <outline>
    <contour>
      <point x="454.8" y="137.6" type="curve" smooth="yes" name="n00"/>
      <point x="322" y="137.6"/>
      <point x="251.2" y="230"/>
      <point x="251.2" y="410" type="curve" smooth="yes"/>
      <point x="251.2" y="659.6"/>
      <point x="372.8" y="879.2"/>
      <point x="561.2" y="879.2" type="curve" smooth="yes" name="n06"/>
      <point x="693.2" y="879.2"/>
      <point x="764.8" y="788.8"/>
      <point x="764.8" y="607.6" type="curve" smooth="yes"/>
      <point x="764.8" y="360.8"/>
      <point x="643.2" y="137.6"/>
    </contour>
    <contour>
      <point x="437.2" y="-14.4" type="curve" smooth="yes" name="n12"/>
      <point x="729.6" y="-14.4"/>
      <point x="960.4" y="266.8"/>
      <point x="960.4" y="608.8" type="curve" smooth="yes"/>
      <point x="960.4" y="876"/>
      <point x="801.2" y="1031.2"/>
      <point x="578.8" y="1031.2" type="curve" smooth="yes" name="n18"/>
      <point x="286.4" y="1031.2"/>
      <point x="55.6" y="754"/>
      <point x="55.6" y="408.8" type="curve" smooth="yes"/>
      <point x="55.6" y="140.8"/>
      <point x="214.8" y="-14.4"/>
    </contour>
  </outline>
  <guideline angle="90" x="486" y="0"/>
  <guideline angle="82.9991" x="100" y="0"/>
</glyph>
<glyph name="q" format="2">
  <advance width="1028"/>
  <unicode hex="0071"/>
  <anchor x="420" y="-421" name="bottom"/>
  <anchor x="655.8" y="1120" name="top"/>
  <outline>
    <contour>
      <point x="785.2" y="-340.8" type="line" name="n00"/>
      <point x="949.2" y="983.6" type="line"/>
      <point x="756.8" y="974" type="line"/>
      <point x="600" y="-261.2" type="line" smooth="yes"/>
      <point x="594.8" y="-300"/>
      <point x="609.2" y="-340.8"/>
      <point x="661.2" y="-340.8" type="curve" smooth="yes"/>
    </contour>
    <contour>
      <point x="949.2" y="983.6" type="line"/>
      <point x="868" y="1018.4"/>
      <point x="782.4" y="1030.4"/>
      <point x="694.8" y="1030.4" type="curve" smooth="yes" name="n10"/>
      <point x="330.8" y="1030.4"/>
      <point x="46.4" y="706.4"/>
      <point x="46.4" y="345.2" type="curve" smooth="yes"/>
      <point x="46.4" y="112"/>
      <point x="156.4" y="-14.4"/>
      <point x="315.2" y="-14.4" type="curve" smooth="yes" name="n16"/>
      <point x="521.2" y="-14.4"/>
      <point x="684.4" y="199.2"/>
      <point x="780.8" y="489.2" type="curve"/>
      <point x="716" y="588.8" type="line"/>
      <point x="648.4" y="338.8"/>
      <point x="522.8" y="147.2"/>
      <point x="389.6" y="147.2" type="curve" smooth="yes" name="n23"/>
      <point x="294" y="147.2"/>
      <point x="242" y="224.4"/>
      <point x="242" y="380" type="curve" smooth="yes"/>
      <point x="242" y="650"/>
      <point x="432" y="889.2"/>
      <point x="668.4" y="889.2" type="curve" smooth="yes" name="n29"/>
      <point x="725.6" y="889.2"/>
      <point x="787.2" y="880"/>
      <point x="843.6" y="854.4" type="curve"/>
    </contour>
  </outline>
  <guideline angle="82.9991" x="477" y="0"/>
</glyph>
<glyph name="r" format="2">
  <advance width="690"/>
  <unicode hex="0072"/>
  <anchor x="206.2" y="496.6" name="bar"/>
  <anchor x="135.8" y="-70" name="bottom"/>
  <anchor x="249.6" y="141.2" name="hook"/>
  <anchor x="450.4" y="1120" name="top"/>
  <outline>
    <contour>
      <point x="245.4" y="0" type="line" name="n00"/>
      <point x="327.8" y="688.4" type="line"/>
      <point x="323" y="700.8" type="line"/>
      <point x="340.6" y="952" type="line"/>
      <point x="340.6" y="996.4"/>
      <point x="317" y="1017.6" name="n05"/>
      <point x="274.6" y="1017.6" type="curve" smooth="yes"/>
      <point x="177" y="1017.6" type="line"/>
      <point x="54.2" y="0" type="line"/>
    </contour>
    <contour>
      <point x="283" y="386.4" type="line"/>
      <point x="360.6" y="756"/>
      <point x="499.8" y="893.2"/>
      <point x="684.2" y="818.8" type="curve"/>
      <point x="719.4" y="1006" type="line"/>
      <point x="517.8" y="1092.4"/>
      <point x="323.4" y="859.6"/>
      <point x="220.6" y="435.6" type="curve"/>
    </contour>
  </outline>
  <guideline angle="82.9991" x="323" y="0"/>
</glyph>
<glyph name="s" format="2">
  <advance width="802.6"/>
  <unicode hex="0073"/>
  <guideline x="390.2" y="0.0" angle="82.9991"/>
  <anchor x="491.0" y="1120.0" name="top"/>
  <anchor x="320.6" y="-70.0" name="bottom"/>
  <anchor x="619.0" y="141.2" name="hook"/>
  <outline>
    <contour>
      <point x="764.6" y="917.2" type="line"/>
      <point x="697.8" y="986.4"/>
      <point x="602.6" y="1031.2"/>
      <point x="479.0" y="1031.2" type="curve" smooth="yes"/>
      <point x="244.6" y="1031.2"/>
      <point x="103.4" y="868.0"/>
      <point x="103.4" y="694.8" type="curve" smooth="yes"/>
      <point x="103.4" y="400.4"/>
      <point x="518.2" y="495.6"/>
      <point x="518.2" y="295.2" type="curve" smooth="yes"/>
      <point x="518.2" y="201.6"/>
      <point x="442.6" y="122.0"/>
      <point x="317.0" y="122.0" type="curve" smooth="yes"/>
      <point x="170.6" y="122.0"/>
      <point x="139.0" y="211.2"/>
      <point x="93.8" y="211.2" type="curve" smooth="yes"/>
      <point x="70.6" y="211.2"/>
      <point x="55.4" y="200.8"/>
      <point x="43.0" y="182.39999999999998" type="curve" smooth="yes"/>
      <point x="-5.0" y="108.0" type="line"/>
      <point x="56.6" y="36.0"/>
      <point x="162.2" y="-16.0"/>
      <point x="291.4" y="-16.0" type="curve" smooth="yes"/>
      <point x="535.8" y="-16.0"/>
      <point x="691.8" y="151.6"/>
      <point x="691.8" y="340.8" type="curve" smooth="yes"/>
      <point x="691.8" y="630.4"/>
      <point x="275.8" y="558.0"/>
      <point x="275.8" y="740.4" type="curve" smooth="yes"/>
      <point x="275.8" y="824.4"/>
      <point x="351.8" y="892.4"/>
      <point x="467.8" y="892.4" type="curve" smooth="yes"/>
      <point x="592.6" y="892.4"/>
      <point x="636.6" y="822.4"/>
      <point x="676.2" y="822.4" type="curve" smooth="yes"/>
      <point x="693.4" y="822.4"/>
      <point x="703.4" y="829.2"/>
      <point x="715.0" y="846.4" type="curve"/>
    </contour>
  </outline>
</glyph>
<glyph name="t" format="2">
  <advance width="714.8"/>
  <unicode hex="0074"/>
  <guideline x="345.8" y="0.0" angle="82.9991"/>
  <anchor x="316.2" y="-70.0" name="bottom"/>
  <anchor x="370.4" y="716.8" name="Slash"/>
  <anchor x="246.6" y="496.6" name="bar"/>
  <anchor x="358.0" y="1120.0" name="top"/>
  <outline>
    <contour>
      <point x="224.0" y="948.4" type="line"/>
      <point x="151.6" y="363.2" type="line" smooth="yes"/>
      <point x="136.4" y="238.0"/>
      <point x="135.6" y="212.8"/>
      <point x="135.6" y="195.2" type="curve" smooth="yes"/>
      <point x="139.2" y="59.599999999999994"/>
      <point x="220.8" y="-16.0"/>
      <point x="353.6" y="-16.0" type="curve" smooth="yes"/>
      <point x="439.2" y="-16.0"/>
      <point x="528.4" y="18.0"/>
      <point x="595.2" y="75.6" type="curve"/>
      <point x="553.6" y="169.6" type="line" smooth="yes"/>
      <point x="547.8" y="182.39999999999998"/>
      <point x="542.4" y="188.0"/>
      <point x="530.0" y="188.0" type="curve" smooth="yes"/>
      <point x="510.0" y="188.0"/>
      <point x="480.0" y="143.2"/>
      <point x="413.2" y="143.2" type="curve" smooth="yes"/>
      <point x="361.6" y="143.2"/>
      <point x="329.2" y="176.0"/>
      <point x="329.2" y="238.39999999999998" type="curve" smooth="yes"/>
      <point x="329.2" y="245.6"/>
      <point x="330.0" y="265.2"/>
      <point x="344.0" y="373.2" type="curve"/>
      <point x="463.6" y="1341.2" type="line"/>
      <point x="360.4" y="1341.2" type="line" smooth="yes"/>
      <point x="337.6" y="1341.2"/>
      <point x="321.8" y="1327.2"/>
      <point x="314.8" y="1305.6" type="curve"/>
    </contour>
    <contour>
      <point x="301.6" y="999.2" type="line"/>
      <point x="263.6" y="1005.2" type="line"/>
      <point x="82.0" y="978.4" type="line"/>
      <point x="72.8" y="900.4" type="line"/>
      <point x="69.2" y="872.8"/>
      <point x="84.0" y="858.0"/>
      <point x="104.0" y="858.0" type="curve" smooth="yes"/>
      <point x="666.0" y="858.0" type="line"/>
      <point x="682.4" y="999.2" type="line"/>
    </contour>
  </outline>
</glyph>
<glyph name="u" format="2">
  <advance width="1065"/>
  <unicode hex="0075"/>
  <anchor x="490.4" y="-70" name="bottom"/>
  <anchor x="853.2" y="141.2" name="hook"/>
  <anchor x="583.8" y="1120" name="top"/>
  <outline>
    <contour>
      <point x="791" y="1016" type="line" name="n00"/>
      <point x="708.6" y="329.2" type="line"/>
      <point x="713.4" y="311.2" type="line"/>
      <point x="695" y="69.2" type="line"/>
      <point x="695" y="23.6"/>
      <point x="718.6" y="0" name="n05"/>
      <point x="765.8" y="0" type="curve" smooth="yes"/>
      <point x="863" y="0" type="line"/>
      <point x="985.8" y="1016" type="line"/>
    </contour>
    <contour>
      <point x="166.6" y="1016" type="line"/>
      <point x="90.2" y="370.4" type="line"/>
      <point x="285" y="370.4" type="line"/>
      <point x="361.4" y="1016" type="line"/>
    </contour>
    <contour>
      <point x="90.2" y="370.4" type="line"/>
      <point x="59.8" y="125.2"/>
      <point x="155.8" y="-14.4"/>
      <point x="327" y="-14.4" type="curve" smooth="yes" name="n16"/>
      <point x="512.6" y="-14.4"/>
      <point x="696.2" y="140.8"/>
      <point x="804.2" y="434.4" type="curve"/>
      <point x="741.4" y="532.8" type="line"/>
      <point x="675.4" y="300.4"/>
      <point x="527.4" y="147.2"/>
      <point x="399.8" y="147.2" type="curve" smooth="yes" name="n23"/>
      <point x="301.4" y="147.2"/>
      <point x="266.2" y="218.4"/>
      <point x="285" y="370.4" type="curve"/>
    </contour>
  </outline>
  <guideline angle="82.9991" x="498" y="0"/>
</glyph>
<glyph name="v" format="2">
  <advance width="964.2"/>
  <unicode hex="0076"/>
  <guideline x="481.6" y="0.0" angle="82.9991"/>
  <anchor x="560.8" y="141.2" name="hook"/>
  <anchor x="540.2" y="1120.0" name="top"/>
  <anchor x="404.0" y="-70.0" name="bottom"/>
  <outline>
    <contour>
      <point x="327.4" y="0.0" type="line"/>
      <point x="439.0" y="0.0" type="line"/>
      <point x="439.0" y="122.39999999999999"/>
      <point x="435.8" y="232.0"/>
      <point x="416.6" y="351.2" type="curve" smooth="yes"/>
      <point x="276.6" y="976.8" type="line"/>
      <point x="272.2" y="998.4"/>
      <point x="255.0" y="1016.0"/>
      <point x="225.8" y="1016.0" type="curve" smooth="yes"/>
      <point x="67.4" y="1016.0" type="line"/>
    </contour>
    <contour>
      <point x="998.2" y="1016.0" type="line"/>
      <point x="845.8" y="1016.0" type="line" smooth="yes"/>
      <point x="820.6" y="1016.0"/>
      <point x="798.6" y="999.2"/>
      <point x="788.6" y="976.8" type="curve" smooth="yes"/>
      <point x="492.2" y="351.2" type="line" smooth="yes"/>
      <point x="441.8" y="228.79999999999998"/>
      <point x="411.0" y="122.39999999999999"/>
      <point x="384.2" y="0.0" type="curve"/>
      <point x="491.0" y="0.0" type="line"/>
    </contour>
  </outline>
</glyph>
<glyph name="w" format="2">
  <advance width="1453"/>
  <unicode hex="0077"/>
  <anchor x="645.4" y="-70" name="bottom"/>
  <anchor x="777" y="1120" name="top"/>
  <outline>
    <contour>
      <point x="251.8" y="0" type="line" name="n00"/>
      <point x="395" y="0" type="line" smooth="yes"/>
      <point x="414.6" y="0"/>
      <point x="429.4" y="12.4"/>
      <point x="438.6" y="36.4" type="curve"/>
      <point x="719" y="698.8" type="line"/>
      <point x="752.2" y="780.8"/>
      <point x="773" y="862"/>
      <point x="789" y="944" type="curve"/>
      <point x="741.8" y="944" type="line"/>
      <point x="739.4" y="862"/>
      <point x="739.4" y="782"/>
      <point x="751.8" y="700" type="curve"/>
      <point x="868.6" y="36.4" type="line"/>
      <point x="872.2" y="11.2"/>
      <point x="883.4" y="0"/>
      <point x="900.2" y="0" type="curve" smooth="yes"/>
      <point x="1049.4" y="0" type="line"/>
      <point x="1473.8" y="1016" type="line" name="n18"/>
      <point x="1332.2" y="1016" type="line" smooth="yes"/>
      <point x="1307.4" y="1016"/>
      <point x="1284.6" y="999.2"/>
      <point x="1277" y="976.8" type="curve"/>
      <point x="1035" y="351.2" type="line"/>
      <point x="992.6" y="226.4"/>
      <point x="963.8" y="124"/>
      <point x="941.8" y="1.6" type="curve"/>
      <point x="994.2" y="0.8" type="line"/>
      <point x="1001.4" y="123.2"/>
      <point x="989.8" y="230.8"/>
      <point x="972.6" y="351.2" type="curve"/>
      <point x="866.2" y="980.8" type="line"/>
      <point x="863.8" y="1002.4"/>
      <point x="846.2" y="1018.4" name="n33"/>
      <point x="818.6" y="1018.4" type="curve" smooth="yes"/>
      <point x="736.6" y="1018.4" type="line" smooth="yes"/>
      <point x="712.6" y="1018.4"/>
      <point x="690.6" y="1002.4"/>
      <point x="682.6" y="980.8" type="curve"/>
      <point x="419" y="351.2" type="line"/>
      <point x="370.6" y="229.6"/>
      <point x="330.2" y="124"/>
      <point x="303.4" y="1.6" type="curve"/>
      <point x="362.2" y="1.6" type="line"/>
      <point x="368.2" y="124"/>
      <point x="366.2" y="229.6"/>
      <point x="357.4" y="351.2" type="curve"/>
      <point x="272.2" y="976.8" type="line"/>
      <point x="267.8" y="1000"/>
      <point x="249.4" y="1016"/>
      <point x="221.4" y="1016" type="curve" smooth="yes"/>
      <point x="74.6" y="1016" type="line"/>
    </contour>
  </outline>
  <guideline angle="82.9991" x="657" y="0"/>
</glyph>
<glyph name="x" format="2">
  <advance width="940"/>
  <unicode hex="0078"/>
  <anchor x="390" y="-70" name="bottom"/>
  <anchor x="767" y="141.2" name="hook"/>
  <anchor x="529.8" y="1120" name="top"/>
  <outline>
    <contour>
      <point x="357" y="517.6" type="line"/>
      <point x="549" y="517.6" type="line"/>
      <point x="321.8" y="990" type="line" smooth="yes"/>
      <point x="313" y="1009.2"/>
      <point x="303" y="1016" name="n04"/>
      <point x="275" y="1016" type="curve" smooth="yes"/>
      <point x="99.8" y="1016" type="line"/>
    </contour>
    <contour>
      <point x="948.6" y="1016" type="line"/>
      <point x="772.2" y="1016" type="line" smooth="yes"/>
      <point x="753" y="1016"/>
      <point x="739.4" y="1006.8"/>
      <point x="727" y="986.4" type="curve"/>
      <point x="510.2" y="696" type="line"/>
      <point x="470.2" y="638.4"/>
      <point x="461.4" y="587.2"/>
      <point x="451" y="517.6" type="curve"/>
      <point x="564.6" y="517.6" type="line"/>
    </contour>
    <contour>
      <point x="571.8" y="577.6" type="line"/>
      <point x="378.6" y="577.6" type="line"/>
      <point x="627.8" y="37.6" type="line"/>
      <point x="636.6" y="16.4"/>
      <point x="652.2" y="0" name="n21"/>
      <point x="680.2" y="0" type="curve" smooth="yes"/>
      <point x="855.4" y="0" type="line"/>
    </contour>
    <contour>
      <point x="-67.4" y="0" type="line"/>
      <point x="103.4" y="0" type="line" smooth="yes"/>
      <point x="129.4" y="0"/>
      <point x="145.4" y="17.6"/>
      <point x="159.8" y="36.8" type="curve" smooth="yes"/>
      <point x="423.8" y="392" type="line"/>
      <point x="455.4" y="437.6"/>
      <point x="470.6" y="507.2"/>
      <point x="481.8" y="577.6" type="curve"/>
      <point x="364.2" y="577.6" type="line"/>
    </contour>
  </outline>
  <guideline angle="82.9991" x="391" y="0"/>
</glyph>
<glyph name="y" format="2">
  <advance width="965"/>
  <unicode hex="0079"/>
  <anchor x="281.6" y="-421" name="bottom"/>
  <anchor x="559.4" y="1120" name="top"/>
  <outline>
    <contour>
      <point x="348" y="3.2" type="line"/>
      <point x="448.8" y="3.2" type="line"/>
      <point x="454.8" y="126.8"/>
      <point x="460" y="249.6"/>
      <point x="434.8" y="365.2" type="curve"/>
      <point x="280.8" y="976.8" type="line" smooth="yes"/>
      <point x="275.2" y="998.8"/>
      <point x="261.6" y="1016" name="n07"/>
      <point x="231.2" y="1016" type="curve" smooth="yes"/>
      <point x="69.2" y="1016" type="line"/>
    </contour>
    <contour>
      <point x="1002" y="1016" type="line"/>
      <point x="846.4" y="1016" type="line" smooth="yes"/>
      <point x="824.8" y="1016"/>
      <point x="802" y="1000.8"/>
      <point x="790.8" y="978.4" type="curve" smooth="yes"/>
      <point x="487.6" y="366.4" type="line"/>
      <point x="456" y="297.2"/>
      <point x="424.4" y="226"/>
      <point x="408.4" y="155.6" type="curve"/>
      <point x="363.6" y="124" type="line"/>
      <point x="109.2" y="-340.8" type="line" name="n20"/>
      <point x="253.2" y="-340.8" type="line" smooth="yes"/>
      <point x="283.6" y="-340.8"/>
      <point x="304" y="-327.2"/>
      <point x="319.6" y="-297.2" type="curve" smooth="yes"/>
    </contour>
  </outline>
  <guideline angle="82.9991" x="430" y="0"/>
</glyph>
<glyph name="z" format="2">
  <advance width="852.8"/>
  <unicode hex="007A"/>
  <guideline x="431.6" y="0.0" angle="82.9991"/>
  <anchor x="501.8" y="1120.0" name="top"/>
  <anchor x="335.6" y="-70.0" name="bottom"/>
  <anchor x="657.0" y="141.2" name="hook"/>
  <outline>
    <contour>
      <point x="841.4" y="1016.0" type="line"/>
      <point x="132.2" y="1016.0" type="line"/>
      <point x="113.8" y="864.0" type="line"/>
      <point x="651.4" y="864.0" type="line"/>
      <point x="607.0" y="882.0" type="line"/>
      <point x="23.0" y="150.79999999999998" type="line"/>
      <point x="4.6" y="128.8"/>
      <point x="-9.0" y="99.6"/>
      <point x="-10.2" y="81.6" type="curve" smooth="yes"/>
      <point x="-19.8" y="0.0" type="line"/>
      <point x="701.8" y="0.0" type="line"/>
      <point x="719.4" y="152.0" type="line"/>
      <point x="167.0" y="152.0" type="line"/>
      <point x="213.79999999999998" y="129.6" type="line"/>
      <point x="797.8" y="859.6" type="line"/>
      <point x="814.0" y="879.4"/>
      <point x="828.6" y="906.0"/>
      <point x="831.0" y="934.0" type="curve"/>
    </contour>
  </outline>
</glyph>
<glyph name="braceleft" format="2">
  <advance width="571"/>
  <unicode hex="007B"/>
  <outline>
    <contour>
      <point x="220.4" y="923.2" type="curve" smooth="yes"/>
      <point x="220.4" y="758.4"/>
      <point x="174.8" y="678.4"/>
      <point x="76.8" y="678.4" type="curve"/>
      <point x="62.8" y="566" type="line"/>
      <point x="150.4" y="613.6" type="line"/>
      <point x="266.8" y="613.6"/>
      <point x="367.2" y="705.6"/>
      <point x="376.8" y="850.4" type="curve"/>
      <point x="385.2" y="959.2"/>
      <point x="372" y="1073.2"/>
      <point x="382.8" y="1200.4" type="curve"/>
      <point x="390" y="1335.2"/>
      <point x="456" y="1412"/>
      <point x="552" y="1412" type="curve" smooth="yes" name="n14"/>
      <point x="566.8" y="1412" type="line" smooth="yes"/>
      <point x="582" y="1412"/>
      <point x="610" y="1423.2"/>
      <point x="613.2" y="1450.8" type="curve" smooth="yes"/>
      <point x="622.8" y="1535.6" type="line"/>
      <point x="574.4" y="1535.6" type="line" smooth="yes" name="n20"/>
      <point x="335.6" y="1535.6"/>
      <point x="212" y="1381.6"/>
      <point x="212" y="1117.6" type="curve" smooth="yes"/>
      <point x="212" y="1062.4"/>
      <point x="220.4" y="977.2"/>
    </contour>
    <contour>
      <point x="168" y="450" type="curve" smooth="yes"/>
      <point x="168" y="293.6"/>
      <point x="68.8" y="156"/>
      <point x="68.8" y="-20.4" type="curve" smooth="yes"/>
      <point x="68.8" y="-178"/>
      <point x="159.6" y="-291.2"/>
      <point x="349.6" y="-291.2" type="curve" smooth="yes" name="n32"/>
      <point x="399.2" y="-291.2" type="line"/>
      <point x="409.6" y="-207.6" type="line" smooth="yes"/>
      <point x="413.2" y="-180"/>
      <point x="388.8" y="-167.6"/>
      <point x="373.2" y="-167.6" type="curve" smooth="yes"/>
      <point x="357.6" y="-167.6" type="line" smooth="yes" name="n38"/>
      <point x="278.4" y="-167.6"/>
      <point x="233.6" y="-107.2"/>
      <point x="233.6" y="-17.6" type="curve" smooth="yes"/>
      <point x="233.6" y="148"/>
      <point x="326" y="289.6"/>
      <point x="326" y="447.2" type="curve" smooth="yes"/>
      <point x="326" y="550.8"/>
      <point x="256.4" y="629.6"/>
      <point x="152.8" y="629.6" type="curve"/>
      <point x="76.8" y="678.4" type="line"/>
      <point x="62.8" y="566" type="line"/>
      <point x="131.6" y="566"/>
      <point x="168" y="517.6"/>
    </contour>
  </outline>
  <guideline angle="0" x="0" y="630"/>
  <guideline angle="82.9991" x="276" y="0"/>
</glyph>
<glyph name="bar" format="2">
  <advance width="522"/>
  <unicode hex="007C"/>
  <outline>
    <contour>
      <point x="183.8" y="-340.8" type="line" name="n00"/>
      <point x="335.8" y="-340.8" type="line"/>
      <point x="335.8" y="1536.8" type="line" name="n02"/>
      <point x="183.8" y="1536.8" type="line"/>
    </contour>
  </outline>
  <guideline angle="82.9991" x="300" y="0"/>
</glyph>
<glyph name="braceright" format="2">
  <advance width="572"/>
  <unicode hex="007D"/>
  <outline>
    <contour>
      <point x="408.2" y="794.4" type="curve" smooth="yes"/>
      <point x="408.2" y="949.6"/>
      <point x="505.4" y="1088.4"/>
      <point x="505.4" y="1263.6" type="curve" smooth="yes"/>
      <point x="505.4" y="1422.4"/>
      <point x="414.6" y="1535.6"/>
      <point x="225.8" y="1535.6" type="curve" smooth="yes" name="n06"/>
      <point x="176.2" y="1535.6" type="line"/>
      <point x="166.6" y="1450.8" type="line"/>
      <point x="162.2" y="1423.2"/>
      <point x="186.6" y="1412"/>
      <point x="203" y="1412" type="curve" smooth="yes"/>
      <point x="217.8" y="1412" type="line" smooth="yes" name="n12"/>
      <point x="297" y="1412"/>
      <point x="341.8" y="1351.6"/>
      <point x="341.8" y="1262" type="curve" smooth="yes"/>
      <point x="341.8" y="1096.4"/>
      <point x="248.2" y="953.6"/>
      <point x="248.2" y="797.2" type="curve" smooth="yes"/>
      <point x="248.2" y="692.4"/>
      <point x="317.8" y="613.6"/>
      <point x="423.4" y="613.6" type="curve"/>
      <point x="498.6" y="566" type="line"/>
      <point x="512.2" y="678.4" type="line"/>
      <point x="442.6" y="678.4"/>
      <point x="408.2" y="726.8"/>
    </contour>
    <contour>
      <point x="355" y="320" type="curve" smooth="yes"/>
      <point x="355" y="486"/>
      <point x="401.4" y="566"/>
      <point x="498.6" y="566" type="curve"/>
      <point x="512.2" y="678.4" type="line"/>
      <point x="424.6" y="629.6" type="line"/>
      <point x="308.6" y="629.6"/>
      <point x="207.8" y="537.6"/>
      <point x="199.4" y="392.8" type="curve"/>
      <point x="191" y="285.2"/>
      <point x="203.4" y="170"/>
      <point x="192.6" y="44" type="curve"/>
      <point x="185.4" y="-90.8"/>
      <point x="119.4" y="-167.6"/>
      <point x="23.4" y="-167.6" type="curve" smooth="yes" name="n40"/>
      <point x="8.6" y="-167.6" type="line" smooth="yes"/>
      <point x="-7.8" y="-167.6"/>
      <point x="-34.6" y="-180"/>
      <point x="-37" y="-207.6" type="curve"/>
      <point x="-48.6" y="-291.2" type="line"/>
      <point x="1" y="-291.2" type="line" smooth="yes" name="n46"/>
      <point x="238.6" y="-291.2"/>
      <point x="362.2" y="-137.2"/>
      <point x="362.2" y="126.8" type="curve" smooth="yes"/>
      <point x="362.2" y="182"/>
      <point x="355" y="267.2"/>
    </contour>
  </outline>
  <guideline angle="0" x="0" y="630"/>
  <guideline angle="82.9991" x="276" y="0"/>
</glyph>
<glyph name="asciitilde" format="2">
  <advance width="1160.0"/>
  <unicode hex="007E"/>
  <guideline x="580.0" y="0.0" angle="82.9991"/>
  <outline>
    <contour>
      <point x="755.6" y="621.6" type="curve"/>
      <point x="661.2" y="621.6"/>
      <point x="530.4" y="722.4"/>
      <point x="390.8" y="722.4" type="curve"/>
      <point x="214.0" y="722.4"/>
      <point x="111.2" y="595.6"/>
      <point x="111.2" y="410.0" type="curve"/>
      <point x="269.2" y="410.0" type="line"/>
      <point x="270.0" y="501.6"/>
      <point x="319.6" y="560.8"/>
      <point x="402.8" y="560.8" type="curve" smooth="yes"/>
      <point x="497.2" y="560.8"/>
      <point x="628.0" y="460.0"/>
      <point x="767.6" y="460.0" type="curve"/>
      <point x="944.4" y="460.0"/>
      <point x="1047.2" y="586.8"/>
      <point x="1047.2" y="772.4" type="curve"/>
      <point x="889.2" y="772.4" type="line"/>
      <point x="888.4" y="680.8"/>
      <point x="838.8" y="621.6"/>
    </contour>
  </outline>
</glyph>
<glyph name="exclamdown" format="2">
  <advance width="477.8"/>
  <unicode hex="00A1"/>
  <guideline x="321.8"/>
  <guideline x="100.0" y="0.0" angle="82.9991"/>
  <outline>
    <contour>
      <point x="43.6" y="-342.0" type="line"/>
      <point x="110.4" y="198.0" type="line" smooth="yes"/>
      <point x="124.4" y="318.4"/>
      <point x="146.8" y="422.0"/>
      <point x="176.0" y="559.6" type="curve"/>
      <point x="292.8" y="559.6" type="line"/>
      <point x="288.8" y="422.0"/>
      <point x="284.0" y="318.4"/>
      <point x="268.79999999999995" y="198.0" type="curve" smooth="yes"/>
      <point x="203.2" y="-342.0" type="line"/>
    </contour>
    <contour>
      <point x="141.2" y="900.0" type="curve" smooth="yes"/>
      <point x="141.2" y="825.6"/>
      <point x="198.0" y="768.8"/>
      <point x="272.4" y="768.8" type="curve" smooth="yes"/>
      <point x="345.6" y="768.8"/>
      <point x="404.4" y="825.6"/>
      <point x="404.4" y="900.0" type="curve" smooth="yes"/>
      <point x="404.4" y="973.2"/>
      <point x="345.6" y="1032.0"/>
      <point x="272.4" y="1032.0" type="curve" smooth="yes"/>
      <point x="198.0" y="1032.0"/>
      <point x="141.2" y="973.2"/>
    </contour>
  </outline>
</glyph>
<glyph name="cent" format="2">
  <advance width="1160"/>
  <unicode hex="00A2"/>
  <outline>
    <contour>
      <point x="1052.4" y="897.6" type="line"/>
      <point x="972.8" y="980.4"/>
      <point x="860.4" y="1029.6"/>
      <point x="706.4" y="1029.6" type="curve" smooth="yes" name="n03"/>
      <point x="339.2" y="1029.6"/>
      <point x="118" y="775.6"/>
      <point x="118" y="432.8" type="curve" smooth="yes"/>
      <point x="118" y="154"/>
      <point x="294.8" y="-14.4"/>
      <point x="546.4" y="-14.4" type="curve" smooth="yes" name="n09"/>
      <point x="708.4" y="-14.4"/>
      <point x="868.8" y="34"/>
      <point x="973.2" y="142.4" type="curve"/>
      <point x="929.6" y="208.8" type="line" smooth="yes"/>
      <point x="922.8" y="219.2"/>
      <point x="912" y="224.8"/>
      <point x="896" y="224.8" type="curve" smooth="yes"/>
      <point x="848.8" y="224.8"/>
      <point x="784.4" y="129.2"/>
      <point x="590.4" y="129.2" type="curve" smooth="yes" name="n19"/>
      <point x="410.8" y="129.2"/>
      <point x="304" y="244.4"/>
      <point x="304" y="442" type="curve" smooth="yes"/>
      <point x="304" y="712.8"/>
      <point x="439.2" y="886"/>
      <point x="694.8" y="886" type="curve" smooth="yes" name="n25"/>
      <point x="861.6" y="886"/>
      <point x="913.6" y="809.6"/>
      <point x="953.6" y="809.6" type="curve" smooth="yes"/>
      <point x="973.2" y="809.6"/>
      <point x="983.6" y="816.4"/>
      <point x="996" y="831.6" type="curve" smooth="yes"/>
    </contour>
    <contour>
      <point x="438.4" y="-233.2" type="line" name="n32"/>
      <point x="508.4" y="-233.2" type="line" smooth="yes"/>
      <point x="538" y="-233.2"/>
      <point x="561.2" y="-209.2"/>
      <point x="566.8" y="-182.4" type="curve" smooth="yes"/>
      <point x="845.6" y="1255.2" type="line" name="n37"/>
      <point x="775.6" y="1255.2" type="line" smooth="yes"/>
      <point x="746" y="1255.2"/>
      <point x="722.8" y="1230"/>
      <point x="717.2" y="1204.4" type="curve"/>
    </contour>
  </outline>
  <guideline angle="82.9991" x="580" y="0"/>
</glyph>
<glyph name="sterling" format="2">
  <advance width="1160"/>
  <unicode hex="00A3"/>
  <outline>
    <contour>
      <point x="1061.2" y="162.4" type="line"/>
      <point x="397.6" y="162.4" type="line" smooth="yes"/>
      <point x="302" y="162.4"/>
      <point x="207.6" y="136"/>
      <point x="111.6" y="101.2" type="curve"/>
      <point x="11.2" y="121.6" type="line" name="n05"/>
      <point x="-4" y="0" type="line" name="n06"/>
      <point x="960" y="0" type="line" smooth="yes"/>
      <point x="1008.8" y="0"/>
      <point x="1046.8" y="44.4"/>
      <point x="1051.6" y="82.8" type="curve" smooth="yes"/>
    </contour>
    <contour>
      <point x="879.8" y="661.2" type="curve" smooth="yes"/>
      <point x="888.2" y="737.6" type="line"/>
      <point x="120.6" y="737.6" type="line" smooth="yes" name="n13"/>
      <point x="87.8" y="737.6"/>
      <point x="64" y="713.2"/>
      <point x="60.6" y="688.4" type="curve" smooth="yes"/>
      <point x="51.2" y="612" type="line" name="n17"/>
      <point x="819.4" y="612" type="line" smooth="yes"/>
      <point x="852.2" y="612"/>
      <point x="876.6" y="636.4"/>
    </contour>
    <contour>
      <point x="168.8" y="77.2" type="line"/>
      <point x="297.2" y="150"/>
      <point x="359.8" y="227.2"/>
      <point x="377.2" y="368.4" type="curve" smooth="yes"/>
      <point x="453.2" y="998" type="line" smooth="yes"/>
      <point x="475" y="1176.4"/>
      <point x="588.8" y="1290.4"/>
      <point x="753.2" y="1290.4" type="curve" smooth="yes" name="n28"/>
      <point x="885.2" y="1290.4"/>
      <point x="925.2" y="1239.2"/>
      <point x="970" y="1166" type="curve"/>
      <point x="994.4" y="1134.4"/>
      <point x="1027.2" y="1133.6"/>
      <point x="1064" y="1151.2" type="curve"/>
      <point x="1146" y="1200" type="line"/>
      <point x="1096.8" y="1342.8"/>
      <point x="995.6" y="1450.8"/>
      <point x="772" y="1450.8" type="curve" smooth="yes" name="n38"/>
      <point x="477.6" y="1450.8"/>
      <point x="291.2" y="1247.6"/>
      <point x="260" y="996.8" type="curve" smooth="yes"/>
      <point x="176.8" y="318" type="line" smooth="yes"/>
      <point x="161.6" y="197.6"/>
      <point x="105.2" y="148"/>
      <point x="11.2" y="121.6" type="curve"/>
    </contour>
  </outline>
  <guideline angle="82.9991" x="580" y="0"/>
</glyph>
<glyph name="currency" format="2">
  <advance width="1160"/>
  <unicode hex="00A4"/>
  <outline>
    <contour>
      <point x="223.6" y="672.4" type="curve" smooth="yes"/>
      <point x="223.6" y="472.4"/>
      <point x="383.6" y="312.4"/>
      <point x="583.6" y="312.4" type="curve" smooth="yes" name="n03"/>
      <point x="783.2" y="312.4"/>
      <point x="944.4" y="472.4"/>
      <point x="944.4" y="672.4" type="curve" smooth="yes"/>
      <point x="944.4" y="873.2"/>
      <point x="783.2" y="1033.2"/>
      <point x="583.6" y="1033.2" type="curve" smooth="yes" name="n09"/>
      <point x="383.6" y="1033.2"/>
      <point x="223.6" y="873.2"/>
    </contour>
    <contour>
      <point x="368.4" y="672.4" type="curve" smooth="yes"/>
      <point x="368.4" y="792.8"/>
      <point x="465.2" y="889.6"/>
      <point x="583.6" y="889.6" type="curve" smooth="yes" name="n15"/>
      <point x="704" y="889.6"/>
      <point x="800.8" y="792.8"/>
      <point x="800.8" y="672.4" type="curve" smooth="yes"/>
      <point x="800.8" y="555.2"/>
      <point x="704" y="457.2"/>
      <point x="583.6" y="457.2" type="curve" smooth="yes" name="n21"/>
      <point x="465.2" y="457.2"/>
      <point x="368.4" y="555.2"/>
    </contour>
    <contour>
      <point x="331.6" y="822.8" type="line"/>
      <point x="430.8" y="920.8" type="line"/>
      <point x="229.6" y="1122" type="line" name="n26"/>
      <point x="130.4" y="1024" type="line"/>
    </contour>
    <contour>
      <point x="734" y="924.4" type="line"/>
      <point x="832" y="825.2" type="line"/>
      <point x="1033.2" y="1026.4" type="line"/>
      <point x="935.2" y="1125.6" type="line"/>
    </contour>
    <contour>
      <point x="434.4" y="420.4" type="line"/>
      <point x="335.2" y="519.6" type="line"/>
      <point x="134" y="318.4" type="line"/>
      <point x="232" y="219.2" type="line" name="n35"/>
    </contour>
    <contour>
      <point x="835.6" y="523.2" type="line"/>
      <point x="736.4" y="424" type="line"/>
      <point x="937.6" y="222.8" type="line"/>
      <point x="1036.8" y="322" type="line"/>
    </contour>
  </outline>
  <guideline angle="82.9991" x="580" y="0"/>
</glyph>
<glyph name="yen" format="2">
  <advance width="1160.0"/>
  <unicode hex="00A5"/>
  <guideline x="580.0" y="0.0" angle="82.9991"/>
  <outline>
    <contour>
      <point x="1214.2" y="1434.8" type="line"/>
      <point x="1055.0" y="1434.8" type="line" smooth="yes"/>
      <point x="1020.2" y="1434.8"/>
      <point x="994.6" y="1412.4"/>
      <point x="980.2" y="1387.2" type="curve"/>
      <point x="645.4" y="832.8" type="line"/>
      <point x="591.0" y="730.4"/>
      <point x="572.2" y="662.8"/>
      <point x="552.6" y="552.4" type="curve"/>
      <point x="660.6" y="552.4" type="line"/>
    </contour>
    <contour>
      <point x="476.2" y="552.4" type="line"/>
      <point x="590.2" y="552.4" type="line"/>
      <point x="599.0" y="664.0"/>
      <point x="592.2" y="729.2"/>
      <point x="562.2" y="832.8" type="curve"/>
      <point x="362.2" y="1387.2" type="line"/>
      <point x="354.2" y="1416.0"/>
      <point x="333.4" y="1434.8"/>
      <point x="298.6" y="1434.8" type="curve" smooth="yes"/>
      <point x="140.60000000000002" y="1434.8" type="line"/>
    </contour>
    <contour>
      <point x="670.6" y="609.2" type="line"/>
      <point x="481.0" y="609.2" type="line"/>
      <point x="407.0" y="0.0" type="line"/>
      <point x="595.4" y="0.0" type="line"/>
    </contour>
    <contour>
      <point x="106.6" y="308.0" type="line"/>
      <point x="970.2" y="308.0" type="line"/>
      <point x="983.0" y="415.6" type="line"/>
      <point x="120.6" y="415.6" type="line"/>
    </contour>
    <contour>
      <point x="133.0" y="518.4" type="line"/>
      <point x="996.6" y="518.4" type="line"/>
      <point x="1009.4" y="626.0" type="line"/>
      <point x="145.8" y="626.0" type="line"/>
    </contour>
  </outline>
</glyph>
<glyph name="brokenbar" format="2">
  <advance width="521.4"/>
  <unicode hex="00A6"/>
  <guideline x="300.0" y="0.0" angle="82.9991"/>
  <outline>
    <contour>
      <point x="183.2" y="738.8" type="line"/>
      <point x="335.2" y="738.8" type="line"/>
      <point x="335.2" y="1536.8" type="line"/>
      <point x="183.2" y="1536.8" type="line"/>
    </contour>
    <contour>
      <point x="183.2" y="-340.8" type="line"/>
      <point x="335.2" y="-340.8" type="line"/>
      <point x="335.2" y="457.2" type="line"/>
      <point x="183.2" y="457.2" type="line"/>
    </contour>
  </outline>
</glyph>
<glyph name="section" format="2">
  <advance width="929"/>
  <unicode hex="00A7"/>
  <outline>
    <contour>
      <point x="455" y="970" type="line"/>
      <point x="214.6" y="944"/>
      <point x="102.2" y="822.4"/>
      <point x="102.2" y="664.4" type="curve" smooth="yes"/>
      <point x="102.2" y="365.6"/>
      <point x="570.2" y="400.8"/>
      <point x="570.2" y="189.2" type="curve" smooth="yes"/>
      <point x="570.2" y="86"/>
      <point x="494.6" y="10"/>
      <point x="367.8" y="10" type="curve" smooth="yes" name="n09"/>
      <point x="217" y="10"/>
      <point x="189" y="98.4" name="n11"/>
      <point x="139.4" y="98.4" type="curve" smooth="yes"/>
      <point x="114.2" y="98.4"/>
      <point x="99" y="89.2"/>
      <point x="86.6" y="70.8" type="curve"/>
      <point x="33.8" y="-1.2" type="line"/>
      <point x="97.8" y="-73.2"/>
      <point x="206.6" y="-124"/>
      <point x="335.8" y="-124" type="curve" smooth="yes" name="n19"/>
      <point x="591.4" y="-124"/>
      <point x="739.8" y="34.8"/>
      <point x="739.8" y="234" type="curve" smooth="yes"/>
      <point x="739.8" y="523.2"/>
      <point x="274.2" y="512.4"/>
      <point x="274.2" y="711.6" type="curve" smooth="yes"/>
      <point x="274.2" y="789.2"/>
      <point x="317.8" y="844.8"/>
      <point x="443" y="892.4" type="curve"/>
    </contour>
    <contour>
      <point x="881.8" y="1330.8" type="line"/>
      <point x="820.2" y="1403.6"/>
      <point x="722.6" y="1449.6"/>
      <point x="598.6" y="1449.6" type="curve" smooth="yes" name="n32"/>
      <point x="360.2" y="1449.6"/>
      <point x="218.2" y="1294.4"/>
      <point x="218.2" y="1118" type="curve" smooth="yes"/>
      <point x="218.2" y="813.2"/>
      <point x="673" y="844"/>
      <point x="673" y="630.4" type="curve" smooth="yes"/>
      <point x="673" y="548.4"/>
      <point x="628.2" y="482.8"/>
      <point x="511" y="448" type="curve"/>
      <point x="493" y="368" type="line"/>
      <point x="737.8" y="390.8"/>
      <point x="843.8" y="522"/>
      <point x="843.8" y="684.8" type="curve" smooth="yes"/>
      <point x="843.8" y="971.6"/>
      <point x="387.8" y="972.4"/>
      <point x="387.8" y="1148.4" type="curve" smooth="yes"/>
      <point x="387.8" y="1234.8"/>
      <point x="463.8" y="1309.6"/>
      <point x="583.8" y="1309.6" type="curve" smooth="yes" name="n51"/>
      <point x="707.4" y="1309.6"/>
      <point x="749.4" y="1238.4"/>
      <point x="791" y="1238.4" type="curve" smooth="yes"/>
      <point x="808.2" y="1238.4"/>
      <point x="820.6" y="1245.2"/>
      <point x="832.2" y="1262.4" type="curve"/>
    </contour>
  </outline>
  <guideline angle="82.9991" x="459" y="0"/>
</glyph>
<glyph name="dieresis" format="2">
  <advance width="736"/>
  <unicode hex="00A8"/>
  <anchor x="448" y="1120" name="_top"/>
  <anchor x="478" y="1434.2" name="top"/>
  <outline>
    <contour>
      <point x="449.6" y="1289.6" type="curve" smooth="yes"/>
      <point x="449.6" y="1355.6"/>
      <point x="394" y="1410.4"/>
      <point x="328.8" y="1410.4" type="curve" smooth="yes" name="n03"/>
      <point x="266.4" y="1410.4"/>
      <point x="211.6" y="1355.6"/>
      <point x="211.6" y="1289.6" type="curve" smooth="yes"/>
      <point x="211.6" y="1225.6"/>
      <point x="266.4" y="1173.2"/>
      <point x="328.8" y="1173.2" type="curve" smooth="yes" name="n09"/>
      <point x="394" y="1173.2"/>
      <point x="449.6" y="1225.6"/>
    </contour>
    <contour>
      <point x="816.4" y="1289.6" type="curve" smooth="yes"/>
      <point x="816.4" y="1355.6"/>
      <point x="762" y="1410.4"/>
      <point x="696.8" y="1410.4" type="curve" smooth="yes"/>
      <point x="632" y="1410.4"/>
      <point x="578.4" y="1355.6"/>
      <point x="578.4" y="1289.6" type="curve" smooth="yes"/>
      <point x="578.4" y="1225.6"/>
      <point x="632" y="1173.2"/>
      <point x="696.8" y="1173.2" type="curve" smooth="yes"/>
      <point x="762" y="1173.2"/>
      <point x="816.4" y="1225.6"/>
    </contour>
  </outline>
  <guideline angle="82.9991" x="368" y="0"/>
</glyph>
<glyph name="copyright" format="2">
  <advance width="1658.8"/>
  <unicode hex="00A9"/>
  <guideline x="770.6" y="0.0" angle="82.9991"/>
  <outline>
    <contour>
      <point x="1091.2" y="483.6" type="curve"/>
      <point x="1027.2" y="455.6"/>
      <point x="992.4" y="408.0"/>
      <point x="856.0" y="408.0" type="curve" smooth="yes"/>
      <point x="698.0" y="408.0"/>
      <point x="582.8" y="520.4"/>
      <point x="582.8" y="720.4" type="curve" smooth="yes"/>
      <point x="582.8" y="912.8"/>
      <point x="694.4" y="1033.6"/>
      <point x="874.8" y="1033.6" type="curve" smooth="yes"/>
      <point x="1026.4" y="1033.6"/>
      <point x="1059.6" y="963.2"/>
      <point x="1098.4" y="963.2" type="curve" smooth="yes"/>
      <point x="1115.6" y="963.2"/>
      <point x="1126.8" y="974.0"/>
      <point x="1133.6" y="982.8" type="curve"/>
      <point x="1184.4" y="1053.6" type="line"/>
      <point x="1109.2" y="1128.8"/>
      <point x="1010.8" y="1179.6"/>
      <point x="865.2" y="1179.6" type="curve" smooth="yes"/>
      <point x="604.0" y="1179.6"/>
      <point x="408.8" y="990.0"/>
      <point x="408.8" y="720.4" type="curve" smooth="yes"/>
      <point x="408.8" y="454.8"/>
      <point x="583.6" y="260.8"/>
      <point x="846.4" y="260.8" type="curve" smooth="yes"/>
      <point x="1000.0" y="260.8"/>
      <point x="1110.4" y="312.0"/>
      <point x="1185.6" y="401.2" type="curve"/>
      <point x="1119.6" y="471.2" type="line"/>
      <point x="1112.8" y="478.4"/>
      <point x="1102.4" y="484.4"/>
    </contour>
    <contour>
      <point x="110.4" y="718.0" type="curve" smooth="yes"/>
      <point x="110.4" y="314.4"/>
      <point x="438.8" y="-14.0"/>
      <point x="842.4" y="-14.0" type="curve" smooth="yes"/>
      <point x="1247.2" y="-14.0"/>
      <point x="1575.6" y="314.4"/>
      <point x="1575.6" y="718.0" type="curve" smooth="yes"/>
      <point x="1575.6" y="1122.8"/>
      <point x="1247.2" y="1451.2"/>
      <point x="842.4" y="1451.2" type="curve" smooth="yes"/>
      <point x="438.8" y="1451.2"/>
      <point x="110.4" y="1122.8"/>
    </contour>
    <contour>
      <point x="219.6" y="718.0" type="curve" smooth="yes"/>
      <point x="219.6" y="1073.6"/>
      <point x="494.0" y="1357.2"/>
      <point x="842.4" y="1357.2" type="curve" smooth="yes"/>
      <point x="1192.0" y="1357.2"/>
      <point x="1469.6" y="1073.6"/>
      <point x="1469.6" y="718.0" type="curve" smooth="yes"/>
      <point x="1469.6" y="363.6"/>
      <point x="1192.0" y="83.2"/>
      <point x="842.4" y="83.2" type="curve" smooth="yes"/>
      <point x="494.0" y="83.2"/>
      <point x="219.6" y="363.6"/>
    </contour>
  </outline>
</glyph>
<glyph name="ordfeminine" format="2">
  <advance width="685"/>
  <unicode hex="00AA"/>
  <anchor x="325.2" y="-70" name="bottom"/>
  <outline>
    <contour>
      <point x="455.4" y="1452.8" type="curve" smooth="yes" name="n00"/>
      <point x="363.8" y="1452.8"/>
      <point x="282.2" y="1422.8"/>
      <point x="209" y="1356.8" type="curve"/>
      <point x="227.8" y="1312.4" type="line"/>
      <point x="234.6" y="1299.6"/>
      <point x="245" y="1286.8"/>
      <point x="264.6" y="1286.8" type="curve" smooth="yes"/>
      <point x="308.2" y="1286.8"/>
      <point x="336.2" y="1341.6"/>
      <point x="425" y="1341.6" type="curve" smooth="yes" name="n10"/>
      <point x="494.2" y="1341.6"/>
      <point x="513.8" y="1293.2"/>
      <point x="507.4" y="1222" type="curve"/>
      <point x="641" y="1222" type="line"/>
      <point x="655.8" y="1345.2"/>
      <point x="586.6" y="1452.8"/>
    </contour>
    <contour>
      <point x="593.8" y="840.4" type="line"/>
      <point x="641" y="1222" type="line"/>
      <point x="507.4" y="1222" type="line"/>
      <point x="476.6" y="960" type="line"/>
      <point x="487.8" y="869.6" type="line"/>
      <point x="497" y="846"/>
      <point x="505.4" y="840.4"/>
      <point x="530.6" y="840.4" type="curve" smooth="yes"/>
    </contour>
    <contour>
      <point x="506.2" y="936.8" type="curve"/>
      <point x="506.2" y="936.8"/>
      <point x="499.8" y="1014.8"/>
      <point x="499.8" y="1014.8" type="curve"/>
      <point x="445.4" y="959.6"/>
      <point x="401.4" y="927.2"/>
      <point x="336.6" y="927.2" type="curve" smooth="yes" name="n31"/>
      <point x="295.4" y="927.2"/>
      <point x="266.6" y="944.8"/>
      <point x="266.6" y="987.6" type="curve" smooth="yes"/>
      <point x="266.6" y="1055.2"/>
      <point x="330.6" y="1097.6"/>
      <point x="512.6" y="1100.8" type="curve" name="n37"/>
      <point x="505" y="1186.8" type="line" name="n38"/>
      <point x="220.6" y="1180.4"/>
      <point x="134.2" y="1074.4"/>
      <point x="134.2" y="970.4" type="curve" smooth="yes"/>
      <point x="134.2" y="879.6"/>
      <point x="194.6" y="831.6"/>
      <point x="282.2" y="831.6" type="curve" smooth="yes" name="n44"/>
      <point x="374.2" y="831.6"/>
      <point x="429" y="868.4"/>
    </contour>
  </outline>
  <guideline angle="82.9991" x="304" y="0"/>
</glyph>
<glyph name="logicalnot" format="2">
  <advance width="1160.0"/>
  <unicode hex="00AC"/>
  <guideline x="580.0" y="0.0" angle="82.9991"/>
  <outline>
    <contour>
      <point x="145.6" y="600.0" type="line"/>
      <point x="1008.8" y="600.0" type="line"/>
      <point x="1026.4" y="742.4" type="line"/>
      <point x="162.0" y="742.4" type="line"/>
    </contour>
    <contour>
      <point x="813.2" y="313.2" type="line"/>
      <point x="973.2" y="313.2" type="line"/>
      <point x="1026.4" y="742.4" type="line"/>
      <point x="866.4" y="742.4" type="line"/>
    </contour>
  </outline>
</glyph>
<glyph name="registered" format="2">
  <advance width="1659"/>
  <unicode hex="00AE"/>
  <outline>
    <contour>
      <point x="780.4" y="620.4" type="line" smooth="yes"/>
      <point x="814.8" y="620.4"/>
      <point x="830.4" y="611.6"/>
      <point x="840.4" y="592.4" type="curve"/>
      <point x="1027.6" y="300.4" type="line"/>
      <point x="1038.4" y="281.6"/>
      <point x="1055.6" y="273.2"/>
      <point x="1079.6" y="273.2" type="curve" smooth="yes"/>
      <point x="1242.4" y="273.2" type="line"/>
      <point x="1026" y="600.4" type="line"/>
      <point x="994.4" y="657.6"/>
      <point x="959.6" y="687.2"/>
      <point x="870.8" y="687.2" type="curve"/>
      <point x="808" y="650.4" type="line"/>
      <point x="839.6" y="650.4" type="line" smooth="yes" name="n14"/>
      <point x="1064.8" y="650.4"/>
      <point x="1176" y="760.8"/>
      <point x="1176" y="916.4" type="curve" smooth="yes"/>
      <point x="1176" y="1079.6"/>
      <point x="1066" y="1166.4"/>
      <point x="832.4" y="1166.4" type="curve" smooth="yes" name="n20"/>
      <point x="536.4" y="1166.4" type="line"/>
      <point x="536.4" y="273.2" type="line"/>
      <point x="706.8" y="273.2" type="line"/>
      <point x="706.8" y="1036" type="line"/>
      <point x="832.4" y="1036" type="line" smooth="yes" name="n25"/>
      <point x="966.8" y="1036"/>
      <point x="1008" y="990.4"/>
      <point x="1008" y="894.8" type="curve" smooth="yes"/>
      <point x="1008" y="797.6"/>
      <point x="961.2" y="743.6"/>
      <point x="815.6" y="743.6" type="curve" smooth="yes" name="n31"/>
      <point x="658.4" y="743.6" type="line"/>
      <point x="653.6" y="620.4" type="line"/>
    </contour>
    <contour>
      <point x="110.4" y="718" type="curve" smooth="yes"/>
      <point x="110.4" y="314.4"/>
      <point x="438.8" y="-14"/>
      <point x="842.4" y="-14" type="curve" smooth="yes" name="n37"/>
      <point x="1247.2" y="-14"/>
      <point x="1575.6" y="314.4"/>
      <point x="1575.6" y="718" type="curve" smooth="yes"/>
      <point x="1575.6" y="1122.8"/>
      <point x="1247.2" y="1451.2"/>
      <point x="842.4" y="1451.2" type="curve" smooth="yes" name="n43"/>
      <point x="438.8" y="1451.2"/>
      <point x="110.4" y="1122.8"/>
    </contour>
    <contour>
      <point x="219.6" y="718" type="curve" smooth="yes"/>
      <point x="219.6" y="1073.6"/>
      <point x="494" y="1357.2"/>
      <point x="842.4" y="1357.2" type="curve" smooth="yes" name="n49"/>
      <point x="1192" y="1357.2"/>
      <point x="1469.6" y="1073.6"/>
      <point x="1469.6" y="718" type="curve" smooth="yes"/>
      <point x="1469.6" y="363.6"/>
      <point x="1192" y="83.2"/>
      <point x="842.4" y="83.2" type="curve" smooth="yes" name="n55"/>
      <point x="494" y="83.2"/>
      <point x="219.6" y="363.6"/>
    </contour>
  </outline>
  <guideline angle="82.9991" x="794" y="0"/>
</glyph>
<glyph name="macron" format="2">
  <advance width="736.0"/>
  <unicode hex="00AF"/>
  <unicode hex="02C9"/>
  <guideline x="368.0" y="0.0" angle="82.9991"/>
  <anchor x="400.0" y="1120.0" name="_top"/>
  <outline>
    <contour>
      <point x="239.2" y="1226.8" type="line"/>
      <point x="772.8" y="1226.8" type="line"/>
      <point x="787.8" y="1353.6" type="line"/>
      <point x="253.6" y="1353.6" type="line"/>
    </contour>
  </outline>
</glyph>
<glyph name="degree" format="2">
  <advance width="821.6"/>
  <unicode hex="00B0"/>
  <guideline x="387.8" y="0.0" angle="82.9991"/>
  <outline>
    <contour>
      <point x="141.0" y="1126.8" type="curve" smooth="yes"/>
      <point x="141.0" y="948.8"/>
      <point x="287.0" y="800.8"/>
      <point x="470.6" y="800.8" type="curve" smooth="yes"/>
      <point x="656.6" y="800.8"/>
      <point x="802.2" y="948.8"/>
      <point x="802.2" y="1126.8" type="curve" smooth="yes"/>
      <point x="802.2" y="1308.4"/>
      <point x="656.6" y="1453.2"/>
      <point x="470.6" y="1453.2" type="curve" smooth="yes"/>
      <point x="287.0" y="1453.2"/>
      <point x="141.0" y="1308.4"/>
    </contour>
    <contour>
      <point x="277.4" y="1125.6" type="curve" smooth="yes"/>
      <point x="277.4" y="1235.2"/>
      <point x="361.0" y="1321.6"/>
      <point x="470.6" y="1321.6" type="curve" smooth="yes"/>
      <point x="580.2" y="1321.6"/>
      <point x="663.0" y="1235.2"/>
      <point x="663.0" y="1125.6" type="curve" smooth="yes"/>
      <point x="663.0" y="1017.2"/>
      <point x="580.2" y="932.0"/>
      <point x="470.6" y="932.0" type="curve" smooth="yes"/>
      <point x="361.0" y="932.0"/>
      <point x="277.4" y="1017.2"/>
    </contour>
  </outline>
</glyph>
<glyph name="plusminus" format="2">
  <advance width="1160"/>
  <unicode hex="00B1"/>
  <outline>
    <contour>
      <point x="113.8" y="692.4" type="line" name="n00"/>
      <point x="1074.2" y="692.4" type="line"/>
      <point x="1091.8" y="834.8" type="line"/>
      <point x="130.2" y="834.8" type="line" name="n03"/>
    </contour>
    <contour>
      <point x="579.4" y="1208.4" type="line" name="n04"/>
      <point x="471.4" y="328.8" type="line"/>
      <point x="624.6" y="328.8" type="line"/>
      <point x="732.6" y="1208.4" type="line"/>
    </contour>
    <contour>
      <point x="38.2" y="80" type="line" name="n08"/>
      <point x="998.6" y="80" type="line"/>
      <point x="1016.2" y="222.4" type="line"/>
      <point x="54.6" y="222.4" type="line" name="n11"/>
    </contour>
  </outline>
  <guideline angle="82.9991" x="580" y="0"/>
</glyph>
<glyph name="acute" format="2">
  <advance width="736"/>
  <unicode hex="00B4"/>
  <anchor x="400" y="1120" name="_top"/>
  <outline>
    <contour>
      <point x="637" y="1452" type="line" smooth="yes" name="n00"/>
      <point x="594.8" y="1452"/>
      <point x="575.4" y="1437.2"/>
      <point x="555.2" y="1406" type="curve" smooth="yes"/>
      <point x="393.2" y="1164" type="line" name="n04"/>
      <point x="501" y="1164" type="line" smooth="yes"/>
      <point x="528.2" y="1164"/>
      <point x="544.4" y="1172"/>
      <point x="564.6" y="1193.6" type="curve" smooth="yes"/>
      <point x="812.2" y="1452" type="line"/>
    </contour>
  </outline>
  <guideline angle="82.9991" x="368" y="0"/>
</glyph>
<glyph name="micro" format="2">
  <advance width="1219"/>
  <unicode hex="00B5"/>
  <anchor x="527.6" y="-421" name="bottom"/>
  <anchor x="632.4" y="1120" name="top"/>
  <outline>
    <contour>
      <point x="225" y="1016" type="line" name="n00"/>
      <point x="68.2" y="-258" type="line" smooth="yes"/>
      <point x="62.2" y="-310.8"/>
      <point x="89.8" y="-340.8" name="n03"/>
      <point x="144.6" y="-340.8" type="curve" smooth="yes"/>
      <point x="241.8" y="-340.8" type="line"/>
      <point x="274.8" y="-71.6" type="line" smooth="yes"/>
      <point x="284.4" y="6.8"/>
      <point x="290" y="116"/>
      <point x="269.6" y="182.4" type="curve"/>
      <point x="322.8" y="218.8" type="line"/>
      <point x="420.6" y="1016" type="line"/>
    </contour>
    <contour>
      <point x="231" y="404.8" type="line"/>
      <point x="200.2" y="156"/>
      <point x="268.2" y="8" name="n14"/>
      <point x="462.2" y="8" type="curve" smooth="yes"/>
      <point x="599.6" y="8"/>
      <point x="714.6" y="108"/>
      <point x="809.4" y="271.8" type="curve"/>
      <point x="764.2" y="382.2" type="line"/>
      <point x="700" y="249"/>
      <point x="608.8" y="168.4"/>
      <point x="494" y="168.4" type="curve" smooth="yes"/>
      <point x="375.4" y="168.4"/>
      <point x="327.4" y="260"/>
      <point x="345" y="404.8" type="curve"/>
    </contour>
    <contour>
      <point x="739.8" y="293.4" type="line"/>
      <point x="757.6" y="282" type="line"/>
      <point x="733.8" y="80.4"/>
      <point x="830" y="-9.8"/>
      <point x="954.8" y="-9.8" type="curve" smooth="yes" name="n30"/>
      <point x="1034.2" y="-9.8"/>
      <point x="1085" y="23.4"/>
      <point x="1089.6" y="57.2" type="curve" smooth="yes"/>
      <point x="1099" y="135.6" type="line"/>
      <point x="1038.8" y="135.6" type="line" smooth="yes" name="n35"/>
      <point x="964.6" y="135.6"/>
      <point x="922.2" y="181.4"/>
      <point x="934.4" y="281.4" type="curve" smooth="yes"/>
      <point x="1024.6" y="1016" type="line"/>
      <point x="829" y="1016" type="line"/>
    </contour>
  </outline>
  <guideline angle="82.9991" x="536" y="0"/>
</glyph>
<glyph name="paragraph" format="2">
  <advance width="1410"/>
  <unicode hex="00B6"/>
  <outline>
    <contour>
      <point x="787" y="1436" type="line"/>
      <point x="615.4" y="1436" type="line"/>
      <point x="414.2" y="-202.8" type="line" name="n02"/>
      <point x="585.8" y="-202.8" type="line"/>
    </contour>
    <contour>
      <point x="615.4" y="1436" type="line" smooth="yes"/>
      <point x="314.6" y="1436"/>
      <point x="113" y="1242.8"/>
      <point x="113" y="1000" type="curve" smooth="yes"/>
      <point x="113" y="794"/>
      <point x="271.8" y="652.8"/>
      <point x="520.2" y="652.8" type="curve"/>
      <point x="636.6" y="1270" type="line"/>
      <point x="1423" y="1270" type="line" name="n12"/>
      <point x="1443" y="1436" type="line" name="n13"/>
    </contour>
    <contour>
      <point x="1225" y="1436" type="line"/>
      <point x="1053.4" y="1436" type="line"/>
      <point x="852.2" y="-202.8" type="line"/>
      <point x="1023.8" y="-202.8" type="line"/>
    </contour>
  </outline>
  <guideline angle="82.9991" x="600" y="0"/>
</glyph>
<glyph name="periodcentered" format="2">
  <advance width="523"/>
  <unicode hex="00B7"/>
  <unicode hex="2219"/>
  <outline>
    <contour>
      <point x="99" y="593.6" type="curve" smooth="yes"/>
      <point x="99" y="507.2"/>
      <point x="170.2" y="436"/>
      <point x="256.6" y="436" type="curve" smooth="yes" name="n03"/>
      <point x="345.8" y="436"/>
      <point x="417" y="507.2"/>
      <point x="417" y="593.6" type="curve" smooth="yes"/>
      <point x="417" y="682.8"/>
      <point x="345.8" y="754"/>
      <point x="256.6" y="754" type="curve" smooth="yes" name="n09"/>
      <point x="170.2" y="754"/>
      <point x="99" y="682.8"/>
    </contour>
  </outline>
  <guideline angle="82.9991" x="260" y="0"/>
</glyph>
<glyph name="cedilla" format="2">
  <advance width="736.0"/>
  <unicode hex="00B8"/>
  <guideline x="368.0" y="0.0" angle="82.9991"/>
  <anchor x="400.0" y="-70.0" name="_bottom"/>
  <outline>
    <contour>
      <point x="228.8" y="-248.0" type="curve" smooth="yes"/>
      <point x="215.2" y="-248.0"/>
      <point x="207.8" y="-254.8"/>
      <point x="202.6" y="-267.2" type="curve"/>
      <point x="176.6" y="-327.6" type="line"/>
      <point x="213.8" y="-345.6"/>
      <point x="258.4" y="-356.8"/>
      <point x="308.0" y="-356.8" type="curve" smooth="yes"/>
      <point x="441.2" y="-356.8"/>
      <point x="537.6" y="-298.2"/>
      <point x="537.6" y="-200.0" type="curve" smooth="yes"/>
      <point x="537.6" y="-129.6"/>
      <point x="482.4" y="-83.6"/>
      <point x="344.4" y="-62.4" type="curve"/>
      <point x="384.0" y="-100.8" type="line"/>
      <point x="433.4" y="27.599999999999998" type="line"/>
      <point x="323.4" y="27.599999999999998" type="line"/>
      <point x="251.2" y="-138.0" type="line"/>
      <point x="337.0" y="-150.2"/>
      <point x="383.6" y="-163.8"/>
      <point x="383.6" y="-207.0" type="curve" smooth="yes"/>
      <point x="383.6" y="-242.4"/>
      <point x="357.0" y="-269.2"/>
      <point x="307.0" y="-269.2" type="curve" smooth="yes"/>
      <point x="261.4" y="-269.2"/>
      <point x="244.6" y="-248.0"/>
    </contour>
  </outline>
</glyph>
<glyph name="ordmasculine" format="2">
  <advance width="750.4"/>
  <unicode hex="00BA"/>
  <guideline x="353.6" y="0.0" angle="82.9991"/>
  <anchor x="358.0" y="-70.0" name="bottom"/>
  <outline>
    <contour>
      <point x="478.2" y="1451.6" type="curve" smooth="yes"/>
      <point x="283.8" y="1451.6"/>
      <point x="145.4" y="1312.4"/>
      <point x="145.4" y="1094.4" type="curve" smooth="yes"/>
      <point x="145.4" y="931.6"/>
      <point x="243.4" y="828.4"/>
      <point x="402.6" y="828.4" type="curve" smooth="yes"/>
      <point x="596.2" y="828.4"/>
      <point x="732.2" y="968.0"/>
      <point x="732.2" y="1187.2" type="curve" smooth="yes"/>
      <point x="732.2" y="1347.6"/>
      <point x="635.4" y="1451.6"/>
    </contour>
    <contour>
      <point x="416.6" y="940.4" type="curve" smooth="yes"/>
      <point x="332.6" y="940.4"/>
      <point x="292.6" y="996.4"/>
      <point x="292.6" y="1092.0" type="curve" smooth="yes"/>
      <point x="292.6" y="1238.4"/>
      <point x="337.8" y="1339.6"/>
      <point x="465.4" y="1339.6" type="curve" smooth="yes"/>
      <point x="545.0" y="1339.6"/>
      <point x="585.8" y="1282.8"/>
      <point x="585.8" y="1187.2" type="curve" smooth="yes"/>
      <point x="585.8" y="1034.8"/>
      <point x="531.4" y="940.4"/>
    </contour>
  </outline>
</glyph>
<glyph name="questiondown" format="2">
  <advance width="823"/>
  <unicode hex="00BF"/>
  <outline>
    <component base="period" yScale="1" xOffset="322.2" yOffset="783.6"/>
    <contour>
      <point x="616.4" y="-131.2" type="line"/>
      <point x="609.6" y="-116"/>
      <point x="597.6" y="-108"/>
      <point x="580.4" y="-108" type="curve" smooth="yes"/>
      <point x="547.6" y="-108"/>
      <point x="480.8" y="-201.2"/>
      <point x="335.6" y="-201.2" type="curve" smooth="yes" name="n06"/>
      <point x="252" y="-201.2"/>
      <point x="180.8" y="-144.4"/>
      <point x="180.8" y="-39.2" type="curve" smooth="yes"/>
      <point x="180.8" y="188.8"/>
      <point x="492" y="212.4"/>
      <point x="500" y="392.8" type="curve" smooth="yes"/>
      <point x="508" y="559.6" type="line" name="n13"/>
      <point x="380" y="559.6" type="line"/>
      <point x="342.4" y="406.8" type="line" smooth="yes"/>
      <point x="307.2" y="264.8"/>
      <point x="-7.6" y="250"/>
      <point x="-7.6" y="-73.6" type="curve" smooth="yes"/>
      <point x="-7.6" y="-247.6"/>
      <point x="116.8" y="-355.6"/>
      <point x="301.2" y="-355.6" type="curve" smooth="yes" name="n21"/>
      <point x="452.8" y="-355.6"/>
      <point x="567.6" y="-287.6"/>
      <point x="657.2" y="-211.2" type="curve"/>
    </contour>
  </outline>
  <guideline angle="82.9991" x="320" y="0"/>
</glyph>
<glyph name="multiply" format="2">
  <advance width="1160"/>
  <unicode hex="00D7"/>
  <outline>
    <contour>
      <point x="187.2" y="1013.6" type="line"/>
      <point x="885.6" y="218.8" type="line"/>
      <point x="996.8" y="319.2" type="line"/>
      <point x="300" y="1114.8" type="line" name="n03"/>
    </contour>
    <contour>
      <point x="982.8" y="1112.8" type="line"/>
      <point x="90" y="317.2" type="line"/>
      <point x="177.6" y="216.8" type="line" name="n06"/>
      <point x="1071.2" y="1011.6" type="line"/>
    </contour>
  </outline>
  <guideline angle="82.9991" x="580" y="0"/>
</glyph>
<glyph name="Oslash" format="2">
  <advance width="1495.2"/>
  <unicode hex="00D8"/>
  <guideline x="732.0" y="0.0" angle="82.9991"/>
  <anchor x="866.0" y="1513.4" name="Top"/>
  <anchor x="866.0" y="1513.4" name="top"/>
  <anchor x="599.6" y="-70.0" name="bottom"/>
  <outline>
    <contour>
      <point x="1479.0" y="1500.0" type="line"/>
      <point x="1373.8" y="1500.0" type="line" smooth="yes"/>
      <point x="1327.8" y="1500.0"/>
      <point x="1313.0" y="1485.2"/>
      <point x="1279.8" y="1447.2" type="curve"/>
      <point x="41.800000000000004" y="-109.2" type="line"/>
      <point x="123.4" y="-109.2" type="line" smooth="yes"/>
      <point x="162.6" y="-109.2"/>
      <point x="209.0" y="-93.2"/>
      <point x="244.6" y="-51.6" type="curve"/>
    </contour>
    <contour>
      <point x="1428.6" y="818.8" type="curve" smooth="yes"/>
      <point x="1428.6" y="1183.6"/>
      <point x="1207.4" y="1452.0"/>
      <point x="851.8" y="1452.0" type="curve" smooth="yes"/>
      <point x="418.6" y="1452.0"/>
      <point x="93.80000000000001" y="1101.6"/>
      <point x="93.80000000000001" y="616.0" type="curve" smooth="yes"/>
      <point x="93.80000000000001" y="251.2"/>
      <point x="315.0" y="-15.2"/>
      <point x="671.0" y="-15.2" type="curve" smooth="yes"/>
      <point x="1105.4" y="-15.2"/>
      <point x="1428.6" y="333.6"/>
    </contour>
    <contour>
      <point x="1217.8" y="814.0" type="curve" smooth="yes"/>
      <point x="1217.8" y="412.8"/>
      <point x="1005.0" y="156.0"/>
      <point x="693.4" y="156.0" type="curve" smooth="yes"/>
      <point x="451.4" y="156.0"/>
      <point x="303.79999999999995" y="338.0"/>
      <point x="303.79999999999995" y="621.6" type="curve"/>
      <point x="303.79999999999995" y="1022.0"/>
      <point x="518.6" y="1280.8"/>
      <point x="827.0" y="1280.8" type="curve" smooth="yes"/>
      <point x="1069.4" y="1280.8"/>
      <point x="1217.8" y="1097.6"/>
    </contour>
  </outline>
</glyph>
<glyph name="Thorn" format="2">
  <advance width="1129.6"/>
  <unicode hex="00DE"/>
  <guideline x="567.2" y="0.0" angle="82.9991"/>
  <anchor x="464.2" y="1513.4" name="Top"/>
  <anchor x="464.2" y="1513.4" name="top"/>
  <anchor x="189.4" y="-70.0" name="bottom"/>
  <outline>
    <contour>
      <point x="473.4" y="1436.0" type="line"/>
      <point x="268.2" y="1436.0" type="line"/>
      <point x="92.6" y="0.0" type="line"/>
      <point x="296.6" y="0.0" type="line"/>
    </contour>
    <contour>
      <point x="372.6" y="1012.0" type="line"/>
      <point x="622.2" y="1012.0" type="line" smooth="yes"/>
      <point x="801.8" y="1012.0"/>
      <point x="887.4" y="920.8"/>
      <point x="887.4" y="772.4" type="curve" smooth="yes"/>
      <point x="887.4" y="574.4"/>
      <point x="772.2" y="432.0"/>
      <point x="551.8" y="432.0" type="curve" smooth="yes"/>
      <point x="281.8" y="432.0" type="line"/>
      <point x="244.2" y="270.4" type="line"/>
      <point x="531.8" y="270.4" type="line" smooth="yes"/>
      <point x="893.8" y="270.4"/>
      <point x="1093.8" y="487.2"/>
      <point x="1093.8" y="790.8" type="curve" smooth="yes"/>
      <point x="1093.8" y="1018.8"/>
      <point x="951.0" y="1172.4"/>
      <point x="643.0" y="1172.4" type="curve" smooth="yes"/>
      <point x="375.8" y="1172.4" type="line"/>
    </contour>
  </outline>
</glyph>
<glyph name="germandbls" format="2">
  <advance width="1172"/>
  <unicode hex="00DF"/>
  <anchor x="725.4" y="1513.4" name="Top"/>
  <anchor x="487.4" y="-421" name="bottom"/>
  <anchor x="725.4" y="1513.4" name="top"/>
  <outline>
    <contour>
      <point x="762.4" y="1457.2" type="curve" smooth="yes" name="n00"/>
      <point x="480.4" y="1457.2"/>
      <point x="266.4" y="1185.2"/>
      <point x="231.2" y="908" type="curve"/>
      <point x="90" y="-248.4" type="line" name="n04"/>
      <point x="167.2" y="-248.4" type="line" smooth="yes"/>
      <point x="222.8" y="-248.4"/>
      <point x="251.6" y="-218.8"/>
      <point x="268" y="-166.8" type="curve"/>
      <point x="315.6" y="35.2" type="line"/>
      <point x="422" y="902" type="line" smooth="yes"/>
      <point x="448.8" y="1124.4"/>
      <point x="572.4" y="1318.4"/>
      <point x="736.8" y="1318.4" type="curve" smooth="yes" name="n13"/>
      <point x="871.2" y="1318.4"/>
      <point x="922" y="1235.2"/>
      <point x="922" y="1158.8" type="curve" smooth="yes"/>
      <point x="922" y="940"/>
      <point x="594.4" y="938.4"/>
      <point x="594.4" y="684.4" type="curve" smooth="yes"/>
      <point x="594.4" y="460"/>
      <point x="900.4" y="493.6"/>
      <point x="900.4" y="307.2" type="curve" smooth="yes"/>
      <point x="900.4" y="201.2"/>
      <point x="825.2" y="118"/>
      <point x="720.8" y="118" type="curve" smooth="yes" name="n25"/>
      <point x="598.8" y="118"/>
      <point x="565.2" y="207.6"/>
      <point x="516.4" y="207.6" type="curve" smooth="yes"/>
      <point x="492.4" y="207.6"/>
      <point x="476" y="197.2"/>
      <point x="463.6" y="180" type="curve" smooth="yes"/>
      <point x="410.8" y="108" type="line"/>
      <point x="476" y="36"/>
      <point x="572" y="-16"/>
      <point x="688.8" y="-16" type="curve" smooth="yes" name="n35"/>
      <point x="899.2" y="-16"/>
      <point x="1080.8" y="122.4"/>
      <point x="1080.8" y="358" type="curve" smooth="yes"/>
      <point x="1080.8" y="618"/>
      <point x="796.4" y="604.8"/>
      <point x="796.4" y="739.2" type="curve" smooth="yes"/>
      <point x="796.4" y="885.6"/>
      <point x="1104" y="896"/>
      <point x="1104" y="1166" type="curve" smooth="yes"/>
      <point x="1104" y="1292"/>
      <point x="1007.6" y="1457.2"/>
    </contour>
    <contour>
      <point x="354.8" y="860.4" type="line" name="n47"/>
      <point x="372.4" y="996.8" type="line" name="n48"/>
      <point x="84.8" y="996.8" type="line"/>
      <point x="76.4" y="919.2" type="line"/>
      <point x="72" y="891.2"/>
      <point x="90.4" y="877.6"/>
      <point x="120" y="871.6" type="curve"/>
      <point x="247.2" y="854.4" type="line"/>
      <point x="276" y="860.4" type="line"/>
    </contour>
  </outline>
  <guideline angle="82.9991" x="480" y="0"/>
</glyph>
<glyph name="ae" format="2">
  <advance width="1487"/>
  <unicode hex="00E6"/>
  <anchor x="629.2" y="-70" name="bottom"/>
  <anchor x="815.6" y="1120" name="top"/>
  <outline>
    <contour>
      <point x="1105.6" y="1030.8" type="curve" smooth="yes" name="n00"/>
      <point x="814" y="1030.8"/>
      <point x="636.8" y="768.4"/>
      <point x="636.8" y="423.6" type="curve" smooth="yes"/>
      <point x="636.8" y="132.4"/>
      <point x="783.2" y="-14.4" name="n05"/>
      <point x="974.8" y="-14.4" type="curve" smooth="yes"/>
      <point x="1149.6" y="-14.4"/>
      <point x="1269.6" y="48"/>
      <point x="1405.6" y="188" type="curve"/>
      <point x="1356.8" y="247.6" type="line"/>
      <point x="1346.8" y="258.8"/>
      <point x="1334" y="266"/>
      <point x="1320.4" y="266" type="curve" smooth="yes"/>
      <point x="1253.6" y="266"/>
      <point x="1202.4" y="138.8"/>
      <point x="1012.8" y="138.8" type="curve" smooth="yes"/>
      <point x="872.8" y="138.8"/>
      <point x="789.2" y="238.8"/>
      <point x="789.2" y="439.6" type="curve" smooth="yes"/>
      <point x="789.2" y="706.8"/>
      <point x="889.6" y="892.4"/>
      <point x="1081.6" y="892.4" type="curve" smooth="yes" name="n22"/>
      <point x="1170.8" y="892.4"/>
      <point x="1219.6" y="844"/>
      <point x="1219.6" y="772.8" type="curve" smooth="yes"/>
      <point x="1219.6" y="679.6"/>
      <point x="1130.8" y="602.4"/>
      <point x="780.4" y="584" type="curve"/>
      <point x="754.8" y="471.2" type="line"/>
      <point x="1261.6" y="473.6"/>
      <point x="1390.4" y="629.2"/>
      <point x="1390.4" y="782.4" type="curve" smooth="yes"/>
      <point x="1390.4" y="921.6"/>
      <point x="1268" y="1030.8"/>
    </contour>
    <contour>
      <point x="732.8" y="404.8" type="line"/>
      <point x="774" y="648" type="line"/>
      <point x="802.4" y="877.2"/>
      <point x="730.8" y="1033.2"/>
      <point x="510.8" y="1033.2" type="curve" smooth="yes"/>
      <point x="371.2" y="1033.2"/>
      <point x="253.6" y="979.2"/>
      <point x="136.8" y="872.4" type="curve"/>
      <point x="162.8" y="812" type="line"/>
      <point x="172.8" y="792.4"/>
      <point x="189.2" y="777.2"/>
      <point x="214.8" y="777.2" type="curve" smooth="yes"/>
      <point x="278" y="777.2"/>
      <point x="334.4" y="880.4"/>
      <point x="489.6" y="880.4" type="curve" smooth="yes"/>
      <point x="602.4" y="880.4"/>
      <point x="652.8" y="802.4"/>
      <point x="634" y="648" type="curve" smooth="yes"/>
      <point x="603.6" y="404.8" type="line"/>
    </contour>
    <contour>
      <point x="603.6" y="404.8" type="line"/>
      <point x="579.2" y="209.6"/>
      <point x="465.6" y="115.6"/>
      <point x="332.8" y="115.6" type="curve" smooth="yes" name="n57"/>
      <point x="250.4" y="115.6"/>
      <point x="197.2" y="158.4"/>
      <point x="197.2" y="249.6" type="curve" smooth="yes"/>
      <point x="197.2" y="380.4"/>
      <point x="308" y="466.8"/>
      <point x="639.6" y="475.2" type="curve" name="n63"/>
      <point x="630.8" y="592.4" type="line" name="n64"/>
      <point x="169.6" y="581.2"/>
      <point x="14.8" y="412"/>
      <point x="14.8" y="225.2" type="curve" smooth="yes"/>
      <point x="14.8" y="65.6"/>
      <point x="116.4" y="-16"/>
      <point x="297.2" y="-16" type="curve" smooth="yes" name="n70"/>
      <point x="472.8" y="-16"/>
      <point x="695.6" y="97.6"/>
      <point x="732.8" y="404.8" type="curve"/>
    </contour>
  </outline>
  <guideline angle="82.9991" x="707" y="0"/>
</glyph>
<glyph name="eth" format="2">
  <advance width="1057"/>
  <unicode hex="00F0"/>
  <anchor x="754.6" y="1513.4" name="Top"/>
  <anchor x="438.6" y="-70" name="bottom"/>
  <anchor x="754.6" y="1513.4" name="top"/>
  <outline>
    <contour>
      <point x="396.4" y="1416.4" type="curve"/>
      <point x="368" y="1356" type="line" smooth="yes"/>
      <point x="350.4" y="1318.2"/>
      <point x="356.6" y="1290.6"/>
      <point x="399.4" y="1277" type="curve"/>
      <point x="729.6" y="1186"/>
      <point x="859.2" y="989"/>
      <point x="815.6" y="601.2" type="curve"/>
      <point x="789.6" y="596.4" type="line"/>
      <point x="750.8" y="264.8"/>
      <point x="624.8" y="132.4"/>
      <point x="456" y="132.4" type="curve" smooth="yes" name="n11"/>
      <point x="332" y="132.4"/>
      <point x="239.2" y="234.8"/>
      <point x="239.2" y="408.4" type="curve" smooth="yes"/>
      <point x="239.2" y="616.4"/>
      <point x="352.8" y="782"/>
      <point x="546.4" y="782" type="curve" smooth="yes" name="n17"/>
      <point x="703.6" y="782"/>
      <point x="772.8" y="659.2"/>
      <point x="792.4" y="535.2" type="curve"/>
      <point x="880.8" y="578.8" type="line"/>
      <point x="844" y="810.4"/>
      <point x="708" y="928"/>
      <point x="526.8" y="928" type="curve" smooth="yes" name="n24"/>
      <point x="248.4" y="928"/>
      <point x="52" y="686.4"/>
      <point x="52" y="399.2" type="curve" smooth="yes"/>
      <point x="52" y="145.2"/>
      <point x="210.8" y="-13.6"/>
      <point x="433.6" y="-13.6" type="curve" smooth="yes" name="n30"/>
      <point x="782.4" y="-13.6"/>
      <point x="975.6" y="282"/>
      <point x="975.6" y="724.8" type="curve" smooth="yes"/>
      <point x="975.6" y="1154.8"/>
      <point x="711.6" y="1361.6"/>
    </contour>
    <contour>
      <point x="480" y="1001" type="line"/>
      <point x="705.2" y="1159.2" type="line"/>
      <point x="721.2" y="1152.4" type="line"/>
      <point x="914.8" y="1288.2" type="line"/>
      <point x="939" y="1302.8"/>
      <point x="938.6" y="1326.4"/>
      <point x="929" y="1343.8" type="curve"/>
      <point x="897.4" y="1405.8" type="line" name="n43"/>
      <point x="669.6" y="1249.6" type="line"/>
      <point x="656" y="1256.4" type="line"/>
      <point x="455.2" y="1114.2" type="line"/>
      <point x="439.4" y="1103.8"/>
      <point x="433.4" y="1082.4"/>
      <point x="444.4" y="1063.6" type="curve" smooth="yes"/>
    </contour>
  </outline>
  <guideline angle="0" x="0" y="1406"/>
  <guideline angle="82.9991" x="482" y="0"/>
</glyph>
<glyph name="divide" format="2">
  <advance width="1160"/>
  <unicode hex="00F7"/>
  <outline>
    <contour>
      <point x="97.2" y="600" type="line" name="n00"/>
      <point x="1058.8" y="600" type="line"/>
      <point x="1076.4" y="742.4" type="line"/>
      <point x="114.8" y="742.4" type="line" name="n03"/>
    </contour>
    <contour>
      <point x="500" y="1011.2" type="curve" smooth="yes"/>
      <point x="500" y="947.6"/>
      <point x="546" y="897.6"/>
      <point x="613.6" y="897.6" type="curve" smooth="yes" name="n07"/>
      <point x="690" y="897.6"/>
      <point x="759.6" y="958.8"/>
      <point x="759.6" y="1039.6" type="curve" smooth="yes"/>
      <point x="759.6" y="1104"/>
      <point x="711.6" y="1156"/>
      <point x="645.2" y="1156" type="curve" smooth="yes" name="n13"/>
      <point x="566.4" y="1156"/>
      <point x="500" y="1090.8"/>
    </contour>
    <contour>
      <point x="412" y="299.2" type="curve" smooth="yes"/>
      <point x="412" y="235.6"/>
      <point x="458.8" y="185.6"/>
      <point x="525.6" y="185.6" type="curve" smooth="yes" name="n19"/>
      <point x="602.8" y="185.6"/>
      <point x="671.6" y="246.8"/>
      <point x="671.6" y="327.6" type="curve" smooth="yes"/>
      <point x="671.6" y="392"/>
      <point x="623.6" y="444"/>
      <point x="557.2" y="444" type="curve" smooth="yes" name="n25"/>
      <point x="478.4" y="444"/>
      <point x="412" y="378.8"/>
    </contour>
  </outline>
  <guideline angle="82.9991" x="580" y="0"/>
</glyph>
<glyph name="oslash" format="2">
  <advance width="1038.6"/>
  <unicode hex="00F8"/>
  <guideline x="504.6" y="0.0" angle="82.9991"/>
  <anchor x="597.6" y="1120.0" name="top"/>
  <anchor x="390.2" y="-70.0" name="bottom"/>
  <outline>
    <contour>
      <point x="845.0" y="865.2" type="line"/>
      <point x="863.0" y="865.2" type="line"/>
      <point x="1008.6" y="1064.4" type="line"/>
      <point x="911.0" y="1064.4" type="line" smooth="yes"/>
      <point x="863.8" y="1064.4"/>
      <point x="849.0" y="1049.6"/>
      <point x="820.2" y="1010.4" type="curve" smooth="yes"/>
      <point x="719.8" y="872.4" type="line"/>
      <point x="700.6" y="872.4" type="line"/>
      <point x="170.2" y="148.0" type="line"/>
      <point x="152.2" y="148.0" type="line"/>
      <point x="3.4000000000000057" y="-54.8" type="line"/>
      <point x="76.2" y="-54.8" type="line" smooth="yes"/>
      <point x="117.8" y="-54.8"/>
      <point x="164.2" y="-38.8"/>
      <point x="195.39999999999998" y="4.0" type="curve" smooth="yes"/>
      <point x="298.6" y="146.0" type="line"/>
      <point x="316.6" y="146.0" type="line"/>
    </contour>
    <contour>
      <point x="454.2" y="125.6" type="curve" smooth="yes"/>
      <point x="321.4" y="125.6"/>
      <point x="238.6" y="230.0"/>
      <point x="238.6" y="410.0" type="curve" smooth="yes"/>
      <point x="238.6" y="683.6"/>
      <point x="372.2" y="892.0"/>
      <point x="560.6" y="892.0" type="curve" smooth="yes"/>
      <point x="692.6" y="892.0"/>
      <point x="776.2" y="788.8"/>
      <point x="776.2" y="607.6" type="curve" smooth="yes"/>
      <point x="776.2" y="336.8"/>
      <point x="642.6" y="125.6"/>
    </contour>
    <contour>
      <point x="436.6" y="-14.4" type="curve" smooth="yes"/>
      <point x="729.0" y="-14.4"/>
      <point x="959.8" y="266.8"/>
      <point x="959.8" y="608.8" type="curve" smooth="yes"/>
      <point x="959.8" y="876.0"/>
      <point x="800.6" y="1032.0"/>
      <point x="578.2" y="1032.0" type="curve" smooth="yes"/>
      <point x="285.8" y="1032.0"/>
      <point x="55.0" y="754.0"/>
      <point x="55.0" y="408.8" type="curve" smooth="yes"/>
      <point x="55.0" y="140.8"/>
      <point x="214.2" y="-14.4"/>
    </contour>
  </outline>
</glyph>
<glyph name="thorn" format="2">
  <advance width="1061.8"/>
  <unicode hex="00FE"/>
  <guideline x="525.4" y="0.0" angle="82.9991"/>
  <anchor x="366.0" y="1513.4" name="Top"/>
  <anchor x="366.0" y="1513.4" name="top"/>
  <anchor x="343.6" y="-421.0" name="bottom"/>
  <outline>
    <contour>
      <point x="131.8" y="-340.8" type="line" smooth="yes"/>
      <point x="175.8" y="-340.8"/>
      <point x="205.8" y="-308.4"/>
      <point x="210.2" y="-272.4" type="curve"/>
      <point x="425.8" y="1476.0" type="line"/>
      <point x="233.4" y="1476.0" type="line"/>
      <point x="12.200000000000003" y="-340.8" type="line"/>
    </contour>
    <contour>
      <point x="218.6" y="148.8" type="line"/>
      <point x="271.8" y="47.6"/>
      <point x="370.2" y="-14.4"/>
      <point x="491.4" y="-14.4" type="curve" smooth="yes"/>
      <point x="770.2" y="-14.4"/>
      <point x="986.2" y="325.2"/>
      <point x="986.2" y="659.2" type="curve" smooth="yes"/>
      <point x="986.2" y="904.0"/>
      <point x="882.2" y="1031.2"/>
      <point x="710.6" y="1031.2" type="curve" smooth="yes"/>
      <point x="505.4" y="1031.2"/>
      <point x="321.0" y="818.4"/>
      <point x="223.4" y="528.4" type="curve"/>
      <point x="288.2" y="434.8" type="line"/>
      <point x="357.0" y="684.8"/>
      <point x="504.2" y="875.6"/>
      <point x="636.2" y="875.6" type="curve" smooth="yes"/>
      <point x="735.4" y="875.6"/>
      <point x="792.6" y="794.4"/>
      <point x="792.6" y="640.0" type="curve" smooth="yes"/>
      <point x="792.6" y="406.0"/>
      <point x="663.8" y="136.4"/>
      <point x="462.2" y="136.4" type="curve" smooth="yes"/>
      <point x="381.8" y="136.4"/>
      <point x="295.4" y="170.0"/>
      <point x="247.8" y="264.8" type="curve"/>
    </contour>
  </outline>
</glyph>
<glyph name="Dcroat" format="2">
  <advance width="1427"/>
  <unicode hex="0110"/>
  <anchor x="719.6" y="1513.4" name="Top"/>
  <anchor x="518.8" y="-70" name="bottom"/>
  <anchor x="719.6" y="1513.4" name="top"/>
  <outline>
    <contour>
      <point x="1358.6" y="818" type="curve" smooth="yes"/>
      <point x="1358.6" y="1181.6"/>
      <point x="1137.4" y="1436"/>
      <point x="780.6" y="1436" type="curve" smooth="yes" name="n03"/>
      <point x="282.2" y="1436" type="line"/>
      <point x="106.6" y="0" type="line"/>
      <point x="605" y="0" type="line" smooth="yes" name="n06"/>
      <point x="1039.4" y="0"/>
      <point x="1358.6" y="331.6"/>
    </contour>
    <contour>
      <point x="1147.8" y="813.2" type="curve" smooth="yes"/>
      <point x="1147.8" y="409.6"/>
      <point x="936.6" y="165.2"/>
      <point x="625" y="165.2" type="curve" smooth="yes" name="n12"/>
      <point x="333" y="165.2" type="line"/>
      <point x="467.8" y="1270.8" type="line"/>
      <point x="760.6" y="1270.8" type="line" smooth="yes" name="n15"/>
      <point x="1003" y="1270.8"/>
      <point x="1147.8" y="1094.8"/>
    </contour>
    <contour>
      <point x="12.2" y="663.6" type="line" name="n18"/>
      <point x="737.4" y="663.6" type="line"/>
      <point x="751.4" y="783.2" type="line"/>
      <point x="27.4" y="783.2" type="line" name="n21"/>
    </contour>
  </outline>
  <guideline angle="82.9991" x="723" y="0"/>
</glyph>
<glyph name="dcroat" format="2">
  <advance width="1062.8"/>
  <unicode hex="0111"/>
  <guideline x="525.6" y="0.0" angle="82.9991"/>
  <anchor x="908.8" y="1513.4" name="Top"/>
  <anchor x="908.8" y="1513.4" name="top"/>
  <anchor x="484.4" y="-70.0" name="bottom"/>
  <outline>
    <contour>
      <point x="601.6" y="1210.4" type="line"/>
      <point x="593.6" y="1163.2"/>
      <point x="610.4" y="1141.2"/>
      <point x="663.2" y="1141.2" type="curve" smooth="yes"/>
      <point x="1132.4" y="1141.2" type="line"/>
      <point x="1146.4" y="1260.8" type="line"/>
      <point x="609.6" y="1260.8" type="line"/>
    </contour>
    <contour>
      <point x="860.4" y="0.0" type="line"/>
      <point x="1042.4" y="1476.0" type="line"/>
      <point x="851.2" y="1476.0" type="line"/>
      <point x="707.6" y="320.0" type="line"/>
      <point x="713.6" y="302.8" type="line"/>
      <point x="693.6" y="66.8" type="line"/>
      <point x="693.6" y="29.599999999999998"/>
      <point x="707.6" y="0.0"/>
      <point x="758.4" y="0.0" type="curve" smooth="yes"/>
    </contour>
    <contour>
      <point x="819.2" y="846.0" type="line"/>
      <point x="766.0" y="947.2"/>
      <point x="667.6" y="1008.4"/>
      <point x="546.4" y="1008.4" type="curve" smooth="yes"/>
      <point x="267.6" y="1008.4"/>
      <point x="51.6" y="692.4"/>
      <point x="51.6" y="358.4" type="curve" smooth="yes"/>
      <point x="51.6" y="113.6"/>
      <point x="155.6" y="-14.4"/>
      <point x="327.2" y="-14.4" type="curve" smooth="yes"/>
      <point x="532.4" y="-14.4"/>
      <point x="716.8" y="199.2"/>
      <point x="814.4" y="489.2" type="curve"/>
      <point x="749.6" y="582.8" type="line"/>
      <point x="680.8" y="332.8"/>
      <point x="533.6" y="141.2"/>
      <point x="401.6" y="141.2" type="curve" smooth="yes"/>
      <point x="302.4" y="141.2"/>
      <point x="245.2" y="223.2"/>
      <point x="245.2" y="377.6" type="curve" smooth="yes"/>
      <point x="245.2" y="611.6"/>
      <point x="374.0" y="857.6"/>
      <point x="575.6" y="857.6" type="curve" smooth="yes"/>
      <point x="656.0" y="857.6"/>
      <point x="742.4" y="824.8"/>
      <point x="790.0" y="730.0" type="curve"/>
    </contour>
  </outline>
</glyph>
<glyph name="hcircumflex" format="2">
  <advance width="1065"/>
  <unicode hex="0125"/>
  <anchor x="553.6" y="716.8" name="Slash"/>
  <anchor x="366.6" y="1513.4" name="Top"/>
  <anchor x="458.2" y="-70" name="bottom"/>
  <anchor x="366.6" y="1513.4" name="top"/>
  <outline>
    <component base="h"/>
    <contour>
      <point x="24.2" y="1546.4" type="line" name="n00"/>
      <point x="166.6" y="1546.4" type="line" smooth="yes"/>
      <point x="183.4" y="1546.4"/>
      <point x="204.6" y="1552"/>
      <point x="217.8" y="1560.4" type="curve"/>
      <point x="338.6" y="1650.8" type="line"/>
      <point x="381.4" y="1679.2"/>
      <point x="414.6" y="1725.2"/>
      <point x="418.2" y="1758" type="curve" name="n08"/>
      <point x="270.6" y="1758" type="line"/>
    </contour>
    <contour>
      <point x="457" y="1758" type="line"/>
      <point x="309.4" y="1758" type="line"/>
      <point x="305" y="1725.2"/>
      <point x="326.6" y="1680.4"/>
      <point x="363.4" y="1650.8" type="curve"/>
      <point x="461" y="1560.4" type="line"/>
      <point x="473.4" y="1553.2"/>
      <point x="493.4" y="1546.4"/>
      <point x="508.2" y="1546.4" type="curve" smooth="yes"/>
      <point x="651.8" y="1546.4" type="line"/>
    </contour>
  </outline>
  <guideline angle="82.9991" x="502" y="0"/>
</glyph>
<glyph name="Hbar" format="2">
  <advance width="1443.8"/>
  <unicode hex="0126"/>
  <guideline x="725.4" y="0.0" angle="82.9991"/>
  <anchor x="836.6" y="1513.4" name="Top"/>
  <anchor x="836.6" y="1513.4" name="top"/>
  <anchor x="644.8" y="-70.0" name="bottom"/>
  <anchor x="-6.199999999999996" y="1120.0" name="onRight"/>
  <outline>
    <contour>
      <point x="91.8" y="1037.2" type="line"/>
      <point x="1472.2" y="1037.2" type="line"/>
      <point x="1486.2" y="1159.6" type="line"/>
      <point x="105.8" y="1159.6" type="line"/>
    </contour>
    <component base="H" xOffset="13.4"/>
  </outline>
</glyph>
<glyph name="hbar" format="2">
  <advance width="1065"/>
  <unicode hex="0127"/>
  <anchor x="356.4" y="1513.4" name="Top"/>
  <anchor x="458.2" y="-70" name="bottom"/>
  <anchor x="356.4" y="1513.4" name="top"/>
  <outline>
    <contour>
      <point x="41" y="1140" type="line" name="n00"/>
      <point x="573.8" y="1140" type="line" smooth="yes"/>
      <point x="611" y="1140"/>
      <point x="633.8" y="1159.6"/>
      <point x="639.4" y="1192.8" type="curve" smooth="yes"/>
      <point x="649.8" y="1263.2" type="line"/>
      <point x="57.4" y="1263.2" type="line" name="n06"/>
    </contour>
    <contour>
      <point x="249" y="0" type="line" name="n07"/>
      <point x="427.8" y="1476" type="line" name="n08"/>
      <point x="233" y="1476" type="line"/>
      <point x="54.2" y="0" type="line"/>
    </contour>
    <contour>
      <point x="872.6" y="0" type="line"/>
      <point x="946.6" y="623.2" type="line"/>
      <point x="751.8" y="623.2" type="line"/>
      <point x="677.8" y="0" type="line"/>
    </contour>
    <contour>
      <point x="946.6" y="623.2" type="line"/>
      <point x="977" y="868.4"/>
      <point x="881.8" y="1007.2"/>
      <point x="708.6" y="1007.2" type="curve" smooth="yes" name="n18"/>
      <point x="524.2" y="1007.2"/>
      <point x="339.4" y="852.8"/>
      <point x="231.4" y="559.2" type="curve"/>
      <point x="295.4" y="460.8" type="line"/>
      <point x="362.2" y="693.2"/>
      <point x="510.2" y="846.8"/>
      <point x="635.8" y="846.8" type="curve" smooth="yes" name="n25"/>
      <point x="735.4" y="846.8"/>
      <point x="770.6" y="775.2"/>
      <point x="751.8" y="623.2" type="curve"/>
    </contour>
  </outline>
  <guideline angle="82.9991" x="502" y="0"/>
</glyph>
<glyph name="idotless" format="2">
  <advance width="467"/>
  <unicode hex="0131"/>
  <anchor x="155" y="-70" name="bottom"/>
  <anchor x="290" y="1120" name="top"/>
  <outline>
    <contour>
      <point x="186.4" y="1016" type="line" name="n00"/>
      <point x="64" y="0" type="line" name="n01"/>
      <point x="256.4" y="0" type="line"/>
      <point x="378.8" y="1016" type="line"/>
    </contour>
  </outline>
  <guideline angle="82.9991" x="213" y="0"/>
</glyph>
<glyph name="kgreenlandic" format="2">
  <advance width="960.0"/>
  <unicode hex="0138"/>
  <guideline x="487.4" y="0.0" angle="82.9991"/>
  <anchor x="542.6" y="1120.0" name="top"/>
  <anchor x="428.4" y="-70.0" name="bottom"/>
  <outline>
    <contour>
      <point x="178.4" y="1016.0" type="line"/>
      <point x="52.800000000000004" y="0.0" type="line"/>
      <point x="245.2" y="0.0" type="line"/>
      <point x="370.8" y="1016.0" type="line"/>
    </contour>
    <contour>
      <point x="252.0" y="612.8" type="line"/>
      <point x="270.4" y="480.8" type="line"/>
      <point x="338.0" y="480.8" type="line" smooth="yes"/>
      <point x="375.2" y="480.8"/>
      <point x="388.0" y="474.8"/>
      <point x="403.6" y="445.6" type="curve" smooth="yes"/>
      <point x="648.0" y="37.2" type="line"/>
      <point x="660.4" y="9.2"/>
      <point x="680.8" y="0.0"/>
      <point x="711.2" y="0.0" type="curve" smooth="yes"/>
      <point x="878.4" y="0.0" type="line"/>
      <point x="587.2" y="499.2" type="line"/>
      <point x="558.8" y="558.4"/>
      <point x="524.8" y="596.4"/>
      <point x="430.0" y="596.4" type="curve"/>
      <point x="422.4" y="536.0" type="line"/>
      <point x="499.6" y="536.0"/>
      <point x="556.0" y="564.8"/>
      <point x="603.5999999999999" y="622.8" type="curve"/>
      <point x="978.0" y="1016.0" type="line"/>
      <point x="806.0" y="1016.0" type="line" smooth="yes"/>
      <point x="773.2" y="1016.0"/>
      <point x="752.4" y="1002.8"/>
      <point x="732.8" y="978.4" type="curve"/>
      <point x="413.2" y="642.8" type="line"/>
      <point x="391.2" y="618.0"/>
      <point x="374.0" y="612.8"/>
      <point x="349.6" y="612.8" type="curve" smooth="yes"/>
    </contour>
  </outline>
</glyph>
<glyph name="Lcaron" format="2">
  <advance width="955.2"/>
  <unicode hex="013D"/>
  <guideline x="474.0" y="0.0" angle="82.9991"/>
  <anchor x="389.6" y="1513.4" name="Top"/>
  <anchor x="389.6" y="1513.4" name="top"/>
  <anchor x="441.8" y="-70.0" name="bottom"/>
  <anchor x="281.6" y="716.8" name="Bar"/>
  <outline>
    <contour>
      <point x="739.8" y="1476.8" type="line"/>
      <point x="645.0" y="1147.6" type="line"/>
      <point x="711.0" y="1147.6" type="line" smooth="yes"/>
      <point x="745.0" y="1147.6"/>
      <point x="765.0" y="1153.6"/>
      <point x="782.2" y="1184.4" type="curve"/>
      <point x="881.8" y="1384.4"/>
      <point x="895.0" y="1424.4"/>
      <point x="895.0" y="1450.0" type="curve" smooth="yes"/>
      <point x="895.0" y="1463.2"/>
      <point x="889.8" y="1476.8"/>
      <point x="865.0" y="1476.8" type="curve" smooth="yes"/>
    </contour>
    <component base="L"/>
  </outline>
</glyph>
<glyph name="Lslash" format="2">
  <advance width="988"/>
  <unicode hex="0141"/>
  <anchor x="314.4" y="716.8" name="Bar"/>
  <anchor x="422.4" y="1513.4" name="Top"/>
  <anchor x="474.6" y="-70" name="bottom"/>
  <anchor x="422.4" y="1513.4" name="top"/>
  <outline>
    <component base="L" xOffset="32.8"/>
    <contour>
      <point x="4.2" y="456" type="line" name="n00"/>
      <point x="320.6" y="614.4" type="line"/>
      <point x="325.8" y="604.8" type="line"/>
      <point x="741.8" y="826.4" type="line"/>
      <point x="761" y="834.8"/>
      <point x="770.6" y="850.4"/>
      <point x="773.8" y="871.6" type="curve"/>
      <point x="790.6" y="1008.4" type="line" name="n07"/>
      <point x="346.6" y="778" type="line"/>
      <point x="343.8" y="788.8" type="line"/>
      <point x="51.4" y="637.6" type="line"/>
      <point x="33" y="629.2"/>
      <point x="23" y="615.6"/>
      <point x="21.8" y="596" type="curve"/>
    </contour>
  </outline>
  <guideline angle="82.9991" x="483" y="0"/>
</glyph>
<glyph name="lslash" format="2">
  <advance width="585"/>
  <unicode hex="0142"/>
  <anchor x="409.2" y="1513.4" name="Top"/>
  <anchor x="318.4" y="733.6" name="bar"/>
  <anchor x="216" y="-70" name="bottom"/>
  <anchor x="330.6" y="141.2" name="hook"/>
  <anchor x="409.2" y="1513.4" name="top"/>
  <outline>
    <component base="l" xOffset="72"/>
    <contour>
      <point x="48.4" y="613.6" type="line" name="n00"/>
      <point x="317.6" y="727.6" type="line"/>
      <point x="324" y="716.8" type="line"/>
      <point x="563.2" y="822.4" type="line" smooth="yes"/>
      <point x="583.6" y="830.8"/>
      <point x="592" y="846.4"/>
      <point x="592" y="868.8" type="curve" smooth="yes"/>
      <point x="592" y="980.4" type="line" name="n07"/>
      <point x="324" y="867.2" type="line"/>
      <point x="318.8" y="878" type="line"/>
      <point x="74.8" y="770.4" type="line" smooth="yes"/>
      <point x="56.4" y="762"/>
      <point x="48.4" y="748.4"/>
      <point x="48.4" y="728.8" type="curve" smooth="yes"/>
    </contour>
  </outline>
  <guideline angle="82.9991" x="264" y="0"/>
</glyph>
<glyph name="Eng" format="2">
  <advance width="1423.8"/>
  <unicode hex="014A"/>
  <guideline x="664.4" y="0.0" angle="82.9991"/>
  <anchor x="810.0" y="1512.6" name="Top"/>
  <anchor x="810.0" y="1512.6" name="top"/>
  <anchor x="590.0" y="-421.0" name="bottom"/>
  <outline>
    <contour>
      <point x="1073.2" y="296.59999999999997" type="line"/>
      <point x="441.0" y="1400.4" type="line"/>
      <point x="422.4" y="1429.8"/>
      <point x="410.6" y="1435.4"/>
      <point x="374.6" y="1435.4" type="curve" smooth="yes"/>
      <point x="268.8" y="1435.4" type="line"/>
      <point x="92.6" y="0.0" type="line"/>
      <point x="272.8" y="0.0" type="line"/>
      <point x="395.8" y="1002.0" type="line" smooth="yes"/>
      <point x="403.2" y="1061.8"/>
      <point x="406.8" y="1145.8"/>
      <point x="400.8" y="1205.6" type="curve"/>
      <point x="378.8" y="1138.8" type="line"/>
      <point x="1009.2" y="36.4" type="line"/>
      <point x="1026.6" y="10.2"/>
      <point x="1044.8" y="0.0"/>
      <point x="1076.8" y="0.0" type="curve"/>
      <point x="1188.2" y="50.4" type="line"/>
      <point x="1357.8" y="1435.4" type="line"/>
      <point x="1177.6" y="1435.4" type="line"/>
      <point x="1055.6" y="440.2" type="line" smooth="yes"/>
      <point x="1047.6" y="375.2"/>
      <point x="1045.2" y="286.0"/>
      <point x="1050.6" y="221.6" type="curve"/>
    </contour>
    <contour>
      <point x="1210.0" y="226.6" type="line"/>
      <point x="1028.2" y="226.6" type="line"/>
      <point x="999.6" y="-9.400000000000006" type="line" smooth="yes"/>
      <point x="982.4" y="-148.8"/>
      <point x="922.6" y="-216.4"/>
      <point x="824.0" y="-216.4" type="curve" smooth="yes"/>
      <point x="780.4" y="-216.4"/>
      <point x="760.4" y="-202.0"/>
      <point x="743.6" y="-202.0" type="curve"/>
      <point x="726.0" y="-202.0"/>
      <point x="709.0" y="-208.60000000000002"/>
      <point x="697.0" y="-239.4" type="curve"/>
      <point x="666.4" y="-321.4" type="line"/>
      <point x="719.4" y="-346.2"/>
      <point x="763.2" y="-357.6"/>
      <point x="824.2" y="-357.6" type="curve" smooth="yes"/>
      <point x="1046.8" y="-357.6"/>
      <point x="1156.6" y="-208.0"/>
      <point x="1182.8" y="11.599999999999994" type="curve"/>
    </contour>
  </outline>
</glyph>
<glyph name="eng" format="2">
  <advance width="1066"/>
  <unicode hex="014B"/>
  <anchor x="416.8" y="-421" name="bottom"/>
  <anchor x="586.8" y="1120" name="top"/>
  <outline>
    <contour>
      <point x="687" y="63.6" type="line" name="n00"/>
      <point x="677.6" y="-16.4" type="line" smooth="yes"/>
      <point x="661.4" y="-155.8"/>
      <point x="605.4" y="-218"/>
      <point x="509" y="-218" type="curve" smooth="yes"/>
      <point x="464.4" y="-218"/>
      <point x="445" y="-207.8"/>
      <point x="428.6" y="-207.8" type="curve" smooth="yes" name="n07"/>
      <point x="396.2" y="-207.8"/>
      <point x="388.2" y="-219.2"/>
      <point x="382.2" y="-250.6" type="curve" smooth="yes"/>
      <point x="365.4" y="-342.8" type="line"/>
      <point x="417.8" y="-359.2"/>
      <point x="450" y="-364.6"/>
      <point x="510.6" y="-364.6" type="curve" smooth="yes" name="n14"/>
      <point x="736.6" y="-364.6"/>
      <point x="847.6" y="-217.4"/>
      <point x="875.4" y="5.2" type="curve" smooth="yes"/>
      <point x="884.8" y="82.8" type="line"/>
    </contour>
    <contour>
      <point x="249.6" y="0" type="line"/>
      <point x="327.2" y="688.4" type="line"/>
      <point x="322.4" y="700.8" type="line"/>
      <point x="340" y="952" type="line"/>
      <point x="340.4" y="996.4"/>
      <point x="316.4" y="1017.6" name="n24"/>
      <point x="274" y="1017.6" type="curve" smooth="yes"/>
      <point x="176.4" y="1017.6" type="line"/>
      <point x="54.8" y="0" type="line"/>
    </contour>
    <contour>
      <point x="884.8" y="82.8" type="line"/>
      <point x="950.4" y="647.2" type="line"/>
      <point x="755.6" y="647.2" type="line"/>
      <point x="687" y="63.6" type="line"/>
    </contour>
    <contour>
      <point x="950.4" y="647.2" type="line"/>
      <point x="980.8" y="892.4"/>
      <point x="884.8" y="1031.2"/>
      <point x="713.6" y="1031.2" type="curve" smooth="yes" name="n35"/>
      <point x="528" y="1031.2"/>
      <point x="344.4" y="876.8"/>
      <point x="236.4" y="583.2" type="curve"/>
      <point x="299.2" y="484.8" type="line"/>
      <point x="365.2" y="717.2"/>
      <point x="513.2" y="869.6"/>
      <point x="640.8" y="869.6" type="curve" smooth="yes" name="n42"/>
      <point x="739.2" y="869.6"/>
      <point x="774.4" y="799.2"/>
      <point x="755.6" y="647.2" type="curve"/>
    </contour>
  </outline>
  <guideline angle="82.9991" x="503" y="0"/>
</glyph>
